<?xml version="1.0" encoding="utf-8"?>
<!-- Generator: Adobe Illustrator 16.0.0, SVG Export Plug-In . SVG Version: 6.00 Build 0)  -->
<!DOCTYPE svg PUBLIC "-//W3C//DTD SVG 1.0//EN" "http://www.w3.org/TR/2001/REC-SVG-20010904/DTD/svg10.dtd">
<svg version="1.0" id="图层_1" xmlns="http://www.w3.org/2000/svg" xmlns:xlink="http://www.w3.org/1999/xlink" x="0px" y="0px"
	 width="9.639px" height="9.639px" viewBox="0 0 9.639 9.639" enable-background="new 0 0 9.639 9.639" xml:space="preserve">
<g>
	<path fill-rule="evenodd" clip-rule="evenodd" d="M1.859,5.762V4.79c0-0.16,0.131-0.291,0.292-0.291c0.16,0,0.29,0.131,0.29,0.291
		v0.972c0,0.161-0.13,0.291-0.29,0.291S1.859,5.923,1.859,5.762L1.859,5.762z M2.831,5.762V4.402c0-0.161,0.129-0.292,0.289-0.292
		c0.162,0,0.291,0.131,0.291,0.292v1.359c0,0.161-0.129,0.291-0.291,0.291C2.96,6.053,2.831,5.923,2.831,5.762L2.831,5.762z
		 M3.799,5.762V4.014c0-0.161,0.131-0.291,0.292-0.291c0.16,0,0.292,0.13,0.292,0.291v1.748c0,0.161-0.132,0.291-0.292,0.291
		C3.93,6.053,3.799,5.923,3.799,5.762L3.799,5.762z M8.263,3.463L8.262,2.458H1.278v4.081l4.228,0.006
		c0.131,0.297,0.322,0.559,0.559,0.772H0.89c-0.213,0-0.389-0.175-0.389-0.39V2.07c0-0.215,0.176-0.389,0.389-0.389h7.759
		c0.215,0,0.388,0.174,0.388,0.389v1.815C8.812,3.697,8.548,3.552,8.263,3.463L8.263,3.463z M2.345,7.703h4.317
		c0.266,0.119,0.559,0.188,0.867,0.194c0.034,0.056,0.052,0.124,0.052,0.194c0,0.216-0.174,0.389-0.387,0.389h-4.85
		c-0.215,0-0.388-0.173-0.388-0.389C1.957,7.878,2.13,7.703,2.345,7.703L2.345,7.703z M5.758,5.635c0-1.013,0.819-1.831,1.831-1.831
		c1.011,0,1.829,0.818,1.829,1.831c0,1.012-0.818,1.83-1.829,1.83C6.577,7.465,5.758,6.646,5.758,5.635L5.758,5.635z M6.561,6.077
		C6.544,6.059,6.545,6.046,6.556,6.028C6.619,5.926,6.68,5.823,6.739,5.721C6.749,5.705,6.759,5.697,6.78,5.7
		c0.051,0.008,0.101,0,0.147-0.021c0.018-0.011,0.031-0.009,0.049,0.005c0.201,0.146,0.402,0.295,0.604,0.44
		C7.603,6.141,7.603,6.148,7.59,6.17C7.517,6.289,7.529,6.435,7.62,6.543c0.09,0.104,0.236,0.145,0.37,0.096
		c0.123-0.047,0.196-0.136,0.215-0.264c0.016-0.122-0.03-0.222-0.13-0.3C8.062,6.065,8.044,6.063,8.06,6.036
		c0.145-0.239,0.287-0.481,0.43-0.724c0.008-0.014,0.017-0.019,0.034-0.014c0.046,0.009,0.091,0.01,0.138,0.003
		C8.866,5.27,9.007,5.095,8.99,4.895c-0.015-0.193-0.186-0.348-0.39-0.347l0,0c-0.163,0-0.311,0.104-0.364,0.255
		c-0.054,0.152-0.005,0.321,0.126,0.42c0.021,0.017,0.021,0.026,0.008,0.05C8.228,5.512,8.087,5.75,7.944,5.987
		C7.935,6.007,7.924,6.015,7.9,6.013C7.838,6.006,7.775,6.018,7.719,6.049c-0.017,0.01-0.025,0.005-0.038-0.005
		C7.477,5.897,7.274,5.748,7.069,5.6C7.054,5.588,7.049,5.579,7.061,5.561c0.043-0.068,0.052-0.141,0.03-0.22
		C7.057,5.227,6.952,5.144,6.834,5.136C6.709,5.129,6.595,5.197,6.543,5.307c-0.048,0.11-0.021,0.239,0.07,0.32
		c0.021,0.019,0.021,0.029,0.009,0.049C6.563,5.773,6.505,5.87,6.449,5.968c-0.011,0.018-0.021,0.023-0.041,0.02
		C6.219,5.953,6.06,6.131,6.119,6.306c0.034,0.103,0.108,0.16,0.217,0.174c0.1,0.013,0.203-0.039,0.251-0.128
		C6.639,6.255,6.629,6.161,6.561,6.077L6.561,6.077z"/>
</g>
<g>
	<path fill-rule="evenodd" clip-rule="evenodd" fill="#FF650A" d="M1.636,5.537v-0.97c0-0.16,0.131-0.291,0.291-0.291
		s0.292,0.131,0.292,0.291v0.97c0,0.163-0.132,0.292-0.292,0.292S1.636,5.7,1.636,5.537L1.636,5.537z M2.606,5.537V4.179
		c0-0.163,0.131-0.291,0.291-0.291c0.159,0,0.291,0.128,0.291,0.291v1.358c0,0.163-0.132,0.292-0.291,0.292
		C2.737,5.829,2.606,5.7,2.606,5.537L2.606,5.537z M3.574,5.537V3.791c0-0.163,0.131-0.292,0.294-0.292
		c0.16,0,0.291,0.129,0.291,0.292v1.746c0,0.163-0.131,0.292-0.291,0.292C3.705,5.829,3.574,5.7,3.574,5.537L3.574,5.537z
		 M8.038,3.24V2.235H1.053v4.081l4.229,0.005c0.131,0.297,0.322,0.56,0.558,0.771H0.666c-0.213,0-0.389-0.174-0.389-0.388V1.848
		c0-0.216,0.176-0.389,0.389-0.389h7.758c0.215,0,0.388,0.173,0.388,0.389v1.814C8.589,3.474,8.324,3.328,8.038,3.24L8.038,3.24z
		 M2.121,7.481h4.317c0.265,0.117,0.559,0.186,0.868,0.193C7.341,7.73,7.358,7.799,7.358,7.869c0,0.216-0.175,0.389-0.388,0.389
		h-4.85c-0.216,0-0.389-0.173-0.389-0.389C1.732,7.654,1.905,7.481,2.121,7.481L2.121,7.481z M5.534,5.411
		c0-1.013,0.82-1.831,1.83-1.831c1.013,0,1.831,0.818,1.831,1.831c0,1.01-0.818,1.828-1.831,1.828
		C6.354,7.239,5.534,6.421,5.534,5.411L5.534,5.411z M6.336,5.855C6.32,5.834,6.323,5.823,6.333,5.806
		c0.063-0.103,0.124-0.205,0.184-0.308c0.009-0.015,0.02-0.023,0.039-0.021c0.053,0.008,0.101,0,0.147-0.021
		c0.019-0.011,0.031-0.007,0.051,0.006c0.201,0.146,0.4,0.293,0.603,0.44C7.38,5.918,7.38,5.926,7.367,5.947
		C7.293,6.064,7.307,6.212,7.396,6.319c0.089,0.104,0.239,0.145,0.369,0.098C7.889,6.368,7.963,6.28,7.98,6.151
		C7.997,6.03,7.952,5.928,7.853,5.853C7.839,5.842,7.82,5.84,7.837,5.813C7.98,5.575,8.122,5.33,8.267,5.089
		c0.008-0.013,0.016-0.018,0.034-0.013c0.045,0.008,0.089,0.01,0.137,0.002c0.204-0.031,0.346-0.207,0.329-0.406
		c-0.015-0.194-0.186-0.349-0.39-0.346l0,0c-0.163,0-0.31,0.102-0.364,0.254C7.959,4.732,8.007,4.9,8.138,5
		c0.021,0.016,0.021,0.026,0.009,0.05C8.004,5.289,7.862,5.526,7.722,5.764C7.711,5.784,7.7,5.792,7.677,5.789
		C7.613,5.781,7.553,5.795,7.495,5.826C7.48,5.834,7.47,5.831,7.456,5.821c-0.202-0.147-0.407-0.297-0.61-0.446
		C6.829,5.364,6.827,5.357,6.837,5.338c0.042-0.068,0.052-0.141,0.028-0.22C6.831,5.003,6.73,4.921,6.608,4.913
		C6.485,4.905,6.37,4.974,6.32,5.084c-0.05,0.109-0.021,0.239,0.07,0.32c0.02,0.018,0.021,0.028,0.009,0.049
		C6.338,5.55,6.28,5.647,6.227,5.744c-0.011,0.02-0.021,0.023-0.043,0.02C5.995,5.729,5.835,5.907,5.896,6.083
		c0.034,0.103,0.107,0.16,0.218,0.174c0.1,0.013,0.201-0.04,0.249-0.129C6.415,6.03,6.404,5.938,6.336,5.855L6.336,5.855z"/>
</g>
</svg>
