<?xml version="1.0" encoding="utf-8"?>
<!-- Generator: Adobe Illustrator 16.0.0, SVG Export Plug-In . SVG Version: 6.00 Build 0)  -->
<!DOCTYPE svg PUBLIC "-//W3C//DTD SVG 1.0//EN" "http://www.w3.org/TR/2001/REC-SVG-20010904/DTD/svg10.dtd">
<svg version="1.0" id="图层_1" xmlns="http://www.w3.org/2000/svg" xmlns:xlink="http://www.w3.org/1999/xlink" x="0px" y="0px"
	 width="9.639px" height="9.639px" viewBox="0 0 9.639 9.639" enable-background="new 0 0 9.639 9.639" xml:space="preserve">
<g>
	<path fill-rule="evenodd" clip-rule="evenodd" d="M5.359,1.487V0.47H4.343v1.017H0.33v1.018h0.51V7.59h3.165L2.025,9.115
		l0.339,0.396l2.431-1.979l2.43,1.979l0.339-0.396L5.642,7.533h3.222V2.448h0.509V1.487H5.359L5.359,1.487z M2.816,6.007
		c-0.734,0-1.13-0.734-1.187-1.469c0-0.735,0.622-1.357,1.357-1.357c0.732,0,1.355,0.564,1.355,1.3H2.816V6.007L2.816,6.007z
		 M3.326,6.516V4.99h1.526C4.853,5.725,4.117,6.516,3.326,6.516L3.326,6.516z M7.396,6.007H5.868V5.5h1.471h0.057V6.007L7.396,6.007
		z M7.396,4.99H5.868V4.482h1.471h0.057V4.99L7.396,4.99z M7.396,3.973H5.868V3.464h1.471h0.057V3.973L7.396,3.973z"/>
	<path fill-rule="evenodd" clip-rule="evenodd" d="M8.779,5.994"/>
</g>
<g>
	<path fill-rule="evenodd" clip-rule="evenodd" fill="#FF650A" d="M5.11,1.239V0.221H4.095v1.018H0.082v1.017h0.51v5.085h3.165
		l-1.98,1.525l0.342,0.396l2.428-1.978l2.431,1.978l0.338-0.396L5.393,7.285h3.225V2.2h0.506v-0.96H5.11L5.11,1.239z M2.568,5.76
		c-0.733,0-1.13-0.734-1.188-1.469c0-0.736,0.623-1.357,1.357-1.357c0.732,0,1.356,0.565,1.356,1.3H2.568V5.76L2.568,5.76z
		 M3.078,6.267V4.742h1.526C4.604,5.477,3.868,6.267,3.078,6.267L3.078,6.267z M7.146,5.76H5.62V5.251h1.471h0.056V5.76L7.146,5.76z
		 M7.146,4.742H5.62V4.233h1.471h0.056V4.742L7.146,4.742z M7.146,3.726H5.62v-0.51h1.471h0.056V3.726L7.146,3.726z"/>
	<path fill-rule="evenodd" clip-rule="evenodd" fill="#FF650A" d="M8.531,5.746"/>
</g>
</svg>
