<?xml version="1.0" encoding="utf-8"?>
<!-- Generator: Adobe Illustrator 16.0.0, SVG Export Plug-In . SVG Version: 6.00 Build 0)  -->
<!DOCTYPE svg PUBLIC "-//W3C//DTD SVG 1.0//EN" "http://www.w3.org/TR/2001/REC-SVG-20010904/DTD/svg10.dtd">
<svg version="1.0" id="图层_1" xmlns="http://www.w3.org/2000/svg" xmlns:xlink="http://www.w3.org/1999/xlink" x="0px" y="0px"
	 width="9.639px" height="9.639px" viewBox="0 0 9.639 9.639" enable-background="new 0 0 9.639 9.639" xml:space="preserve">
<g>
	<path fill-rule="evenodd" clip-rule="evenodd" d="M0.654,1.536H9.23c0.167,0,0.3-0.134,0.3-0.299s-0.133-0.3-0.3-0.3H0.654
		c-0.165,0-0.299,0.135-0.299,0.3S0.489,1.536,0.654,1.536L0.654,1.536z M0.754,2.086v4.311h8.379V2.086H0.754L0.754,2.086z
		 M5.448,5.143c-0.078,0.079-0.204,0.079-0.281,0L4.179,4.156l-1.411,1.41c-0.077,0.078-0.202,0.078-0.28,0
		c-0.078-0.079-0.078-0.205,0-0.282l1.551-1.551c0.078-0.079,0.203-0.079,0.283,0l0.986,0.987l1.834-1.835
		c0.078-0.078,0.203-0.078,0.28,0c0.079,0.079,0.079,0.205,0,0.284L5.448,5.143L5.448,5.143z M9.258,6.922h-8.63
		C0.475,6.937,0.355,7.063,0.355,7.22c0,0.166,0.134,0.3,0.299,0.3h3.891v0.599H3.847c-0.167,0-0.3,0.134-0.3,0.299
		c0,0.164,0.133,0.299,0.3,0.299H5.84c0.166,0,0.301-0.135,0.301-0.299c0-0.165-0.135-0.299-0.301-0.299H5.144V7.52H9.23
		c0.167,0,0.3-0.134,0.3-0.3C9.53,7.063,9.411,6.937,9.258,6.922L9.258,6.922z"/>
</g>
<g>
	<path fill-rule="evenodd" clip-rule="evenodd" fill="#FF650A" d="M0.406,1.287H8.98c0.167,0,0.302-0.134,0.302-0.299
		c0-0.166-0.135-0.3-0.302-0.3H0.406c-0.167,0-0.302,0.134-0.302,0.3C0.104,1.153,0.239,1.287,0.406,1.287L0.406,1.287z
		 M0.505,1.837v4.312h8.379V1.837H0.505L0.505,1.837z M5.2,4.895c-0.078,0.079-0.205,0.079-0.283,0L3.93,3.906L2.52,5.318
		c-0.079,0.076-0.205,0.076-0.281,0c-0.079-0.079-0.079-0.205,0-0.284l1.55-1.55c0.08-0.079,0.205-0.079,0.284,0L5.057,4.47
		l1.837-1.833c0.075-0.078,0.202-0.078,0.28,0c0.079,0.079,0.079,0.205,0,0.283L5.2,4.895L5.2,4.895z M9.01,6.672H0.38
		C0.225,6.687,0.104,6.815,0.104,6.971c0,0.166,0.135,0.3,0.302,0.3h3.888v0.597H3.598c-0.166,0-0.3,0.135-0.3,0.302
		c0,0.163,0.134,0.298,0.3,0.298h1.995c0.163,0,0.297-0.135,0.297-0.298c0-0.167-0.134-0.302-0.297-0.302H4.894V7.271H8.98
		c0.167,0,0.302-0.134,0.302-0.3C9.282,6.815,9.162,6.687,9.01,6.672L9.01,6.672z"/>
</g>
</svg>
