<?xml version="1.0" encoding="utf-8"?>
<!-- Generator: Adobe Illustrator 16.0.0, SVG Export Plug-In . SVG Version: 6.00 Build 0)  -->
<!DOCTYPE svg PUBLIC "-//W3C//DTD SVG 1.0//EN" "http://www.w3.org/TR/2001/REC-SVG-20010904/DTD/svg10.dtd">
<svg version="1.0" id="图层_1" xmlns="http://www.w3.org/2000/svg" xmlns:xlink="http://www.w3.org/1999/xlink" x="0px" y="0px"
	 width="9.639px" height="9.639px" viewBox="0 0 9.639 9.639" enable-background="new 0 0 9.639 9.639" xml:space="preserve">
<g>
	<path fill-rule="evenodd" clip-rule="evenodd" d="M8.847,9.383c-2.584,0-5.169,0-7.754,0c0-0.18,0-0.362,0-0.555
		c-0.201,0-0.38,0-0.557,0c0-2.215,0-4.429,0-6.642c0.183,0,0.366,0,0.562,0c0-0.202,0-0.374,0-0.545c0.376,0,0.737,0,1.112,0
		c0,0.371,0,0.728,0,1.082c0.559,0,1.101,0,1.659,0c0-0.367,0-0.725,0-1.083c0.744,0,1.471,0,2.214,0c0,0.369,0,0.727,0,1.085
		c0.559,0,1.101,0,1.658,0c0-0.368,0-0.727,0-1.085c0.377,0,0.737,0,1.111,0c0,0.185,0,0.356,0,0.546c0.193,0,0.372,0,0.551,0
		c0,2.213,0,4.427,0,6.642c-0.181,0-0.363,0-0.557,0C8.847,9.027,8.847,9.205,8.847,9.383L8.847,9.383z M8.286,3.305
		c-2.221,0-4.422,0-6.628,0c0,0.183,0,0.354,0,0.526c2.216,0,4.419,0,6.628,0C8.286,3.65,8.286,3.484,8.286,3.305L8.286,3.305z
		 M8.286,4.409c-2.217,0-4.42,0-6.63,0c0,0.182,0,0.353,0,0.531c2.213,0,4.419,0,6.63,0C8.286,4.759,8.286,4.591,8.286,4.409
		L8.286,4.409z M8.286,5.515c-2.221,0-4.426,0-6.628,0c0,0.186,0,0.358,0,0.529c2.215,0,4.419,0,6.628,0
		C8.286,5.865,8.286,5.695,8.286,5.515L8.286,5.515z M1.652,7.15c2.221,0,4.425,0,6.629,0c0-0.183,0-0.353,0-0.526
		c-2.216,0-4.421,0-6.629,0C1.652,6.804,1.652,6.971,1.652,7.15L1.652,7.15z M1.656,8.261c2.22,0,4.422,0,6.627,0
		c0-0.182,0-0.354,0-0.535c-2.214,0-4.416,0-6.627,0C1.656,7.909,1.656,8.082,1.656,8.261L1.656,8.261z"/>
	<path fill-rule="evenodd" clip-rule="evenodd" d="M3.318,0.516c0,0.55,0,1.099,0,1.656c-0.193,0-0.365,0-0.557,0
		c0-0.552,0-1.104,0-1.656C2.946,0.516,3.132,0.516,3.318,0.516L3.318,0.516z"/>
	<path fill-rule="evenodd" clip-rule="evenodd" d="M7.178,0.516c0,0.55,0,1.099,0,1.656c-0.181,0-0.352,0-0.556,0
		c0-0.552,0-1.104,0-1.656C6.808,0.516,6.993,0.516,7.178,0.516L7.178,0.516z"/>
	<path fill-rule="evenodd" clip-rule="evenodd" d="M8.847,8.828c0.193,0,0.374,0,0.557,0H8.847z"/>
</g>
<g>
	<path fill-rule="evenodd" clip-rule="evenodd" fill="#FF650A" d="M8.601,9.136c-2.584,0-5.171,0-7.755,0c0-0.181,0-0.362,0-0.555
		c-0.2,0-0.379,0-0.557,0c0-2.217,0-4.429,0-6.643c0.183,0,0.364,0,0.563,0c0-0.2,0-0.374,0-0.545c0.376,0,0.734,0,1.112,0
		c0,0.371,0,0.73,0,1.084c0.559,0,1.1,0,1.658,0c0-0.368,0-0.725,0-1.084c0.742,0,1.471,0,2.215,0c0,0.367,0,0.728,0,1.086
		c0.56,0,1.101,0,1.657,0c0-0.37,0-0.727,0-1.086c0.376,0,0.738,0,1.112,0c0,0.183,0,0.356,0,0.545c0.191,0,0.371,0,0.551,0
		c0,2.214,0,4.426,0,6.643c-0.183,0-0.366,0-0.557,0C8.601,8.781,8.601,8.958,8.601,9.136L8.601,9.136z M8.038,3.058
		c-2.219,0-4.421,0-6.628,0c0,0.182,0,0.353,0,0.526c2.217,0,4.422,0,6.628,0C8.038,3.404,8.038,3.237,8.038,3.058L8.038,3.058z
		 M8.038,4.16c-2.217,0-4.421,0-6.628,0c0,0.183,0,0.354,0,0.534c2.212,0,4.417,0,6.628,0C8.038,4.512,8.038,4.343,8.038,4.16
		L8.038,4.16z M8.038,5.268c-2.219,0-4.423,0-6.628,0c0,0.186,0,0.359,0,0.53c2.217,0,4.422,0,6.628,0
		C8.038,5.617,8.038,5.449,8.038,5.268L8.038,5.268z M1.407,6.904c2.22,0,4.425,0,6.625,0c0-0.183,0-0.354,0-0.527
		c-2.213,0-4.417,0-6.625,0C1.407,6.558,1.407,6.725,1.407,6.904L1.407,6.904z M1.41,8.014c2.219,0,4.422,0,6.626,0
		c0-0.182,0-0.354,0-0.536c-2.215,0-4.416,0-6.626,0C1.41,7.66,1.41,7.835,1.41,8.014L1.41,8.014z"/>
	<path fill-rule="evenodd" clip-rule="evenodd" fill="#FF650A" d="M3.07,0.27c0,0.548,0,1.098,0,1.654c-0.191,0-0.362,0-0.556,0
		c0-0.55,0-1.101,0-1.654C2.7,0.27,2.885,0.27,3.07,0.27L3.07,0.27z"/>
	<path fill-rule="evenodd" clip-rule="evenodd" fill="#FF650A" d="M6.932,0.27c0,0.548,0,1.098,0,1.654c-0.183,0-0.353,0-0.556,0
		c0-0.55,0-1.101,0-1.654C6.562,0.27,6.747,0.27,6.932,0.27L6.932,0.27z"/>
	<path fill-rule="evenodd" clip-rule="evenodd" fill="#FF650A" d="M8.601,8.581c0.19,0,0.374,0,0.557,0H8.601z"/>
</g>
</svg>
