<?xml version="1.0" encoding="utf-8"?>
<!-- Generator: Adobe Illustrator 16.0.0, SVG Export Plug-In . SVG Version: 6.00 Build 0)  -->
<!DOCTYPE svg PUBLIC "-//W3C//DTD SVG 1.0//EN" "http://www.w3.org/TR/2001/REC-SVG-20010904/DTD/svg10.dtd">
<svg version="1.0" id="图层_1" xmlns="http://www.w3.org/2000/svg" xmlns:xlink="http://www.w3.org/1999/xlink" x="0px" y="0px"
	 width="9.639px" height="9.638px" viewBox="0 0 9.639 9.638" enable-background="new 0 0 9.639 9.638" xml:space="preserve">
<path fill-rule="evenodd" clip-rule="evenodd" d="M8.971,0.313H1.008c-0.331,0-0.603,0.269-0.603,0.603v7.962
	c0,0.332,0.271,0.603,0.603,0.603h7.963c0.332,0,0.602-0.271,0.602-0.603V0.916C9.572,0.582,9.303,0.313,8.971,0.313z M2.633,3.188
	c0,0,1.638-1.166,1.676-1.191c0,0,0.083-0.057,0.165-0.038c0.094,0.019,0.094,0.07,0.094,0.07V2.98l1.594,0.006
	c1.315,0,1.335,1.505,1.335,1.505c0-0.479-1.293-0.655-1.293-0.655H4.567v0.894c0,0,0.007,0.076-0.094,0.094
	c-0.089,0.02-0.196-0.019-0.196-0.019L2.59,3.647c0,0-0.113-0.063-0.113-0.219C2.477,3.27,2.633,3.188,2.633,3.188z M7.351,6.608
	c0,0-1.637,1.165-1.675,1.189c-0.02,0.014-0.063,0.046-0.133,0.039c-0.106-0.013-0.125-0.07-0.125-0.07v-0.95L3.805,6.809
	c-1.316,0-1.334-1.511-1.334-1.511c0,0.479,1.298,0.655,1.298,0.655h1.644V5.064c0,0,0.006-0.057,0.126-0.088
	C5.632,4.952,5.7,4.995,5.7,4.995l1.694,1.152c0,0,0.113,0.063,0.113,0.222C7.508,6.525,7.351,6.608,7.351,6.608z"/>
<path fill-rule="evenodd" clip-rule="evenodd" fill="#FFFFFF" d="M8.711,0.089H0.748c-0.332,0-0.603,0.27-0.603,0.603v7.962
	c0,0.333,0.271,0.603,0.603,0.603h7.963c0.331,0,0.602-0.27,0.602-0.603V0.692C9.313,0.359,9.042,0.089,8.711,0.089z M2.373,2.964
	c0,0,1.638-1.166,1.676-1.191c0,0,0.083-0.056,0.165-0.038c0.093,0.019,0.093,0.069,0.093,0.069v0.951l1.595,0.006
	c1.315,0,1.335,1.505,1.335,1.505c0-0.479-1.293-0.655-1.293-0.655H4.307v0.895c0,0,0.007,0.076-0.093,0.095
	C4.125,4.621,4.018,4.583,4.018,4.583L2.33,3.424c0,0-0.113-0.063-0.113-0.22C2.217,3.046,2.373,2.964,2.373,2.964z M7.091,6.385
	c0,0-1.637,1.165-1.675,1.19C5.396,7.587,5.353,7.62,5.283,7.613c-0.106-0.013-0.125-0.07-0.125-0.07V6.592L3.545,6.586
	c-1.316,0-1.334-1.512-1.334-1.512c0,0.478,1.298,0.655,1.298,0.655h1.643V4.841c0,0,0.007-0.057,0.127-0.088
	C5.371,4.728,5.44,4.771,5.44,4.771l1.694,1.153c0,0,0.113,0.063,0.113,0.22C7.248,6.303,7.091,6.385,7.091,6.385z"/>
</svg>
