<?xml version="1.0" encoding="utf-8"?>
<!-- Generator: Adobe Illustrator 16.0.0, SVG Export Plug-In . SVG Version: 6.00 Build 0)  -->
<!DOCTYPE svg PUBLIC "-//W3C//DTD SVG 1.0//EN" "http://www.w3.org/TR/2001/REC-SVG-20010904/DTD/svg10.dtd">
<svg version="1.0" id="图层_1" xmlns="http://www.w3.org/2000/svg" xmlns:xlink="http://www.w3.org/1999/xlink" x="0px" y="0px"
	 width="9.639px" height="9.639px" viewBox="0 0 9.639 9.639" enable-background="new 0 0 9.639 9.639" xml:space="preserve">
<g>
	<path fill-rule="evenodd" clip-rule="evenodd" d="M5.519,2.472h0.715l0.195,0.514h0.256L5.992,1.29H5.75L5.095,2.985h0.239
		L5.519,2.472L5.519,2.472z M5.771,1.792c0.04-0.107,0.068-0.215,0.092-0.325C5.891,1.56,5.93,1.676,5.986,1.818l0.176,0.47H5.583
		L5.771,1.792L5.771,1.792z"/>
	<polygon fill-rule="evenodd" clip-rule="evenodd" points="7.912,2.786 7.076,2.786 7.076,1.288 6.853,1.288 6.853,2.985 
		7.912,2.985 7.912,2.786 	"/>
	<polygon fill-rule="evenodd" clip-rule="evenodd" points="9.451,2.786 8.409,2.786 8.409,2.208 9.347,2.208 9.347,2.009 
		8.409,2.009 8.409,1.488 9.409,1.488 9.409,1.288 8.185,1.288 8.185,2.985 9.451,2.985 9.451,2.786 	"/>
	<path fill-rule="evenodd" clip-rule="evenodd" d="M4.567,2.777C4.502,2.803,4.425,2.815,4.34,2.815
		c-0.098,0-0.183-0.017-0.26-0.051C4.003,2.731,3.945,2.685,3.91,2.632c-0.035-0.055-0.059-0.125-0.07-0.21L3.63,2.44
		c0.002,0.114,0.032,0.214,0.093,0.306c0.06,0.088,0.14,0.156,0.243,0.201c0.103,0.045,0.231,0.067,0.386,0.067
		c0.119,0,0.229-0.021,0.325-0.067c0.096-0.043,0.171-0.105,0.221-0.185c0.052-0.08,0.078-0.165,0.078-0.256
		c0-0.09-0.024-0.17-0.071-0.241c-0.049-0.069-0.12-0.127-0.219-0.173c-0.067-0.029-0.19-0.066-0.375-0.107
		C4.13,1.945,4.018,1.904,3.976,1.865c-0.046-0.04-0.067-0.09-0.067-0.151c0-0.07,0.032-0.128,0.094-0.179
		C4.063,1.485,4.162,1.46,4.298,1.46c0.127,0,0.228,0.028,0.294,0.083c0.068,0.053,0.105,0.134,0.116,0.24l0.217-0.016
		c-0.004-0.1-0.034-0.187-0.084-0.267C4.79,1.42,4.716,1.361,4.62,1.321C4.525,1.281,4.414,1.26,4.288,1.26
		c-0.114,0-0.22,0.02-0.31,0.058c-0.096,0.04-0.166,0.096-0.214,0.17C3.716,1.564,3.691,1.643,3.691,1.729
		c0,0.078,0.02,0.149,0.06,0.211c0.04,0.063,0.102,0.117,0.181,0.159c0.063,0.034,0.171,0.069,0.326,0.107
		C4.414,2.242,4.514,2.27,4.561,2.287c0.069,0.027,0.121,0.059,0.151,0.1c0.034,0.04,0.047,0.086,0.047,0.14
		c0,0.052-0.016,0.1-0.048,0.144C4.681,2.716,4.63,2.752,4.567,2.777L4.567,2.777z"/>
	<path fill-rule="evenodd" clip-rule="evenodd" d="M9.46,7.219v-1.13c0-0.207-0.167-0.376-0.376-0.376H1.557v1.883h7.527
		C9.293,7.596,9.46,7.427,9.46,7.219L9.46,7.219z"/>
	<path fill-rule="evenodd" clip-rule="evenodd" d="M4.944,4.96V3.831c0-0.208-0.17-0.375-0.377-0.375H1.557v1.881h3.011
		C4.774,5.337,4.944,5.168,4.944,4.96L4.944,4.96z"/>
	<path fill-rule="evenodd" clip-rule="evenodd" d="M2.684,2.701V1.572c0-0.208-0.166-0.375-0.376-0.375H1.557v1.882h0.754
		C2.518,3.078,2.684,2.911,2.684,2.701L2.684,2.701z"/>
	<polygon fill-rule="evenodd" clip-rule="evenodd" points="1.024,7.874 1.024,1.196 0.803,1.196 0.428,1.196 0.428,8.468 
		0.428,8.468 0.952,8.468 1.024,8.468 9.46,8.468 9.479,8.468 9.479,7.874 1.024,7.874 	"/>
</g>
<g>
	<path fill-rule="evenodd" clip-rule="evenodd" fill="#FFFFFF" d="M5.279,2.231h0.715l0.195,0.514h0.255L5.752,1.049H5.511
		L4.854,2.746h0.239L5.279,2.231L5.279,2.231z M5.53,1.552c0.042-0.107,0.07-0.216,0.093-0.325C5.65,1.32,5.69,1.437,5.747,1.578
		l0.175,0.47H5.345L5.53,1.552L5.53,1.552z"/>
	<polygon fill-rule="evenodd" clip-rule="evenodd" fill="#FFFFFF" points="7.672,2.546 6.836,2.546 6.836,1.048 6.61,1.048 
		6.61,2.746 7.672,2.746 7.672,2.546 	"/>
	<polygon fill-rule="evenodd" clip-rule="evenodd" fill="#FFFFFF" points="9.212,2.546 8.168,2.546 8.168,1.968 9.104,1.968 
		9.104,1.769 8.168,1.769 8.168,1.248 9.17,1.248 9.17,1.048 7.945,1.048 7.945,2.746 9.212,2.746 9.212,2.546 	"/>
	<path fill-rule="evenodd" clip-rule="evenodd" fill="#FFFFFF" d="M4.328,2.537C4.26,2.562,4.185,2.575,4.101,2.575
		c-0.099,0-0.184-0.017-0.26-0.051C3.763,2.49,3.707,2.445,3.669,2.392C3.636,2.337,3.609,2.267,3.6,2.183L3.392,2.201
		c0,0.114,0.03,0.214,0.092,0.305c0.06,0.089,0.138,0.157,0.242,0.202s0.231,0.067,0.386,0.067c0.118,0,0.229-0.021,0.326-0.067
		c0.096-0.044,0.169-0.106,0.22-0.185c0.051-0.081,0.079-0.165,0.079-0.256c0-0.09-0.025-0.17-0.071-0.24
		c-0.05-0.069-0.12-0.127-0.218-0.174C4.379,1.824,4.256,1.787,4.068,1.746c-0.18-0.041-0.292-0.082-0.334-0.121
		c-0.045-0.04-0.065-0.09-0.065-0.152c0-0.069,0.032-0.128,0.094-0.179c0.062-0.049,0.16-0.075,0.295-0.075
		c0.127,0,0.229,0.029,0.294,0.083c0.069,0.053,0.105,0.134,0.117,0.239l0.217-0.016c-0.005-0.1-0.034-0.188-0.084-0.268
		C4.551,1.18,4.475,1.121,4.379,1.082C4.286,1.041,4.174,1.02,4.05,1.02c-0.115,0-0.22,0.02-0.311,0.058
		c-0.096,0.04-0.166,0.096-0.214,0.17c-0.05,0.076-0.073,0.155-0.073,0.24c0,0.078,0.02,0.149,0.06,0.211
		c0.04,0.063,0.102,0.117,0.18,0.159c0.063,0.034,0.172,0.069,0.327,0.107C4.174,2.002,4.274,2.03,4.319,2.047
		c0.07,0.027,0.122,0.059,0.152,0.1c0.033,0.04,0.048,0.086,0.048,0.14c0,0.052-0.017,0.1-0.048,0.144
		C4.441,2.476,4.39,2.512,4.328,2.537L4.328,2.537z"/>
	<path fill-rule="evenodd" clip-rule="evenodd" fill="#FFFFFF" d="M9.221,6.977V5.849c0-0.208-0.169-0.376-0.378-0.376H1.316v1.882
		h7.526C9.052,7.355,9.221,7.186,9.221,6.977L9.221,6.977z"/>
	<path fill-rule="evenodd" clip-rule="evenodd" fill="#FFFFFF" d="M4.705,4.72V3.591c0-0.208-0.172-0.376-0.377-0.376H1.316v1.882
		h3.012C4.533,5.097,4.705,4.928,4.705,4.72L4.705,4.72z"/>
	<path fill-rule="evenodd" clip-rule="evenodd" fill="#FFFFFF" d="M2.444,2.461V1.332c0-0.208-0.166-0.375-0.377-0.375H1.316v1.882
		H2.07C2.278,2.838,2.444,2.671,2.444,2.461L2.444,2.461z"/>
	<polygon fill-rule="evenodd" clip-rule="evenodd" fill="#FFFFFF" points="0.784,7.633 0.784,0.957 0.563,0.957 0.188,0.957 
		0.188,8.228 0.188,8.228 0.711,8.228 0.784,8.228 9.221,8.228 9.24,8.228 9.24,7.633 0.784,7.633 	"/>
</g>
</svg>
