<?xml version="1.0" encoding="utf-8"?>
<!-- Generator: Adobe Illustrator 16.0.0, SVG Export Plug-In . SVG Version: 6.00 Build 0)  -->
<!DOCTYPE svg PUBLIC "-//W3C//DTD SVG 1.0//EN" "http://www.w3.org/TR/2001/REC-SVG-20010904/DTD/svg10.dtd">
<svg version="1.0" id="图层_1" xmlns="http://www.w3.org/2000/svg" xmlns:xlink="http://www.w3.org/1999/xlink" x="0px" y="0px"
	 width="9.639px" height="9.639px" viewBox="0 0 9.639 9.639" enable-background="new 0 0 9.639 9.639" xml:space="preserve">
<g>
	<path fill-rule="evenodd" clip-rule="evenodd" d="M9.565,2.056c0-0.917-0.743-1.66-1.66-1.66h-5.85c-0.917,0-1.66,0.743-1.66,1.66
		v5.85c0,0.916,0.743,1.659,1.66,1.659h5.85c0.917,0,1.66-0.743,1.66-1.659V2.056L9.565,2.056z M8.396,7.799
		c0,0.302-0.146,0.596-0.441,0.596H2.205c-0.298,0-0.636-0.294-0.636-0.596V1.943c0-0.303,0.338-0.376,0.636-0.376h5.751
		c0.295,0,0.441,0.073,0.441,0.376V7.799L8.396,7.799z"/>
	<polygon fill-rule="evenodd" clip-rule="evenodd" points="2.543,2.543 6.248,2.543 6.248,3.323 2.543,3.323 2.543,2.543 	"/>
	<polygon fill-rule="evenodd" clip-rule="evenodd" points="2.543,3.714 5.08,3.714 5.08,4.493 2.543,4.493 2.543,3.714 	"/>
	<polygon fill-rule="evenodd" clip-rule="evenodd" points="2.543,4.884 5.663,4.884 5.663,5.665 2.543,5.665 2.543,4.884 	"/>
	<polygon fill-rule="evenodd" clip-rule="evenodd" points="2.543,6.053 4.495,6.053 4.495,6.835 2.543,6.835 2.543,6.053 	"/>
</g>
<g>
	<path fill-rule="evenodd" clip-rule="evenodd" fill="#FF650A" d="M9.293,1.784c0-0.917-0.742-1.659-1.659-1.659h-5.85
		c-0.917,0-1.659,0.743-1.659,1.659v5.849c0,0.919,0.743,1.662,1.659,1.662h5.85c0.917,0,1.659-0.743,1.659-1.662V1.784L9.293,1.784
		z M8.126,7.528c0,0.3-0.146,0.597-0.443,0.597h-5.75c-0.298,0-0.637-0.297-0.637-0.597V1.671c0-0.303,0.338-0.377,0.637-0.377h5.75
		c0.296,0,0.443,0.074,0.443,0.377V7.528L8.126,7.528z"/>
	<polygon fill-rule="evenodd" clip-rule="evenodd" fill="#FF650A" points="2.272,2.272 5.976,2.272 5.976,3.051 2.272,3.051 
		2.272,2.272 	"/>
	<polygon fill-rule="evenodd" clip-rule="evenodd" fill="#FF650A" points="2.272,3.442 4.808,3.442 4.808,4.223 2.272,4.223 
		2.272,3.442 	"/>
	<polygon fill-rule="evenodd" clip-rule="evenodd" fill="#FF650A" points="2.272,4.611 5.391,4.611 5.391,5.392 2.272,5.392 
		2.272,4.611 	"/>
	<polygon fill-rule="evenodd" clip-rule="evenodd" fill="#FF650A" points="2.272,5.781 4.223,5.781 4.223,6.562 2.272,6.562 
		2.272,5.781 	"/>
</g>
</svg>
