<?xml version="1.0" encoding="utf-8"?>
<!-- Generator: Adobe Illustrator 16.0.0, SVG Export Plug-In . SVG Version: 6.00 Build 0)  -->
<!DOCTYPE svg PUBLIC "-//W3C//DTD SVG 1.0//EN" "http://www.w3.org/TR/2001/REC-SVG-20010904/DTD/svg10.dtd">
<svg version="1.0" id="图层_1" xmlns="http://www.w3.org/2000/svg" xmlns:xlink="http://www.w3.org/1999/xlink" x="0px" y="0px"
	 width="9.639px" height="9.639px" viewBox="0 0 9.639 9.639" enable-background="new 0 0 9.639 9.639" xml:space="preserve">
<g>
	<path fill-rule="evenodd" clip-rule="evenodd" d="M8.374,0.689H1.577c-0.64,0-1.157,0.544-1.157,1.217V7.06
		c0,0.671,0.518,1.219,1.157,1.219h6.797c0.638,0,1.155-0.548,1.155-1.219V1.906C9.529,1.234,9.012,0.689,8.374,0.689L8.374,0.689
		L8.374,0.689z M8.819,7.06c0,0.259-0.2,0.47-0.445,0.47H1.577c-0.248,0-0.446-0.211-0.446-0.47V1.906
		c0-0.259,0.198-0.468,0.446-0.468h6.797c0.245,0,0.445,0.209,0.445,0.468V7.06L8.819,7.06L8.819,7.06z"/>
	<path fill-rule="evenodd" clip-rule="evenodd" d="M7.753,2.11c-0.473,0-0.859,0.382-0.859,0.853c0,0.15,0.044,0.289,0.112,0.413
		L6.298,4.402C6.253,4.396,6.207,4.389,6.161,4.389c-0.175,0-0.336,0.052-0.473,0.142L4.657,3.836
		C4.661,3.8,4.669,3.763,4.669,3.726c0-0.472-0.387-0.854-0.859-0.854c-0.475,0-0.859,0.382-0.859,0.854
		c0,0.145,0.039,0.278,0.104,0.398L2.344,5.167C2.301,5.16,2.26,5.152,2.216,5.152c-0.475,0-0.859,0.382-0.859,0.853
		c0,0.469,0.385,0.852,0.859,0.852c0.474,0,0.859-0.382,0.859-0.852c0-0.166-0.048-0.321-0.133-0.455l0.676-0.993
		C3.68,4.569,3.743,4.577,3.81,4.577c0.174,0,0.336-0.051,0.472-0.142L5.313,5.13C5.308,5.167,5.301,5.203,5.301,5.241
		c0,0.47,0.387,0.854,0.86,0.854S7.02,5.711,7.02,5.241c0-0.165-0.049-0.316-0.131-0.447l0.688-0.999
		c0.058,0.013,0.117,0.021,0.177,0.021c0.474,0,0.859-0.383,0.859-0.854C8.612,2.492,8.227,2.11,7.753,2.11L7.753,2.11L7.753,2.11z
		 M2.216,6.291c-0.16,0-0.289-0.128-0.289-0.287c0-0.159,0.129-0.289,0.289-0.289c0.049,0,0.095,0.012,0.137,0.034
		C2.448,5.8,2.506,5.897,2.506,6.004C2.506,6.163,2.376,6.291,2.216,6.291L2.216,6.291L2.216,6.291z M3.81,4.014
		c-0.161,0-0.291-0.13-0.291-0.288c0-0.16,0.13-0.289,0.291-0.289c0.16,0,0.29,0.129,0.29,0.289C4.1,3.884,3.97,4.014,3.81,4.014
		L3.81,4.014L3.81,4.014z M6.161,5.53C6,5.53,5.87,5.401,5.87,5.241c0-0.158,0.13-0.288,0.291-0.288c0.159,0,0.29,0.13,0.29,0.288
		C6.451,5.401,6.32,5.53,6.161,5.53L6.161,5.53L6.161,5.53z M7.753,3.251c-0.159,0-0.289-0.129-0.289-0.289
		c0-0.159,0.13-0.289,0.289-0.289c0.16,0,0.29,0.13,0.29,0.289C8.043,3.122,7.913,3.251,7.753,3.251L7.753,3.251L7.753,3.251z"/>
</g>
<g>
	<path fill-rule="evenodd" clip-rule="evenodd" fill="#FFFFFF" d="M8.191,0.506H1.393c-0.638,0-1.155,0.544-1.155,1.217v5.153
		c0,0.673,0.518,1.221,1.155,1.221h6.799c0.638,0,1.155-0.548,1.155-1.221V1.723C9.347,1.051,8.829,0.506,8.191,0.506L8.191,0.506
		L8.191,0.506z M8.636,6.876c0,0.26-0.199,0.471-0.444,0.471H1.393c-0.247,0-0.445-0.21-0.445-0.471V1.723
		c0-0.259,0.198-0.468,0.445-0.468h6.799c0.245,0,0.444,0.209,0.444,0.468V6.876L8.636,6.876L8.636,6.876z"/>
	<path fill-rule="evenodd" clip-rule="evenodd" fill="#FFFFFF" d="M7.57,1.927c-0.475,0-0.858,0.382-0.858,0.853
		c0,0.15,0.043,0.289,0.111,0.412L6.115,4.22c-0.046-0.006-0.09-0.016-0.138-0.016c-0.175,0-0.335,0.054-0.473,0.142l-1.03-0.693
		c0.004-0.036,0.01-0.073,0.01-0.11c0-0.472-0.386-0.854-0.858-0.854c-0.475,0-0.859,0.382-0.859,0.854
		c0,0.145,0.039,0.277,0.106,0.398L2.161,4.984C2.119,4.978,2.075,4.97,2.032,4.97c-0.475,0-0.858,0.382-0.858,0.853
		c0,0.468,0.384,0.85,0.858,0.85s0.859-0.382,0.859-0.85c0-0.166-0.048-0.323-0.133-0.456l0.677-0.995
		c0.062,0.013,0.124,0.022,0.19,0.022c0.174,0,0.338-0.052,0.473-0.142L5.13,4.948C5.125,4.984,5.118,5.021,5.118,5.057
		c0,0.471,0.387,0.855,0.859,0.855c0.475,0,0.859-0.384,0.859-0.855c0-0.163-0.05-0.315-0.131-0.446l0.687-0.998
		C7.451,3.625,7.511,3.633,7.57,3.633c0.473,0,0.859-0.384,0.859-0.854C8.43,2.309,8.043,1.927,7.57,1.927L7.57,1.927L7.57,1.927z
		 M2.032,6.107c-0.16,0-0.29-0.129-0.29-0.285c0-0.159,0.13-0.291,0.29-0.291c0.05,0,0.095,0.013,0.138,0.035
		c0.095,0.052,0.153,0.148,0.153,0.256C2.323,5.979,2.194,6.107,2.032,6.107L2.032,6.107L2.032,6.107z M3.626,3.831
		c-0.161,0-0.29-0.131-0.29-0.288c0-0.16,0.129-0.289,0.29-0.289s0.29,0.129,0.29,0.289C3.916,3.7,3.787,3.831,3.626,3.831
		L3.626,3.831L3.626,3.831z M5.978,5.348c-0.161,0-0.29-0.129-0.29-0.291c0-0.156,0.129-0.288,0.29-0.288
		c0.158,0,0.29,0.131,0.29,0.288C6.268,5.218,6.136,5.348,5.978,5.348L5.978,5.348L5.978,5.348z M7.57,3.068
		c-0.16,0-0.289-0.13-0.289-0.289c0-0.159,0.129-0.289,0.289-0.289s0.291,0.13,0.291,0.289C7.861,2.938,7.73,3.068,7.57,3.068
		L7.57,3.068L7.57,3.068z"/>
</g>
</svg>
