<?xml version="1.0" encoding="utf-8"?>
<!-- Generator: Adobe Illustrator 16.0.0, SVG Export Plug-In . SVG Version: 6.00 Build 0)  -->
<!DOCTYPE svg PUBLIC "-//W3C//DTD SVG 1.0//EN" "http://www.w3.org/TR/2001/REC-SVG-20010904/DTD/svg10.dtd">
<svg version="1.0" id="图层_1" xmlns="http://www.w3.org/2000/svg" xmlns:xlink="http://www.w3.org/1999/xlink" x="0px" y="0px"
	 width="9.639px" height="9.639px" viewBox="0 0 9.639 9.639" enable-background="new 0 0 9.639 9.639" xml:space="preserve">
<g>
	<path fill-rule="evenodd" clip-rule="evenodd" d="M5.351,0.424v3.677l2.711-2.438C7.342,0.975,6.399,0.521,5.351,0.424L5.351,0.424
		z"/>
	<path fill-rule="evenodd" clip-rule="evenodd" d="M9.46,4.934c0-1.049-0.358-2.01-0.956-2.776L5.493,4.865l3.158,2.648
		C9.159,6.782,9.46,5.893,9.46,4.934L9.46,4.934z"/>
	<path fill-rule="evenodd" clip-rule="evenodd" d="M4.688,5.054l0.024-0.028H4.688V0.416C2.299,0.541,0.399,2.512,0.399,4.934
		c0,2.502,2.027,4.531,4.529,4.531c1.307,0,2.478-0.555,3.304-1.437L4.688,5.054L4.688,5.054z"/>
</g>
<g>
	<path fill-rule="evenodd" clip-rule="evenodd" fill="#FF650A" d="M5.129,0.204V3.88l2.713-2.438C7.123,0.754,6.179,0.3,5.129,0.204
		L5.129,0.204z"/>
	<path fill-rule="evenodd" clip-rule="evenodd" fill="#FF650A" d="M9.24,4.713c0-1.047-0.36-2.01-0.956-2.777l-3.012,2.71
		l3.158,2.647C8.938,6.562,9.24,5.672,9.24,4.713L9.24,4.713z"/>
	<path fill-rule="evenodd" clip-rule="evenodd" fill="#FF650A" d="M4.467,4.833L4.49,4.806H4.467v-4.61
		C2.079,0.319,0.179,2.293,0.179,4.713c0,2.502,2.026,4.531,4.53,4.531c1.306,0,2.476-0.555,3.304-1.438L4.467,4.833L4.467,4.833z"
		/>
</g>
</svg>
