<?xml version="1.0" encoding="utf-8"?>
<!-- Generator: Adobe Illustrator 16.0.0, SVG Export Plug-In . SVG Version: 6.00 Build 0)  -->
<!DOCTYPE svg PUBLIC "-//W3C//DTD SVG 1.0//EN" "http://www.w3.org/TR/2001/REC-SVG-20010904/DTD/svg10.dtd">
<svg version="1.0" id="图层_1" xmlns="http://www.w3.org/2000/svg" xmlns:xlink="http://www.w3.org/1999/xlink" x="0px" y="0px"
	 width="9.639px" height="9.639px" viewBox="0 0 9.639 9.639" enable-background="new 0 0 9.639 9.639" xml:space="preserve">
<g>
	<path fill-rule="evenodd" clip-rule="evenodd" d="M3.844,3.745H1.932c-0.092,0-0.169-0.076-0.169-0.169S1.84,3.407,1.932,3.407
		h1.912c0.093,0,0.17,0.076,0.17,0.169C4.013,3.67,3.936,3.745,3.844,3.745L3.844,3.745 M3.844,4.503H1.932
		c-0.092,0-0.169-0.075-0.169-0.169c0-0.095,0.077-0.171,0.169-0.171h1.912c0.093,0,0.17,0.076,0.17,0.171
		C4.013,4.428,3.936,4.503,3.844,4.503L3.844,4.503 M3.768,1.566H1.796c-0.374,0-0.678,0.303-0.678,0.674v3.659H2.79
		c0.687,0,1.246,0.56,1.246,1.247v1.608h2.306c0.372,0,0.675-0.303,0.675-0.677V6.227c0-0.159,0.129-0.287,0.287-0.287
		c0.16,0,0.287,0.128,0.287,0.287v1.852c0,0.691-0.561,1.251-1.249,1.251H3.673c-0.078,0-0.149-0.031-0.203-0.083L0.629,6.417
		C0.574,6.364,0.544,6.289,0.544,6.213V2.24c0-0.688,0.561-1.25,1.252-1.25h1.972c0.16,0,0.29,0.128,0.29,0.289
		C4.058,1.437,3.928,1.566,3.768,1.566L3.768,1.566L3.768,1.566 M3.468,8.433V7.146c0-0.376-0.307-0.681-0.678-0.681H1.494
		L3.468,8.433L3.468,8.433 M3.468,8.433"/>
	<path fill-rule="evenodd" clip-rule="evenodd" d="M9.313,4.955L8.231,3.873c0.258-0.334,0.415-0.756,0.415-1.211
		c0-1.088-0.883-1.973-1.973-1.973c-1.092,0-1.975,0.885-1.975,1.973c0,1.089,0.883,1.974,1.975,1.974
		c0.455,0,0.874-0.155,1.209-0.415l1.082,1.08c0.049,0.05,0.11,0.074,0.175,0.074c0.062,0,0.125-0.024,0.173-0.074
		C9.411,5.206,9.411,5.049,9.313,4.955L9.313,4.955 M5.192,2.662c0-0.816,0.665-1.479,1.481-1.479c0.814,0,1.479,0.662,1.479,1.479
		c0,0.817-0.665,1.479-1.479,1.479C5.857,4.142,5.192,3.479,5.192,2.662L5.192,2.662 M5.192,2.662"/>
</g>
<g>
	<path fill-rule="evenodd" clip-rule="evenodd" fill="#FF650A" d="M3.584,3.487H1.673c-0.091,0-0.171-0.076-0.171-0.17
		c0-0.091,0.08-0.171,0.171-0.171h1.911c0.094,0,0.171,0.08,0.171,0.171C3.755,3.411,3.675,3.487,3.584,3.487L3.584,3.487
		 M3.584,4.244H1.673c-0.091,0-0.171-0.076-0.171-0.171c0-0.094,0.08-0.17,0.171-0.17h1.911c0.094,0,0.171,0.076,0.171,0.17
		C3.755,4.168,3.675,4.244,3.584,4.244L3.584,4.244 M3.509,1.309H1.536c-0.374,0-0.678,0.301-0.678,0.672v3.658H2.53
		c0.687,0,1.245,0.562,1.245,1.249v1.607h2.307c0.374,0,0.674-0.302,0.674-0.675V5.967c0-0.159,0.132-0.285,0.289-0.285
		c0.158,0,0.286,0.126,0.286,0.285V7.82c0,0.689-0.56,1.248-1.249,1.248H3.414c-0.079,0-0.149-0.029-0.204-0.081l-2.841-2.83
		C0.314,6.104,0.284,6.031,0.284,5.954V1.98c0-0.688,0.561-1.251,1.252-1.251h1.973c0.16,0,0.288,0.129,0.288,0.29
		C3.797,1.178,3.669,1.309,3.509,1.309L3.509,1.309L3.509,1.309 M3.207,8.172V6.888c0-0.377-0.303-0.681-0.677-0.681H1.234
		L3.207,8.172L3.207,8.172 M3.207,8.172"/>
	<path fill-rule="evenodd" clip-rule="evenodd" fill="#FF650A" d="M9.054,4.696L7.972,3.615C8.231,3.28,8.39,2.858,8.39,2.401
		c0-1.087-0.886-1.971-1.977-1.971S4.441,1.314,4.441,2.401c0,1.093,0.881,1.977,1.972,1.977c0.457,0,0.876-0.156,1.21-0.417
		l1.081,1.083C8.753,5.091,8.817,5.116,8.88,5.116s0.126-0.025,0.174-0.072C9.152,4.945,9.152,4.791,9.054,4.696L9.054,4.696
		 M4.934,2.401c0-0.813,0.666-1.477,1.479-1.477c0.818,0,1.48,0.664,1.48,1.477c0,0.818-0.662,1.48-1.48,1.48
		C5.6,3.882,4.934,3.22,4.934,2.401L4.934,2.401 M4.934,2.401"/>
</g>
</svg>
