<?xml version="1.0" encoding="utf-8"?>
<!-- Generator: Adobe Illustrator 16.0.0, SVG Export Plug-In . SVG Version: 6.00 Build 0)  -->
<!DOCTYPE svg PUBLIC "-//W3C//DTD SVG 1.0//EN" "http://www.w3.org/TR/2001/REC-SVG-20010904/DTD/svg10.dtd">
<svg version="1.0" id="图层_1" xmlns="http://www.w3.org/2000/svg" xmlns:xlink="http://www.w3.org/1999/xlink" x="0px" y="0px"
	 width="9.639px" height="9.639px" viewBox="0 0 9.639 9.639" enable-background="new 0 0 9.639 9.639" xml:space="preserve">
<g>
	<polygon fill-rule="evenodd" clip-rule="evenodd" points="1.853,4.51 6.573,4.51 6.573,5.214 1.853,5.214 1.853,4.51 	"/>
	<path fill-rule="evenodd" clip-rule="evenodd" d="M5.304,8.448L5.275,8.395H1.213V1.666h6.001v3.719l0.091,0.006
		c0.166,0.014,0.327,0.045,0.479,0.095l0.131,0.041V1.398c0-0.241-0.194-0.438-0.435-0.438H0.947c-0.241,0-0.436,0.196-0.436,0.438
		v7.265c0,0.24,0.194,0.437,0.436,0.437h4.859L5.647,8.933C5.509,8.788,5.394,8.625,5.304,8.448L5.304,8.448z"/>
	<polygon fill-rule="evenodd" clip-rule="evenodd" points="1.853,2.65 6.573,2.65 6.573,3.355 1.853,3.355 1.853,2.65 	"/>
	<path fill-rule="evenodd" clip-rule="evenodd" d="M1.853,7.072h3.253l0.021-0.077c0.037-0.17,0.098-0.332,0.178-0.481l0.073-0.147
		H1.853V7.072L1.853,7.072z"/>
	<path fill-rule="evenodd" clip-rule="evenodd" d="M8.744,8.257c0.115-0.241,0.177-0.509,0.177-0.777
		c0-0.986-0.798-1.787-1.775-1.787c-0.979,0-1.773,0.801-1.773,1.787c0,0.988,0.795,1.79,1.773,1.79c0.435,0,0.846-0.159,1.17-0.446
		l0.608,0.611L9.42,8.938L8.744,8.257L8.744,8.257z M7.146,8.564c-0.593,0-1.075-0.485-1.075-1.085c0-0.597,0.482-1.084,1.075-1.084
		c0.592,0,1.074,0.487,1.074,1.084C8.22,8.079,7.737,8.564,7.146,8.564L7.146,8.564z"/>
</g>
<g>
	<polygon fill-rule="evenodd" clip-rule="evenodd" fill="#FFFFFF" points="1.616,4.273 6.337,4.273 6.337,4.978 1.616,4.978 
		1.616,4.273 	"/>
	<path fill-rule="evenodd" clip-rule="evenodd" fill="#FFFFFF" d="M5.065,8.212L5.037,8.156H0.977V1.428h5.999v3.72l0.093,0.006
		C7.235,5.166,7.396,5.2,7.546,5.247l0.131,0.042V1.161c0-0.242-0.194-0.437-0.434-0.437H0.709c-0.239,0-0.434,0.194-0.434,0.437
		v7.266c0,0.238,0.194,0.437,0.434,0.437h4.859L5.409,8.696C5.271,8.551,5.157,8.388,5.065,8.212L5.065,8.212z"/>
	<polygon fill-rule="evenodd" clip-rule="evenodd" fill="#FFFFFF" points="1.616,2.412 6.337,2.412 6.337,3.119 1.616,3.119 
		1.616,2.412 	"/>
	<path fill-rule="evenodd" clip-rule="evenodd" fill="#FFFFFF" d="M1.616,6.835h3.252l0.02-0.077
		c0.039-0.17,0.099-0.331,0.178-0.481L5.14,6.13H1.616V6.835L1.616,6.835z"/>
	<path fill-rule="evenodd" clip-rule="evenodd" fill="#FFFFFF" d="M8.506,8.021c0.117-0.243,0.178-0.511,0.178-0.78
		c0-0.984-0.798-1.785-1.774-1.785c-0.979,0-1.774,0.801-1.774,1.785c0,0.988,0.795,1.792,1.774,1.792
		c0.435,0,0.846-0.159,1.168-0.448l0.61,0.611l0.494-0.497L8.506,8.021L8.506,8.021z M6.909,8.326c-0.593,0-1.077-0.484-1.077-1.085
		c0-0.595,0.484-1.081,1.077-1.081c0.59,0,1.074,0.486,1.074,1.081C7.983,7.842,7.499,8.326,6.909,8.326L6.909,8.326z"/>
</g>
</svg>
