<?xml version="1.0" encoding="utf-8"?>
<!-- Generator: Adobe Illustrator 16.0.0, SVG Export Plug-In . SVG Version: 6.00 Build 0)  -->
<!DOCTYPE svg PUBLIC "-//W3C//DTD SVG 1.0//EN" "http://www.w3.org/TR/2001/REC-SVG-20010904/DTD/svg10.dtd">
<svg version="1.0" id="图层_1" xmlns="http://www.w3.org/2000/svg" xmlns:xlink="http://www.w3.org/1999/xlink" x="0px" y="0px"
	 width="9.639px" height="9.639px" viewBox="0 0 9.639 9.639" enable-background="new 0 0 9.639 9.639" xml:space="preserve">
<g>
	<polygon fill-rule="evenodd" clip-rule="evenodd" points="0.453,8.056 9.339,8.056 9.339,8.711 0.453,8.711 0.453,8.056 	"/>
	<polygon fill-rule="evenodd" clip-rule="evenodd" points="8.073,4.564 6.155,2.656 3.311,6.19 1.716,4.883 0.453,6.155 0.45,6.796 
		1.72,5.501 3.342,6.773 6.161,3.293 8.073,5.195 9.339,4.249 9.339,3.655 8.073,4.564 	"/>
	<polygon fill-rule="evenodd" clip-rule="evenodd" points="1.72,5.812 0.769,6.787 0.769,7.743 2.358,7.743 2.358,6.326 1.72,5.812 
			"/>
	<polygon fill-rule="evenodd" clip-rule="evenodd" points="3.333,7.112 2.99,6.836 2.99,7.743 4.579,7.743 4.579,5.559 3.333,7.112 
			"/>
	<polygon fill-rule="evenodd" clip-rule="evenodd" points="6.161,3.587 5.211,4.77 5.211,7.743 6.798,7.743 6.798,4.236 
		6.161,3.587 	"/>
	<polygon fill-rule="evenodd" clip-rule="evenodd" points="8.073,5.532 7.432,4.881 7.432,7.743 9.02,7.743 9.02,4.813 8.073,5.532 
			"/>
	<polygon fill-rule="evenodd" clip-rule="evenodd" points="6.798,2.979 6.798,0.445 5.211,0.445 5.211,3.496 6.155,2.328 
		6.798,2.979 	"/>
	<polygon fill-rule="evenodd" clip-rule="evenodd" points="2.358,5.088 2.358,2.662 0.769,2.662 0.769,5.518 1.716,4.571 
		2.358,5.088 	"/>
	<polygon fill-rule="evenodd" clip-rule="evenodd" points="4.579,4.28 4.579,3.937 2.99,3.937 2.99,5.597 3.311,5.854 4.579,4.28 	
		"/>
	<polygon fill-rule="evenodd" clip-rule="evenodd" points="9.02,3.58 9.02,2.025 7.432,2.025 7.432,3.623 8.073,4.272 9.02,3.58 	
		"/>
</g>
<g>
	<polygon fill-rule="evenodd" clip-rule="evenodd" fill="#FFFFFF" points="0.248,7.849 9.133,7.849 9.133,8.506 0.248,8.506 
		0.248,7.849 	"/>
	<polygon fill-rule="evenodd" clip-rule="evenodd" fill="#FFFFFF" points="7.867,4.358 5.95,2.45 3.104,5.985 1.511,4.677 
		0.248,5.949 0.245,6.589 1.513,5.295 3.136,6.567 5.955,3.088 7.867,4.99 9.133,4.044 9.133,3.45 7.867,4.358 	"/>
	<polygon fill-rule="evenodd" clip-rule="evenodd" fill="#FFFFFF" points="1.513,5.606 0.564,6.581 0.564,7.537 2.152,7.537 
		2.152,6.12 1.513,5.606 	"/>
	<polygon fill-rule="evenodd" clip-rule="evenodd" fill="#FFFFFF" points="3.128,6.904 2.785,6.629 2.785,7.537 4.374,7.537 
		4.374,5.353 3.128,6.904 	"/>
	<polygon fill-rule="evenodd" clip-rule="evenodd" fill="#FFFFFF" points="5.955,3.38 5.007,4.563 5.007,7.537 6.593,7.537 
		6.593,4.03 5.955,3.38 	"/>
	<polygon fill-rule="evenodd" clip-rule="evenodd" fill="#FFFFFF" points="7.867,5.326 7.225,4.675 7.225,7.537 8.814,7.537 
		8.814,4.606 7.867,5.326 	"/>
	<polygon fill-rule="evenodd" clip-rule="evenodd" fill="#FFFFFF" points="6.593,2.773 6.593,0.239 5.007,0.239 5.007,3.291 
		5.95,2.122 6.593,2.773 	"/>
	<polygon fill-rule="evenodd" clip-rule="evenodd" fill="#FFFFFF" points="2.152,4.882 2.152,2.455 0.564,2.455 0.564,5.312 
		1.511,4.365 2.152,4.882 	"/>
	<polygon fill-rule="evenodd" clip-rule="evenodd" fill="#FFFFFF" points="4.374,4.075 4.374,3.73 2.785,3.73 2.785,5.391 
		3.104,5.647 4.374,4.075 	"/>
	<polygon fill-rule="evenodd" clip-rule="evenodd" fill="#FFFFFF" points="8.814,3.373 8.814,1.817 7.225,1.817 7.225,3.417 
		7.867,4.066 8.814,3.373 	"/>
</g>
</svg>
