<?xml version="1.0" encoding="utf-8"?>
<!-- Generator: Adobe Illustrator 16.0.0, SVG Export Plug-In . SVG Version: 6.00 Build 0)  -->
<!DOCTYPE svg PUBLIC "-//W3C//DTD SVG 1.0//EN" "http://www.w3.org/TR/2001/REC-SVG-20010904/DTD/svg10.dtd">
<svg version="1.0" id="图层_1" xmlns="http://www.w3.org/2000/svg" xmlns:xlink="http://www.w3.org/1999/xlink" x="0px" y="0px"
	 width="9.639px" height="9.639px" viewBox="0 0 9.639 9.639" enable-background="new 0 0 9.639 9.639" xml:space="preserve">
<g>
	<path fill-rule="evenodd" clip-rule="evenodd" d="M0.368,0.982v7.459h9.119V0.982H0.368L0.368,0.982L0.368,0.982z M9.071,8.028
		H0.784V1.396h8.288V8.028L9.071,8.028L9.071,8.028z"/>
	<polygon fill-rule="evenodd" clip-rule="evenodd" points="1.198,1.812 4.513,1.812 4.513,7.613 1.198,7.613 1.198,1.812 	"/>
	<polygon fill-rule="evenodd" clip-rule="evenodd" points="4.928,1.812 8.658,1.812 8.658,3.468 4.928,3.468 4.928,1.812 	"/>
	<polygon fill-rule="evenodd" clip-rule="evenodd" points="4.928,3.883 8.658,3.883 8.658,5.541 4.928,5.541 4.928,3.883 	"/>
	<polygon fill-rule="evenodd" clip-rule="evenodd" points="4.928,5.956 8.658,5.956 8.658,7.613 4.928,7.613 4.928,5.956 	"/>
</g>
<g>
	<path fill-rule="evenodd" clip-rule="evenodd" fill="#FFFFFF" d="M0.152,0.768v7.459h9.121V0.768H0.152L0.152,0.768L0.152,0.768z
		 M8.856,7.813H0.567V1.181h8.289V7.813L8.856,7.813L8.856,7.813z"/>
	<polygon fill-rule="evenodd" clip-rule="evenodd" fill="#FFFFFF" points="0.982,1.596 4.297,1.596 4.297,7.397 0.982,7.397 
		0.982,1.596 	"/>
	<polygon fill-rule="evenodd" clip-rule="evenodd" fill="#FFFFFF" points="4.712,1.596 8.441,1.596 8.441,3.252 4.712,3.252 
		4.712,1.596 	"/>
	<polygon fill-rule="evenodd" clip-rule="evenodd" fill="#FFFFFF" points="4.712,3.667 8.441,3.667 8.441,5.325 4.712,5.325 
		4.712,3.667 	"/>
	<polygon fill-rule="evenodd" clip-rule="evenodd" fill="#FFFFFF" points="4.712,5.738 8.441,5.738 8.441,7.397 4.712,7.397 
		4.712,5.738 	"/>
</g>
</svg>
