<?xml version="1.0" encoding="utf-8"?>
<!-- Generator: Adobe Illustrator 16.0.0, SVG Export Plug-In . SVG Version: 6.00 Build 0)  -->
<!DOCTYPE svg PUBLIC "-//W3C//DTD SVG 1.0//EN" "http://www.w3.org/TR/2001/REC-SVG-20010904/DTD/svg10.dtd">
<svg version="1.0" id="图层_1" xmlns="http://www.w3.org/2000/svg" xmlns:xlink="http://www.w3.org/1999/xlink" x="0px" y="0px"
	 width="9.639px" height="9.639px" viewBox="0 0 9.639 9.639" enable-background="new 0 0 9.639 9.639" xml:space="preserve">
<g>
	<path fill-rule="evenodd" clip-rule="evenodd" d="M6.359,4.744h0.878l1.778-1.53C8.938,3.032,8.851,2.857,8.751,2.688L6.396,4.713
		L6.359,4.744L6.359,4.744z M5.087,0.469v0.72L5.81,0.563C5.575,0.517,5.334,0.481,5.087,0.469L5.087,0.469z M8.808,4.744
		l0.514-0.441C9.29,4.089,9.239,3.878,9.179,3.674l-1.246,1.07H8.808L8.808,4.744L8.808,4.744z M7.339,1.201L5.087,3.137v0.757
		l2.719-2.342C7.656,1.425,7.501,1.309,7.339,1.201L7.339,1.201z M6.34,0.707L5.087,1.785v0.757l1.834-1.581
		C6.735,0.864,6.542,0.778,6.34,0.707L6.34,0.707z M8.5,2.305C8.387,2.153,8.267,2.008,8.136,1.869L5.087,4.49v0.254h0.58L8.5,2.305
		L8.5,2.305z M4.662,0.469c-2.386,0.11-4.287,2.074-4.287,4.489c0,1.045,0.358,2.002,0.956,2.766l3.331-2.864V0.469L4.662,0.469z
		 M4.953,5.17L1.609,8.045c0.818,0.866,1.978,1.412,3.266,1.412c2.413,0,4.377-1.902,4.488-4.287H4.953L4.953,5.17z"/>
</g>
<g>
	<path fill-rule="evenodd" clip-rule="evenodd" fill="#FF650A" d="M6.144,4.528h0.879L8.8,2.998
		C8.721,2.817,8.634,2.642,8.536,2.471L6.179,4.495L6.144,4.528L6.144,4.528z M4.871,0.252v0.722l0.722-0.625
		C5.358,0.301,5.118,0.265,4.871,0.252L4.871,0.252z M8.591,4.528l0.514-0.442c-0.031-0.213-0.082-0.423-0.143-0.63L7.715,4.528
		H8.591L8.591,4.528L8.591,4.528z M7.124,0.986L4.871,2.92v0.758l2.717-2.342C7.441,1.21,7.283,1.093,7.124,0.986L7.124,0.986z
		 M6.123,0.49L4.871,1.569v0.757l1.834-1.582C6.52,0.647,6.327,0.562,6.123,0.49L6.123,0.49z M8.284,2.088
		C8.171,1.936,8.051,1.791,7.918,1.654L4.871,4.275v0.253h0.578L8.284,2.088L8.284,2.088z M4.444,0.252
		C2.061,0.363,0.158,2.326,0.158,4.741c0,1.044,0.358,2.004,0.958,2.766l3.328-2.864V0.252L4.444,0.252z M4.737,4.952L1.393,7.828
		C2.212,8.696,3.37,9.241,4.657,9.241c2.413,0,4.379-1.902,4.49-4.289H4.737L4.737,4.952z"/>
</g>
</svg>
