<?xml version="1.0" encoding="utf-8"?>
<!-- Generator: Adobe Illustrator 16.0.0, SVG Export Plug-In . SVG Version: 6.00 Build 0)  -->
<!DOCTYPE svg PUBLIC "-//W3C//DTD SVG 1.0//EN" "http://www.w3.org/TR/2001/REC-SVG-20010904/DTD/svg10.dtd">
<svg version="1.0" id="图层_1" xmlns="http://www.w3.org/2000/svg" xmlns:xlink="http://www.w3.org/1999/xlink" x="0px" y="0px"
	 width="9.639px" height="9.639px" viewBox="0 0 9.639 9.639" enable-background="new 0 0 9.639 9.639" xml:space="preserve">
<g>
	<path fill-rule="evenodd" clip-rule="evenodd" d="M5.057,2.863V1.919h2.97v0.944H5.057L5.057,2.863L5.057,2.863z M5.057,4.302
		V3.359h2.97v0.943H5.057L5.057,4.302L5.057,4.302z M5.057,6.559V5.615h2.97v0.943H5.057L5.057,6.559L5.057,6.559z M5.057,7.998
		V7.055h2.97v0.943H5.057L5.057,7.998L5.057,7.998z M4.255,4.311H1.887V1.943h2.368V4.311L4.255,4.311z M4.255,7.991H1.887V5.624
		h2.368V7.991L4.255,7.991z M8.815,8.085c0,0.404-0.327,0.731-0.731,0.731H1.83c-0.403,0-0.732-0.327-0.732-0.731V5.084H0.351v3.001
		c0,0.815,0.664,1.48,1.479,1.48h6.254c0.814,0,1.479-0.665,1.479-1.48V5.084H8.815V8.085L8.815,8.085z M8.084,0.354H1.83
		c-0.815,0-1.479,0.664-1.479,1.48v3.001h0.747V1.833C1.098,1.43,1.427,1.1,1.83,1.1h6.254c0.402,0,0.731,0.33,0.731,0.733v3.001
		h0.747V1.833C9.563,1.018,8.898,0.354,8.084,0.354L8.084,0.354z"/>
</g>
<g>
	<path fill-rule="evenodd" clip-rule="evenodd" fill="#FFFFFF" d="M4.863,2.648V1.705h2.97v0.944H4.863L4.863,2.648L4.863,2.648z
		 M4.863,4.087V3.144h2.97v0.943H4.863L4.863,4.087L4.863,4.087z M4.863,6.344V5.4h2.97v0.944H4.863L4.863,6.344L4.863,6.344z
		 M4.863,7.783V6.84h2.97v0.943H4.863L4.863,7.783L4.863,7.783z M4.062,4.096H1.693V1.728h2.368V4.096L4.062,4.096z M4.062,7.776
		H1.693V5.408h2.368V7.776L4.062,7.776z M8.622,7.87c0,0.405-0.327,0.732-0.731,0.732H1.637c-0.404,0-0.732-0.327-0.732-0.732V4.869
		H0.158V7.87c0,0.815,0.664,1.48,1.479,1.48h6.254c0.814,0,1.478-0.665,1.478-1.48V4.869H8.622V7.87L8.622,7.87z M7.891,0.139H1.637
		c-0.815,0-1.479,0.664-1.479,1.479v3.002h0.747V1.619c0-0.403,0.328-0.733,0.732-0.733h6.254c0.403,0,0.731,0.33,0.731,0.733v3.002
		h0.747V1.619C9.369,0.803,8.705,0.139,7.891,0.139L7.891,0.139z"/>
</g>
</svg>
