<?xml version="1.0" encoding="utf-8"?>
<!-- Generator: Adobe Illustrator 16.0.0, SVG Export Plug-In . SVG Version: 6.00 Build 0)  -->
<!DOCTYPE svg PUBLIC "-//W3C//DTD SVG 1.0//EN" "http://www.w3.org/TR/2001/REC-SVG-20010904/DTD/svg10.dtd">
<svg version="1.0" id="图层_1" xmlns="http://www.w3.org/2000/svg" xmlns:xlink="http://www.w3.org/1999/xlink" x="0px" y="0px"
	 width="9.639px" height="9.639px" viewBox="0 0 9.639 9.639" enable-background="new 0 0 9.639 9.639" xml:space="preserve">
<g>
	<path fill-rule="evenodd" clip-rule="evenodd" d="M6.823,4.546V2.814h0.963c0,0,0.487-0.034,0.673,0.215
		c0.184,0.249,0.134,0.578,0.134,0.578v2.576c0,0,0.032,0.39-0.173,0.621c-0.206,0.23-0.575,0.218-0.575,0.218H6.823V5.343
		L4.558,7.365l2.266,2.17V7.863h1.385c0.841,0,1.297-0.456,1.297-1.297V3.271c0-0.841-0.456-1.297-1.297-1.297H6.823v-1.67
		L4.558,2.349L6.823,4.546L6.823,4.546z M0.287,4.527h3.829V0.291H0.287V4.527L0.287,4.527z M0.287,9.546h3.844v-4.23H0.287V9.546
		L0.287,9.546z M3.258,6.181v2.524H1.151V6.181H3.258L3.258,6.181z"/>
</g>
<g>
	<path fill-rule="evenodd" clip-rule="evenodd" fill="#FFFFFF" d="M6.626,4.395V2.664h0.963c0,0,0.487-0.035,0.673,0.214
		c0.184,0.25,0.134,0.578,0.134,0.578v2.576c0,0,0.032,0.39-0.173,0.621S7.647,6.872,7.647,6.872H6.626v-1.68L4.36,7.215l2.266,2.17
		V7.711h1.385c0.841,0,1.297-0.454,1.297-1.296V3.119c0-0.841-0.456-1.297-1.297-1.297H6.626v-1.67L4.36,2.198L6.626,4.395
		L6.626,4.395z M0.09,4.376h3.829V0.139H0.09V4.376L0.09,4.376z M0.09,9.396h3.844v-4.23H0.09V9.396L0.09,9.396z M3.061,6.029v2.525
		H0.954V6.029H3.061L3.061,6.029z"/>
</g>
</svg>
