<?xml version="1.0" encoding="utf-8"?>
<!-- Generator: Adobe Illustrator 16.0.0, SVG Export Plug-In . SVG Version: 6.00 Build 0)  -->
<!DOCTYPE svg PUBLIC "-//W3C//DTD SVG 1.0//EN" "http://www.w3.org/TR/2001/REC-SVG-20010904/DTD/svg10.dtd">
<svg version="1.0" id="图层_1" xmlns="http://www.w3.org/2000/svg" xmlns:xlink="http://www.w3.org/1999/xlink" x="0px" y="0px"
	 width="9.639px" height="9.639px" viewBox="0 0 9.639 9.639" enable-background="new 0 0 9.639 9.639" xml:space="preserve">
<g>
	<path fill-rule="evenodd" clip-rule="evenodd" d="M3.475,4.67c-0.79,0-1.446-0.655-1.446-1.446s0.656-1.446,1.446-1.446
		S4.92,2.434,4.92,3.224S4.265,4.67,3.475,4.67L3.475,4.67z M3.475,2.356c-0.481,0-0.868,0.385-0.868,0.868
		c0,0.482,0.387,0.867,0.868,0.867c0.482,0,0.867-0.385,0.867-0.867C4.342,2.742,3.957,2.356,3.475,2.356L3.475,2.356z"/>
	<polygon fill-rule="evenodd" clip-rule="evenodd" points="4.92,7.023 4.67,5.46 3.957,5.229 4.131,4.689 5.172,5.036 5.479,6.945 
		4.92,7.023 	"/>
	<polygon fill-rule="evenodd" clip-rule="evenodd" points="2.028,7.023 1.45,6.925 1.76,5.017 2.801,4.67 2.973,5.21 2.26,5.441 
		2.028,7.023 	"/>
	<polygon fill-rule="evenodd" clip-rule="evenodd" points="6.077,2.356 7.234,2.356 7.234,2.935 6.077,2.935 6.077,2.356 	"/>
	<polygon fill-rule="evenodd" clip-rule="evenodd" points="6.077,3.513 8.391,3.513 8.391,4.091 6.077,4.091 6.077,3.513 	"/>
	<polygon fill-rule="evenodd" clip-rule="evenodd" points="6.077,4.67 8.391,4.67 8.391,5.249 6.077,5.249 6.077,4.67 	"/>
	<polygon fill-rule="evenodd" clip-rule="evenodd" points="6.077,5.827 8.391,5.827 8.391,6.405 6.077,6.405 6.077,5.827 	"/>
	<polygon fill-rule="evenodd" clip-rule="evenodd" points="3.475,7.563 6.366,7.563 6.366,8.141 3.475,8.141 3.475,7.563 	"/>
	<polygon fill-rule="evenodd" clip-rule="evenodd" points="9.548,8.141 6.945,8.141 6.945,7.563 8.969,7.563 8.969,1.2 0.873,1.2 
		0.873,7.563 2.897,7.563 2.897,8.141 0.293,8.141 0.293,0.621 9.548,0.621 9.548,8.141 	"/>
</g>
<g>
	<path fill-rule="evenodd" clip-rule="evenodd" fill="#FF650A" d="M3.273,4.461c-0.791,0-1.446-0.655-1.446-1.446
		s0.655-1.446,1.446-1.446c0.789,0,1.444,0.656,1.444,1.446S4.063,4.461,3.273,4.461L3.273,4.461z M3.273,2.147
		c-0.482,0-0.868,0.385-0.868,0.868c0,0.482,0.386,0.868,0.868,0.868s0.867-0.386,0.867-0.868C4.141,2.533,3.756,2.147,3.273,2.147
		L3.273,2.147z"/>
	<polygon fill-rule="evenodd" clip-rule="evenodd" fill="#FF650A" points="4.718,6.814 4.468,5.251 3.756,5.02 3.93,4.48 
		4.97,4.827 5.278,6.736 4.718,6.814 	"/>
	<polygon fill-rule="evenodd" clip-rule="evenodd" fill="#FF650A" points="1.827,6.814 1.249,6.716 1.559,4.808 2.598,4.461 
		2.771,5.001 2.058,5.232 1.827,6.814 	"/>
	<polygon fill-rule="evenodd" clip-rule="evenodd" fill="#FF650A" points="5.876,2.147 7.033,2.147 7.033,2.725 5.876,2.725 
		5.876,2.147 	"/>
	<polygon fill-rule="evenodd" clip-rule="evenodd" fill="#FF650A" points="5.876,3.304 8.189,3.304 8.189,3.883 5.876,3.883 
		5.876,3.304 	"/>
	<polygon fill-rule="evenodd" clip-rule="evenodd" fill="#FF650A" points="5.876,4.461 8.189,4.461 8.189,5.04 5.876,5.04 
		5.876,4.461 	"/>
	<polygon fill-rule="evenodd" clip-rule="evenodd" fill="#FF650A" points="5.876,5.618 8.189,5.618 8.189,6.196 5.876,6.196 
		5.876,5.618 	"/>
	<polygon fill-rule="evenodd" clip-rule="evenodd" fill="#FF650A" points="3.273,7.354 6.165,7.354 6.165,7.932 3.273,7.932 
		3.273,7.354 	"/>
	<polygon fill-rule="evenodd" clip-rule="evenodd" fill="#FF650A" points="9.347,7.932 6.744,7.932 6.744,7.354 8.767,7.354 
		8.767,0.991 0.671,0.991 0.671,7.354 2.695,7.354 2.695,7.932 0.092,7.932 0.092,0.412 9.347,0.412 9.347,7.932 	"/>
</g>
</svg>
