<?xml version="1.0" encoding="utf-8"?>
<!-- Generator: Adobe Illustrator 16.0.0, SVG Export Plug-In . SVG Version: 6.00 Build 0)  -->
<!DOCTYPE svg PUBLIC "-//W3C//DTD SVG 1.0//EN" "http://www.w3.org/TR/2001/REC-SVG-20010904/DTD/svg10.dtd">
<svg version="1.0" id="图层_1" xmlns="http://www.w3.org/2000/svg" xmlns:xlink="http://www.w3.org/1999/xlink" x="0px" y="0px"
	 width="9.639px" height="9.639px" viewBox="0 0 9.639 9.639" enable-background="new 0 0 9.639 9.639" xml:space="preserve">
<g>
	<path fill-rule="evenodd" clip-rule="evenodd" d="M2.362,5.156c0-0.142-0.073-0.257-0.162-0.257c-0.087,0-0.16,0.115-0.16,0.257
		c0,0.081,0.023,0.152,0.061,0.199l0.002,0.019L2.002,6.233l0.195,0.152l0.204-0.152L2.287,5.372
		C2.332,5.326,2.362,5.247,2.362,5.156L2.362,5.156z M2.281,4.819c0.184,0.154,0.19,0.522,0.19,0.522L2.67,4.64
		C2.67,4.64,2.527,4.817,2.281,4.819L2.281,4.819z M2.108,4.819C1.863,4.817,1.722,4.64,1.722,4.64l0.196,0.701
		C1.918,5.341,1.926,4.973,2.108,4.819L2.108,4.819z M7.643,2.535h-6.64c-0.39,0-0.708,0.317-0.708,0.707v3.89
		c0,0.391,0.318,0.708,0.708,0.708h6.64c0.393,0,0.708-0.316,0.708-0.708v-3.89C8.351,2.852,8.035,2.535,7.643,2.535L7.643,2.535z
		 M5.006,3.453h1.773c0.02,0,0.033,0.066,0.033,0.147S6.799,3.747,6.779,3.747H5.006c-0.019,0-0.034-0.066-0.034-0.147
		S4.987,3.453,5.006,3.453L5.006,3.453z M2.195,3.249c0.342,0,0.62,0.277,0.62,0.62c0,0.341-0.278,0.619-0.62,0.619
		c-0.341,0-0.619-0.277-0.619-0.619C1.576,3.526,1.854,3.249,2.195,3.249L2.195,3.249z M2.195,6.542
		c-0.751,0-1.361,1.113-1.361-0.046c0-0.906,0.373-1.679,0.896-1.972c0.127,0.105,0.289,0.169,0.466,0.169
		c0.178,0,0.341-0.064,0.465-0.169C3.183,4.817,3.556,5.59,3.556,6.496C3.556,7.655,2.947,6.542,2.195,6.542L2.195,6.542z
		 M7.686,6.901H4.099c-0.039,0-0.07-0.047-0.07-0.104c0-0.058,0.031-0.104,0.07-0.104h3.587c0.04,0,0.07,0.047,0.07,0.104
		C7.756,6.854,7.726,6.901,7.686,6.901L7.686,6.901z M7.686,6.484H4.099c-0.039,0-0.07-0.046-0.07-0.105
		c0-0.058,0.031-0.104,0.07-0.104h3.587c0.04,0,0.07,0.046,0.07,0.104C7.756,6.438,7.726,6.484,7.686,6.484L7.686,6.484z
		 M7.686,6.066H4.099c-0.039,0-0.07-0.046-0.07-0.103c0-0.059,0.031-0.104,0.07-0.104h3.587c0.04,0,0.07,0.045,0.07,0.104
		C7.756,6.02,7.726,6.066,7.686,6.066L7.686,6.066z M7.686,5.246H4.099c-0.039,0-0.07-0.047-0.07-0.104
		c0-0.057,0.031-0.104,0.07-0.104h3.587c0.04,0,0.07,0.047,0.07,0.104C7.756,5.199,7.726,5.246,7.686,5.246L7.686,5.246z
		 M7.686,4.829H4.099c-0.039,0-0.07-0.048-0.07-0.105S4.06,4.62,4.099,4.62h3.587c0.04,0,0.07,0.047,0.07,0.104
		S7.726,4.829,7.686,4.829L7.686,4.829z"/>
	<path fill-rule="evenodd" clip-rule="evenodd" d="M8.926,6.656c0.007-0.035,0.01-0.071,0.01-0.109v-3.89
		c0-0.391-0.315-0.707-0.707-0.707H1.588c-0.037,0-0.072,0.004-0.108,0.01c0.052-0.339,0.344-0.599,0.698-0.599h6.64
		c0.391,0,0.707,0.317,0.707,0.707v3.89C9.524,6.312,9.265,6.604,8.926,6.656L8.926,6.656z"/>
</g>
<g>
	<path fill-rule="evenodd" clip-rule="evenodd" fill="#FF650A" d="M2.196,4.964c0-0.141-0.072-0.257-0.161-0.257
		s-0.16,0.116-0.16,0.257c0,0.081,0.022,0.153,0.06,0.2l0.002,0.019L1.835,6.042l0.196,0.152l0.205-0.152L2.121,5.181
		C2.166,5.135,2.196,5.056,2.196,4.964L2.196,4.964z M2.115,4.628c0.184,0.154,0.19,0.522,0.19,0.522l0.197-0.701
		C2.503,4.449,2.361,4.626,2.115,4.628L2.115,4.628z M1.943,4.628c-0.247-0.002-0.39-0.179-0.39-0.179L1.753,5.15
		C1.753,5.15,1.76,4.782,1.943,4.628L1.943,4.628z M7.477,2.344h-6.64c-0.392,0-0.708,0.317-0.708,0.707v3.891
		c0,0.39,0.316,0.707,0.708,0.707h6.64c0.391,0,0.708-0.316,0.708-0.707V3.051C8.185,2.661,7.867,2.344,7.477,2.344L7.477,2.344z
		 M4.84,3.261h1.771c0.021,0,0.035,0.066,0.035,0.147c0,0.082-0.014,0.147-0.035,0.147H4.84c-0.018,0-0.034-0.065-0.034-0.147
		C4.806,3.328,4.822,3.261,4.84,3.261L4.84,3.261z M2.028,3.057c0.343,0,0.619,0.277,0.619,0.62c0,0.342-0.276,0.619-0.619,0.619
		c-0.341,0-0.62-0.277-0.62-0.619C1.408,3.334,1.688,3.057,2.028,3.057L2.028,3.057z M2.028,6.351c-0.75,0-1.36,1.113-1.36-0.046
		c0-0.906,0.373-1.679,0.896-1.973c0.126,0.105,0.289,0.168,0.465,0.168c0.177,0,0.341-0.063,0.467-0.168
		C3.017,4.626,3.39,5.399,3.39,6.305C3.39,7.464,2.781,6.351,2.028,6.351L2.028,6.351z M7.52,6.709H3.933
		c-0.04,0-0.069-0.046-0.069-0.105c0-0.058,0.029-0.104,0.069-0.104H7.52c0.04,0,0.07,0.046,0.07,0.104
		C7.59,6.664,7.56,6.709,7.52,6.709L7.52,6.709z M7.52,6.292H3.933c-0.04,0-0.069-0.047-0.069-0.105
		c0-0.058,0.029-0.104,0.069-0.104H7.52c0.04,0,0.07,0.046,0.07,0.104C7.59,6.246,7.56,6.292,7.52,6.292L7.52,6.292z M7.52,5.875
		H3.933c-0.04,0-0.069-0.046-0.069-0.104c0-0.058,0.029-0.104,0.069-0.104H7.52c0.04,0,0.07,0.046,0.07,0.104
		C7.59,5.829,7.56,5.875,7.52,5.875L7.52,5.875z M7.52,5.054H3.933c-0.04,0-0.069-0.046-0.069-0.104
		c0-0.058,0.029-0.104,0.069-0.104H7.52c0.04,0,0.07,0.046,0.07,0.104C7.59,5.008,7.56,5.054,7.52,5.054L7.52,5.054z M7.52,4.637
		H3.933c-0.04,0-0.069-0.047-0.069-0.104c0-0.057,0.029-0.104,0.069-0.104H7.52c0.04,0,0.07,0.046,0.07,0.104
		C7.59,4.59,7.56,4.637,7.52,4.637L7.52,4.637z"/>
	<path fill-rule="evenodd" clip-rule="evenodd" fill="#FF650A" d="M8.76,6.465C8.766,6.43,8.77,6.393,8.77,6.356v-3.89
		c0-0.39-0.317-0.707-0.707-0.707h-6.64c-0.038,0-0.073,0.004-0.109,0.009C1.365,1.43,1.657,1.17,2.012,1.17h6.641
		c0.388,0,0.706,0.317,0.706,0.707v3.89C9.358,6.121,9.099,6.412,8.76,6.465L8.76,6.465z"/>
</g>
</svg>
