<?xml version="1.0" encoding="utf-8"?>
<!-- Generator: Adobe Illustrator 16.0.0, SVG Export Plug-In . SVG Version: 6.00 Build 0)  -->
<!DOCTYPE svg PUBLIC "-//W3C//DTD SVG 1.0//EN" "http://www.w3.org/TR/2001/REC-SVG-20010904/DTD/svg10.dtd">
<svg version="1.0" id="图层_1" xmlns="http://www.w3.org/2000/svg" xmlns:xlink="http://www.w3.org/1999/xlink" x="0px" y="0px"
	 width="9.639px" height="9.639px" viewBox="0 0 9.639 9.639" enable-background="new 0 0 9.639 9.639" xml:space="preserve">
<g>
	<path fill-rule="evenodd" clip-rule="evenodd" d="M8.147,2.946c0-1.24-1.004-2.243-2.244-2.243c-0.406,0-0.787,0.108-1.116,0.298
		C4.459,0.812,4.078,0.703,3.672,0.703c-1.239,0-2.244,1.003-2.244,2.243c0,0.716,0.338,1.356,0.864,1.767
		c-1.135,0.51-1.936,1.632-1.978,2.946C0.307,7.688,0.307,7.78,0.307,7.78c0,0.209,0.167,0.374,0.373,0.374
		c0.205,0,0.372-0.165,0.372-0.374l0.006-0.009C1.061,6.407,2.11,5.288,3.446,5.175l0,0c0.075,0.007,0.15,0.013,0.226,0.013
		c0.075,0,0.15-0.006,0.225-0.013l0,0c0.546,0.048,1.045,0.262,1.444,0.594C5.352,5.748,5.365,5.728,5.384,5.71
		c0.138-0.141,0.253-0.291,0.423-0.396c0.032-0.021,0.067-0.03,0.103-0.034C5.874,5.248,5.837,5.216,5.799,5.183
		c0.035,0.002,0.264-0.001,0.33-0.008c0.137-0.014,0.271-0.041,0.4-0.077l0,0c0.301,0.131,0.626,0.314,0.924,0.558
		C7.509,5.55,7.59,5.457,7.684,5.383c0.105-0.084,0.224-0.155,0.353-0.193C7.809,4.999,7.555,4.839,7.28,4.715
		C7.808,4.307,8.147,3.663,8.147,2.946L8.147,2.946z M3.666,4.481c-0.849,0-1.536-0.688-1.536-1.534
		c0-0.851,0.688-1.537,1.536-1.537c0.848,0,1.536,0.687,1.536,1.537C5.202,3.794,4.514,4.481,3.666,4.481L3.666,4.481z M6.599,4.256
		c-0.024,0.01-0.047,0.021-0.071,0.036C6.383,4.36,6.225,4.403,6.06,4.422L5.912,4.43c-0.005,0-0.009,0-0.014,0
		c-0.168,0-0.33-0.027-0.48-0.078c0.311-0.384,0.497-0.872,0.497-1.405c0-0.536-0.188-1.03-0.503-1.415
		c0.152-0.053,0.316-0.082,0.486-0.082c0.824,0,1.493,0.667,1.493,1.492C7.391,3.51,7.069,4.003,6.599,4.256L6.599,4.256z"/>
	<path fill-rule="evenodd" clip-rule="evenodd" d="M6.599,4.256"/>
	<path fill-rule="evenodd" clip-rule="evenodd" d="M7.486,7.548l0.176,0.17L7.55,7.83c0,0-0.083,0.086,0.024,0.196l0.878,0.871
		c0,0,0.084,0.076,0.176,0.012L9.067,8.48c0,0,0.078-0.102-0.026-0.197l-0.869-0.86c0,0-0.095-0.094-0.2-0.014L7.857,7.524
		L7.674,7.344L7.486,7.548L7.486,7.548z"/>
	<polygon fill-rule="evenodd" clip-rule="evenodd" points="7.366,7.045 6.425,6.117 6.425,5.83 5.869,5.501 5.595,5.769 5.93,6.303 
		6.225,6.305 7.153,7.219 7.366,7.045 	"/>
	<path fill-rule="evenodd" clip-rule="evenodd" d="M5.848,8.605c0,0,0-0.142,0.149-0.142c0,0,0.134,0.006,0.138,0.142
		c0,0-0.004,0.13-0.143,0.14L5.868,8.866c0,0,0.181,0.17,0.385,0l1.678-1.795c0,0,0.183,0.12,0.458,0.118
		c0,0,0.337,0.013,0.603-0.217c0,0,0.514-0.403,0.249-1.036L8.64,6.517L8.134,6.014l0.6-0.573c0,0-0.382-0.224-0.899,0.101
		c0,0-0.267,0.186-0.348,0.522c0,0-0.121,0.399,0.15,0.757L5.75,8.369c0,0-0.118,0.113-0.06,0.283L5.848,8.605L5.848,8.605z"/>
	<path fill-rule="evenodd" clip-rule="evenodd" d="M5.848,8.605c0,0,0.012,0.137,0.144,0.14L5.868,8.866
		c0,0-0.163-0.139-0.178-0.214L5.848,8.605L5.848,8.605z"/>
</g>
<g>
	<path fill-rule="evenodd" clip-rule="evenodd" fill="#FFFFFF" d="M8.053,2.771c0-1.239-1.005-2.242-2.245-2.242
		c-0.406,0-0.788,0.109-1.116,0.298C4.364,0.638,3.982,0.528,3.576,0.528c-1.239,0-2.244,1.003-2.244,2.242
		c0,0.718,0.338,1.356,0.865,1.767C1.061,5.048,0.26,6.17,0.219,7.484c-0.007,0.027-0.008,0.12-0.008,0.12
		c0,0.208,0.167,0.375,0.372,0.375c0.205,0,0.372-0.167,0.372-0.375l0.007-0.01c0.002-1.363,1.052-2.481,2.39-2.596l0,0
		C3.426,5.007,3.5,5.011,3.576,5.011s0.15-0.004,0.226-0.012l0,0c0.546,0.049,1.045,0.263,1.443,0.594
		c0.011-0.021,0.024-0.041,0.044-0.059c0.138-0.14,0.252-0.291,0.423-0.396c0.032-0.021,0.067-0.03,0.102-0.034
		C5.778,5.071,5.741,5.041,5.703,5.008c0.036,0.001,0.264-0.001,0.33-0.009c0.137-0.013,0.272-0.04,0.4-0.076l0,0
		C6.734,5.054,7.059,5.237,7.357,5.48c0.058-0.107,0.138-0.199,0.231-0.273c0.105-0.083,0.224-0.154,0.354-0.194
		c-0.23-0.189-0.484-0.35-0.757-0.474C7.712,4.131,8.053,3.489,8.053,2.771L8.053,2.771z M3.57,4.307
		c-0.848,0-1.537-0.687-1.537-1.535c0-0.85,0.689-1.537,1.537-1.537s1.536,0.688,1.536,1.537C5.106,3.62,4.418,4.307,3.57,4.307
		L3.57,4.307z M6.503,4.08c-0.024,0.01-0.048,0.021-0.07,0.037C6.288,4.184,6.13,4.229,5.964,4.247L5.815,4.254
		c-0.004,0-0.009,0-0.014,0c-0.167,0-0.329-0.025-0.48-0.076c0.311-0.386,0.497-0.874,0.497-1.407c0-0.535-0.188-1.029-0.503-1.415
		c0.152-0.053,0.317-0.083,0.486-0.083c0.825,0,1.493,0.668,1.493,1.493C7.295,3.333,6.974,3.829,6.503,4.08L6.503,4.08z"/>
	<path fill-rule="evenodd" clip-rule="evenodd" fill="#FFFFFF" d="M6.503,4.08"/>
	<path fill-rule="evenodd" clip-rule="evenodd" fill="#FFFFFF" d="M7.391,7.372l0.175,0.17L7.455,7.654c0,0-0.083,0.086,0.024,0.196
		l0.877,0.872c0,0,0.085,0.075,0.177,0.011l0.439-0.428c0,0,0.077-0.104-0.025-0.197l-0.87-0.861c0,0-0.095-0.093-0.2-0.015
		L7.761,7.351L7.579,7.169L7.391,7.372L7.391,7.372z"/>
	<polygon fill-rule="evenodd" clip-rule="evenodd" fill="#FFFFFF" points="7.27,6.87 6.329,5.942 6.329,5.654 5.773,5.326 
		5.499,5.593 5.834,6.128 6.129,6.13 7.057,7.043 7.27,6.87 	"/>
	<path fill-rule="evenodd" clip-rule="evenodd" fill="#FFFFFF" d="M5.752,8.432c0,0,0-0.143,0.148-0.143
		c0,0,0.135,0.006,0.138,0.143c0,0-0.003,0.13-0.142,0.139L5.772,8.69c0,0,0.18,0.17,0.385,0l1.679-1.796
		c0,0,0.181,0.121,0.457,0.119c0,0,0.337,0.014,0.602-0.216c0,0,0.515-0.404,0.25-1.037L8.544,6.342L8.039,5.838l0.598-0.573
		c0,0-0.38-0.223-0.898,0.1c0,0-0.268,0.187-0.348,0.524c0,0-0.121,0.398,0.15,0.756L5.654,8.192c0,0-0.119,0.116-0.061,0.285
		L5.752,8.432L5.752,8.432z"/>
	<path fill-rule="evenodd" clip-rule="evenodd" fill="#FFFFFF" d="M5.752,8.432c0,0,0.011,0.135,0.144,0.139L5.772,8.69
		c0,0-0.164-0.139-0.179-0.213L5.752,8.432L5.752,8.432z"/>
</g>
</svg>
