<?xml version="1.0" encoding="utf-8"?>
<!-- Generator: Adobe Illustrator 16.0.0, SVG Export Plug-In . SVG Version: 6.00 Build 0)  -->
<!DOCTYPE svg PUBLIC "-//W3C//DTD SVG 1.0//EN" "http://www.w3.org/TR/2001/REC-SVG-20010904/DTD/svg10.dtd">
<svg version="1.0" id="图层_1" xmlns="http://www.w3.org/2000/svg" xmlns:xlink="http://www.w3.org/1999/xlink" x="0px" y="0px"
	 width="9.639px" height="9.639px" viewBox="0 0 9.639 9.639" enable-background="new 0 0 9.639 9.639" xml:space="preserve">
<g>
	<path fill-rule="evenodd" clip-rule="evenodd" d="M9.495,5.86c0-1.313-0.884-2.45-2.172-3.014c0.027-0.052,0.055-0.102,0.082-0.158
		c0.366-0.806,0.008-1.755-0.798-2.122C5.802,0.202,4.851,0.558,4.484,1.362c-0.183,0.404-0.187,0.839-0.04,1.224
		C3.973,2.695,3.536,2.871,3.148,3.108C2.885,2.763,2.494,2.615,2.249,2.781c-0.263,0.175-0.263,0.636,0,1.032
		c0.005,0.012,0.012,0.019,0.018,0.028C1.968,4.182,1.74,4.577,1.607,5.003H1.479c-0.633,0-1.145,0.64-1.145,1.431
		c0,0.79,0.512,1.432,1.145,1.432h0.775c0.264,0.305,0.591,0.57,0.96,0.787c0.074,0.529,0.422,0.933,0.843,0.933h0.572
		c0.236,0,0.451-0.128,0.608-0.34c0.082,0.004,0.165,0.009,0.252,0.009c0.265,0,0.528-0.021,0.779-0.064
		c0.159,0.238,0.391,0.396,0.648,0.396h0.575c0.475,0,0.857-0.512,0.857-1.149c0-0.064-0.006-0.125-0.013-0.189
		C9.051,7.632,9.495,6.789,9.495,5.86L9.495,5.86z M0.901,6.967c-0.158,0-0.288-0.235-0.288-0.527c0-0.289,0.13-0.527,0.288-0.527
		c0.157,0,0.284,0.238,0.284,0.527C1.186,6.731,1.059,6.967,0.901,6.967L0.901,6.967z M1.855,7.129
		c-0.155,0-0.286-0.233-0.286-0.524c0-0.29,0.131-0.528,0.286-0.528c0.158,0,0.286,0.238,0.286,0.528
		C2.142,6.896,2.014,7.129,1.855,7.129L1.855,7.129z M5.013,2.49l0.224-0.278c0.066,0.09,0.161,0.182,0.28,0.258
		C5.55,2.493,5.589,2.514,5.629,2.533c0.148,0.067,0.272,0.053,0.328-0.04C5.959,2.49,5.961,2.486,5.962,2.481
		c0.047-0.103-0.011-0.205-0.18-0.36C5.538,1.893,5.402,1.67,5.52,1.412c0.109-0.24,0.357-0.35,0.667-0.274l0.011-0.021
		C6.198,1.11,6.2,1.104,6.203,1.1l0.024-0.05c0.032-0.074,0.119-0.106,0.19-0.072c0.073,0.033,0.104,0.117,0.071,0.188L6.481,1.188
		h0.001l-0.021,0.05c0.176,0.087,0.276,0.182,0.35,0.266L6.593,1.772C6.542,1.708,6.444,1.59,6.252,1.504
		C6.074,1.423,5.984,1.474,5.951,1.55C5.91,1.636,5.979,1.736,6.172,1.925c0.243,0.237,0.316,0.424,0.244,0.64
		C6.408,2.585,6.398,2.607,6.39,2.631c-0.105,0.238-0.365,0.366-0.696,0.28L5.664,2.976L5.662,2.973L5.649,2.997
		c-0.033,0.072-0.117,0.105-0.19,0.072C5.388,3.036,5.354,2.951,5.39,2.879l0.01-0.025l0,0l0.018-0.041
		c-0.174-0.09-0.325-0.216-0.402-0.319L5.013,2.49L5.013,2.49z M7.776,4.588C7.602,4.459,7.408,4.341,7.204,4.241
		C6.699,3.999,6.112,3.857,5.489,3.857c-0.626,0-1.216,0.142-1.721,0.384c-0.205,0.1-0.397,0.218-0.574,0.347V3.999
		c0.177-0.131,0.369-0.246,0.574-0.346C4.133,3.479,4.541,3.356,4.974,3.3c0.095,0.072,0.197,0.134,0.306,0.185
		c0.468,0.211,0.98,0.185,1.403-0.035c0.182,0.056,0.355,0.124,0.521,0.204c0.204,0.1,0.397,0.215,0.572,0.346V4.588L7.776,4.588
		L7.776,4.588z"/>
</g>
<g>
	<path fill-rule="evenodd" clip-rule="evenodd" fill="#FF650A" d="M9.308,5.656c0-1.313-0.884-2.449-2.172-3.016
		c0.028-0.051,0.056-0.102,0.08-0.156c0.366-0.806,0.012-1.756-0.794-2.122C5.616-0.005,4.666,0.354,4.297,1.158
		c-0.185,0.402-0.188,0.838-0.04,1.223C3.783,2.489,3.349,2.666,2.962,2.902C2.696,2.557,2.305,2.411,2.063,2.576
		C1.8,2.751,1.8,3.212,2.063,3.607C2.067,3.619,2.075,3.628,2.08,3.636C1.781,3.979,1.551,4.373,1.42,4.799H1.29
		c-0.632,0-1.146,0.641-1.146,1.432c0,0.788,0.515,1.43,1.146,1.43h0.774c0.265,0.305,0.592,0.573,0.959,0.787
		c0.078,0.53,0.426,0.934,0.844,0.934H4.44c0.237,0,0.451-0.13,0.608-0.34c0.084,0.005,0.166,0.01,0.251,0.01
		c0.266,0,0.527-0.023,0.782-0.065C6.24,9.224,6.473,9.381,6.73,9.381h0.573c0.473,0,0.859-0.513,0.859-1.147
		c0-0.065-0.005-0.127-0.012-0.19C8.863,7.428,9.308,6.585,9.308,5.656L9.308,5.656z M0.712,6.763c-0.156,0-0.286-0.236-0.286-0.527
		c0-0.289,0.13-0.526,0.286-0.526c0.158,0,0.287,0.237,0.287,0.526C0.999,6.526,0.87,6.763,0.712,6.763L0.712,6.763z M1.668,6.925
		c-0.158,0-0.286-0.233-0.286-0.526c0-0.288,0.128-0.526,0.286-0.526c0.156,0,0.287,0.238,0.287,0.526
		C1.955,6.691,1.824,6.925,1.668,6.925L1.668,6.925z M4.825,2.286l0.221-0.28c0.068,0.09,0.16,0.183,0.281,0.26
		c0.035,0.022,0.075,0.045,0.115,0.063C5.589,2.396,5.715,2.381,5.77,2.288c0-0.002,0.005-0.007,0.005-0.011
		C5.82,2.177,5.762,2.071,5.593,1.916C5.351,1.688,5.215,1.468,5.332,1.207c0.11-0.241,0.357-0.349,0.667-0.273l0.01-0.021
		C6.011,0.905,6.013,0.9,6.016,0.896l0.021-0.05C6.07,0.771,6.158,0.738,6.23,0.771C6.305,0.805,6.334,0.89,6.302,0.961L6.294,0.984
		l0,0L6.273,1.033C6.448,1.12,6.551,1.214,6.625,1.299L6.406,1.567c-0.051-0.063-0.15-0.182-0.344-0.269
		C5.887,1.218,5.797,1.271,5.762,1.346C5.723,1.433,5.793,1.533,5.984,1.72c0.243,0.237,0.314,0.425,0.243,0.64
		C6.22,2.379,6.212,2.402,6.202,2.427c-0.107,0.237-0.366,0.367-0.695,0.28L5.479,2.771L5.474,2.77L5.463,2.794
		c-0.034,0.07-0.118,0.104-0.191,0.07C5.2,2.832,5.167,2.747,5.2,2.675l0.013-0.025l0,0l0.015-0.041
		c-0.174-0.091-0.322-0.218-0.399-0.32L4.825,2.286L4.825,2.286z M7.589,4.385C7.412,4.254,7.223,4.137,7.017,4.038
		C6.511,3.793,5.926,3.653,5.3,3.653c-0.627,0-1.212,0.14-1.72,0.385C3.376,4.137,3.185,4.254,3.01,4.385V3.793
		c0.175-0.129,0.366-0.245,0.57-0.345c0.367-0.175,0.773-0.297,1.205-0.352C4.88,3.168,4.981,3.23,5.092,3.281
		c0.466,0.21,0.981,0.184,1.402-0.037c0.183,0.055,0.357,0.125,0.522,0.204c0.206,0.1,0.396,0.216,0.572,0.345V4.385L7.589,4.385
		L7.589,4.385z"/>
</g>
</svg>
