<?xml version="1.0" encoding="utf-8"?>
<!-- Generator: Adobe Illustrator 16.0.0, SVG Export Plug-In . SVG Version: 6.00 Build 0)  -->
<!DOCTYPE svg PUBLIC "-//W3C//DTD SVG 1.0//EN" "http://www.w3.org/TR/2001/REC-SVG-20010904/DTD/svg10.dtd">
<svg version="1.0" id="图层_1" xmlns="http://www.w3.org/2000/svg" xmlns:xlink="http://www.w3.org/1999/xlink" x="0px" y="0px"
	 width="9.639px" height="9.639px" viewBox="0 0 9.639 9.639" enable-background="new 0 0 9.639 9.639" xml:space="preserve">
<g>
	<path fill-rule="evenodd" clip-rule="evenodd" d="M8.897,2.804c0.312,0,0.566-0.253,0.566-0.566V1.104H8.331V0.539H0.97
		c-0.312,0-0.567,0.254-0.567,0.565v7.928c0,0.312,0.256,0.566,0.567,0.566h7.361V7.334h0.566c0.312,0,0.566-0.255,0.566-0.565
		V5.635H8.331V5.069h0.566c0.312,0,0.566-0.254,0.566-0.566V3.37H8.331V2.804H8.897L8.897,2.804z M5.499,2.807
		c0.625,0,1.131,0.506,1.131,1.13S6.124,5.065,5.499,5.065c-0.623,0-1.13-0.505-1.13-1.129S4.876,2.807,5.499,2.807L5.499,2.807z
		 M2.668,9.032H2.103V1.104h0.565V9.032L2.668,9.032z M7.198,7.334H3.801V6.769c0-0.627,0.507-1.134,1.132-1.134h1.133
		c0.627,0,1.133,0.507,1.133,1.134V7.334L7.198,7.334z"/>
</g>
<g>
	<path fill-rule="evenodd" clip-rule="evenodd" fill="#FFFFFF" d="M8.671,2.632c0.312,0,0.566-0.254,0.566-0.566V0.933H8.104V0.366
		h-7.36c-0.312,0-0.567,0.255-0.567,0.566V8.86c0,0.312,0.256,0.566,0.567,0.566h7.36V7.161h0.567c0.312,0,0.566-0.255,0.566-0.565
		V5.462H8.104V4.897h0.567c0.312,0,0.566-0.254,0.566-0.566V3.198H8.104V2.632H8.671L8.671,2.632z M5.272,2.634
		c0.623,0,1.131,0.506,1.131,1.131c0,0.624-0.508,1.129-1.131,1.129c-0.622,0-1.13-0.505-1.13-1.129
		C4.143,3.14,4.65,2.634,5.272,2.634L5.272,2.634z M2.441,8.86H1.876V0.933h0.565V8.86L2.441,8.86z M6.972,7.161H3.574V6.596
		c0-0.626,0.507-1.134,1.131-1.134h1.134c0.626,0,1.133,0.508,1.133,1.134V7.161L6.972,7.161z"/>
</g>
</svg>
