<?xml version="1.0" encoding="utf-8"?>
<!-- Generator: Adobe Illustrator 16.0.0, SVG Export Plug-In . SVG Version: 6.00 Build 0)  -->
<!DOCTYPE svg PUBLIC "-//W3C//DTD SVG 1.0//EN" "http://www.w3.org/TR/2001/REC-SVG-20010904/DTD/svg10.dtd">
<svg version="1.0" id="图层_1" xmlns="http://www.w3.org/2000/svg" xmlns:xlink="http://www.w3.org/1999/xlink" x="0px" y="0px"
	 width="9.639px" height="9.639px" viewBox="0 0 9.639 9.639" enable-background="new 0 0 9.639 9.639" xml:space="preserve">
<g>
	<polygon fill-rule="evenodd" clip-rule="evenodd" points="0.293,1.317 2.135,1.317 2.135,2.725 0.293,2.725 0.293,1.317 	"/>
	<polygon fill-rule="evenodd" clip-rule="evenodd" points="0.293,4.133 2.135,4.133 2.135,5.542 0.293,5.542 0.293,4.133 	"/>
	<polygon fill-rule="evenodd" clip-rule="evenodd" points="0.293,6.951 2.135,6.951 2.135,8.359 0.293,8.359 0.293,6.951 	"/>
	<polygon fill-rule="evenodd" clip-rule="evenodd" points="3.332,1.317 9.5,1.317 9.5,2.725 3.332,2.725 3.332,1.317 	"/>
	<polygon fill-rule="evenodd" clip-rule="evenodd" points="3.332,4.133 9.5,4.133 9.5,5.542 3.332,5.542 3.332,4.133 	"/>
	<polygon fill-rule="evenodd" clip-rule="evenodd" points="3.332,6.951 9.5,6.951 9.5,8.359 3.332,8.359 3.332,6.951 	"/>
</g>
<g>
	<polygon fill-rule="evenodd" clip-rule="evenodd" fill="#FFFFFF" points="0.125,1.124 1.967,1.124 1.967,2.532 0.125,2.532 
		0.125,1.124 	"/>
	<polygon fill-rule="evenodd" clip-rule="evenodd" fill="#FFFFFF" points="0.125,3.941 1.967,3.941 1.967,5.35 0.125,5.35 
		0.125,3.941 	"/>
	<polygon fill-rule="evenodd" clip-rule="evenodd" fill="#FFFFFF" points="0.125,6.758 1.967,6.758 1.967,8.166 0.125,8.166 
		0.125,6.758 	"/>
	<polygon fill-rule="evenodd" clip-rule="evenodd" fill="#FFFFFF" points="3.163,1.124 9.331,1.124 9.331,2.532 3.163,2.532 
		3.163,1.124 	"/>
	<polygon fill-rule="evenodd" clip-rule="evenodd" fill="#FFFFFF" points="3.163,3.941 9.331,3.941 9.331,5.35 3.163,5.35 
		3.163,3.941 	"/>
	<polygon fill-rule="evenodd" clip-rule="evenodd" fill="#FFFFFF" points="3.163,6.758 9.331,6.758 9.331,8.166 3.163,8.166 
		3.163,6.758 	"/>
</g>
</svg>
