<?xml version="1.0" encoding="utf-8"?>
<!-- Generator: Adobe Illustrator 16.0.0, SVG Export Plug-In . SVG Version: 6.00 Build 0)  -->
<!DOCTYPE svg PUBLIC "-//W3C//DTD SVG 1.0//EN" "http://www.w3.org/TR/2001/REC-SVG-20010904/DTD/svg10.dtd">
<svg version="1.0" id="图层_1" xmlns="http://www.w3.org/2000/svg" xmlns:xlink="http://www.w3.org/1999/xlink" x="0px" y="0px"
	 width="9.639px" height="9.639px" viewBox="0 0 9.639 9.639" enable-background="new 0 0 9.639 9.639" xml:space="preserve">
<g>
	<path fill-rule="evenodd" clip-rule="evenodd" d="M8.494,6.492V0.866c0-0.133-0.073-0.257-0.199-0.337
		C8.209,0.472,8.102,0.441,7.993,0.441c-0.047,0-0.091,0.005-0.134,0.017L2.034,1.83C1.818,1.881,1.666,2.047,1.666,2.239v0.184
		v0.26v5.082v0.101v0.203c0,0.206,0.179,0.382,0.415,0.418l4.668,0.703c0.145,0.024,0.296-0.011,0.409-0.09
		C7.27,9.016,7.337,8.899,7.337,8.773V7.987V7.086V6.522V3.127c0-0.206-0.175-0.381-0.414-0.417L5.248,2.457L3.13,2.137l4.722-1.113
		v5.377L7.846,6.402v0.564l0.282-0.065C8.344,6.85,8.494,6.684,8.494,6.492L8.494,6.492z M2.461,6.89l1.313-0.842L3.785,6.06
		c0.106,0.135,0.201,0.201,0.317,0.24L2.718,7.182C2.675,7.211,2.613,7.202,2.576,7.164L2.44,7.008
		C2.406,6.971,2.415,6.917,2.461,6.89L2.461,6.89z M5.943,4.412c0.016-0.008,0.036-0.004,0.045,0.007l0.068,0.072
		C6.06,4.499,6.062,4.507,6.062,4.514C6.06,4.522,6.057,4.529,6.048,4.533l-0.967,0.59C5.069,5.131,5.064,5.141,5.063,5.151
		c-0.005,0.012,0,0.022,0.007,0.032L5.12,5.239c0.018,0.02,0.047,0.024,0.07,0.011l0.958-0.603c0.016-0.008,0.037-0.007,0.05,0.007
		l0.078,0.09c0.01,0.013,0.008,0.031-0.006,0.041L5.323,5.4C5.302,5.416,5.299,5.442,5.314,5.461l0.051,0.056
		c0.009,0.008,0.02,0.017,0.037,0.017c0.012,0.002,0.023-0.002,0.034-0.009l0.935-0.625c0.008-0.005,0.016-0.006,0.025-0.006
		C6.404,4.895,6.414,4.898,6.42,4.904l0.069,0.081c0.01,0.013,0.01,0.028-0.004,0.039L5.554,5.791L5.002,5.722l-0.265,0.17
		l0.338,0.378L5.65,6.92l0.345,0.392C6.022,7.339,6.024,7.371,6.008,7.4C6.001,7.413,5.99,7.425,5.978,7.435L5.843,7.521
		L5.792,7.552c-0.043,0.027-0.105,0.019-0.14-0.02L5.616,7.493L5.203,7.025L4.475,6.204c-0.063-0.007-0.119-0.02-0.17-0.034
		C4.179,6.134,4.077,6.069,3.961,5.929c0-0.002,0-0.005-0.002-0.006L3.117,4.974C2.991,4.816,2.966,4.551,3.055,4.355
		C3.072,4.317,3.09,4.282,3.117,4.253c0.019-0.026,0.05-0.04,0.081-0.04c0.032,0,0.064,0.013,0.086,0.034l1.063,1.205l0.131,0.146
		L4.743,5.43l0.075-0.47L5.943,4.412L5.943,4.412z"/>
</g>
<g>
	<path fill-rule="evenodd" clip-rule="evenodd" fill="#FF650A" d="M8.378,6.549V0.733c0-0.137-0.073-0.266-0.201-0.349
		c-0.089-0.058-0.197-0.09-0.308-0.09c-0.045,0-0.089,0.006-0.134,0.018L1.814,1.729c-0.219,0.053-0.37,0.226-0.37,0.424v0.189V2.61
		v5.254v0.104v0.206c0,0.217,0.175,0.396,0.417,0.436l4.744,0.728c0.146,0.021,0.299-0.011,0.416-0.097
		c0.116-0.083,0.18-0.201,0.18-0.335V8.095V7.164V6.58V3.069c0-0.211-0.175-0.394-0.419-0.43L5.081,2.377L2.927,2.046l4.799-1.15
		v5.559L7.72,6.457v0.584L8.004,6.97C8.226,6.92,8.378,6.746,8.378,6.549L8.378,6.549z M2.247,6.959l1.336-0.871l0.012,0.013
		C3.703,6.241,3.8,6.308,3.915,6.349L2.512,7.264C2.467,7.292,2.4,7.282,2.367,7.245L2.226,7.082
		C2.194,7.043,2.201,6.988,2.247,6.959L2.247,6.959z M5.787,4.398c0.015-0.01,0.036-0.004,0.047,0.007L5.9,4.481
		c0.006,0.007,0.008,0.015,0.008,0.023C5.906,4.513,5.9,4.52,5.891,4.524l-0.98,0.61C4.898,5.141,4.892,5.15,4.89,5.162
		c-0.002,0.013,0,0.024,0.009,0.034l0.053,0.058C4.967,5.274,5,5.278,5.021,5.264l0.975-0.623C6.013,4.633,6.034,4.636,6.044,4.65
		l0.085,0.091c0.01,0.015,0.005,0.033-0.01,0.043L5.16,5.419C5.136,5.436,5.132,5.463,5.148,5.482l0.051,0.06
		C5.207,5.55,5.221,5.557,5.235,5.557c0.013,0.002,0.027,0,0.037-0.008l0.949-0.646C6.23,4.896,6.239,4.896,6.247,4.896
		c0.011,0.001,0.02,0.005,0.025,0.012l0.071,0.082C6.354,5.001,6.352,5.02,6.337,5.03L5.39,5.825L4.831,5.751L4.563,5.928
		L4.904,6.32l0.584,0.672l0.353,0.404c0.025,0.029,0.025,0.063,0.013,0.091C5.848,7.501,5.835,7.512,5.821,7.522l-0.135,0.09
		L5.635,7.644C5.589,7.674,5.526,7.665,5.49,7.625L5.455,7.583l-0.421-0.48l-0.74-0.851C4.229,6.242,4.174,6.23,4.123,6.216
		c-0.129-0.039-0.231-0.104-0.35-0.249c0-0.002-0.002-0.005-0.004-0.006L2.916,4.979C2.787,4.817,2.762,4.542,2.85,4.339
		c0.02-0.04,0.04-0.076,0.066-0.106c0.017-0.026,0.049-0.04,0.082-0.04c0.033-0.001,0.066,0.013,0.085,0.034l1.083,1.246L4.3,5.625
		l0.268-0.174l0.076-0.486L5.787,4.398L5.787,4.398z"/>
</g>
</svg>
