<?xml version="1.0" encoding="utf-8"?>
<!-- Generator: Adobe Illustrator 16.0.0, SVG Export Plug-In . SVG Version: 6.00 Build 0)  -->
<!DOCTYPE svg PUBLIC "-//W3C//DTD SVG 1.0//EN" "http://www.w3.org/TR/2001/REC-SVG-20010904/DTD/svg10.dtd">
<svg version="1.0" id="图层_1" xmlns="http://www.w3.org/2000/svg" xmlns:xlink="http://www.w3.org/1999/xlink" x="0px" y="0px"
	 width="9.639px" height="9.639px" viewBox="0 0 9.639 9.639" enable-background="new 0 0 9.639 9.639" xml:space="preserve">
<path fill-rule="evenodd" clip-rule="evenodd" fill="#FF650A" d="M1.06,6.361"/>
<path fill-rule="evenodd" clip-rule="evenodd" fill="#FF650A" d="M8.667,6.361"/>
<g>
	<path fill-rule="evenodd" clip-rule="evenodd" d="M6.907,6.058c0.091-0.082,0.187-0.148,0.289-0.191
		C7.142,5.793,7.101,5.729,7.061,5.667C6.985,5.558,6.907,5.429,6.868,5.368c-0.252,0.137-0.495,0.425-0.685,0.68
		C6.074,6.197,5.972,6.354,5.877,6.523l0.461,0.334C6.525,6.45,6.739,6.205,6.907,6.058z"/>
	<path fill-rule="evenodd" clip-rule="evenodd" d="M5.246,7.092C5.059,7.213,4.79,7.36,4.386,7.479
		C4.44,7.607,4.47,7.739,4.508,7.839C4.52,7.9,4.536,7.959,4.557,8.011c0.171-0.052,0.342-0.105,0.512-0.177
		C5.356,7.715,5.693,7.542,5.91,7.316L5.513,6.891C5.44,6.963,5.356,7.021,5.246,7.092z"/>
	<path fill-rule="evenodd" clip-rule="evenodd" d="M2.835,2.698c0.147,0.347,0.318,0.707,0.46,0.982l0.24,0.46
		c0.42,0.807,0.935,1.692,1.011,1.805C4.55,5.953,4.55,5.953,4.55,5.958c0,0.003,0,0.007,0.007,0.007
		c0.285-0.482,0.534-0.919,0.722-1.268l0.303-0.562l0.233-0.459C5.955,3.403,6.12,3.048,6.27,2.698H6.255
		C6.31,2.53,6.332,2.358,6.332,2.181c0-0.978-0.8-1.772-1.775-1.772c-0.984,0-1.778,0.795-1.778,1.772
		c0,0.178,0.025,0.35,0.075,0.518H2.835z M4.557,1.339c0.474,0,0.838,0.384,0.838,0.842c0,0.474-0.364,0.845-0.838,0.845
		c-0.461,0-0.845-0.371-0.845-0.845C3.712,1.723,4.096,1.339,4.557,1.339z"/>
	<path fill-rule="evenodd" clip-rule="evenodd" d="M2.438,7.45c0.134,0.101,0.276,0.188,0.426,0.269
		C3.131,7.861,3.474,8.021,3.86,8.08c0.016-0.116,0.022-0.266,0.039-0.374l0.028-0.192C3.821,7.495,3.702,7.465,3.572,7.417
		C3.356,7.34,3.08,7.206,2.773,6.991C2.692,7.112,2.607,7.221,2.544,7.308L2.438,7.45z"/>
	<path fill-rule="evenodd" clip-rule="evenodd" d="M8.649,2.698H6.846L6.528,3.585h1.787c0.081,0,0.138,0.052,0.138,0.134v1.179
		c-0.252-0.006-0.645,0.02-1.029,0.207l0.05,0.131L7.626,5.63c0.225-0.071,0.42-0.125,0.575-0.147l0.252-0.039v2.993
		c0,0.084-0.057,0.136-0.138,0.136h-6.73c-0.081,0-0.139-0.052-0.139-0.136V6.609C1.483,6.646,1.527,6.688,1.58,6.732
		c0.083,0.069,0.205,0.187,0.364,0.321c0.091-0.082,0.175-0.188,0.25-0.265C2.235,6.748,2.273,6.704,2.309,6.66
		C1.931,6.345,1.547,5.898,1.446,5.774V3.719c0-0.075,0.058-0.134,0.139-0.134h0.968L2.258,2.698H1.217
		c-0.361,0-0.656,0.292-0.656,0.656v5.418c0,0.364,0.295,0.655,0.656,0.655h7.433c0.366,0,0.657-0.291,0.657-0.655V3.354
		C9.307,2.99,9.016,2.698,8.649,2.698z"/>
</g>
<g>
	<path fill-rule="evenodd" clip-rule="evenodd" fill="#FFFFFF" d="M6.681,5.84c0.092-0.083,0.187-0.15,0.288-0.191
		C6.915,5.575,6.874,5.512,6.833,5.45C6.758,5.339,6.681,5.212,6.641,5.148C6.389,5.286,6.146,5.575,5.958,5.827
		C5.847,5.979,5.746,6.136,5.65,6.306l0.46,0.335C6.299,6.23,6.512,5.987,6.681,5.84z"/>
	<path fill-rule="evenodd" clip-rule="evenodd" fill="#FFFFFF" d="M5.02,6.875c-0.188,0.12-0.457,0.266-0.86,0.386
		C4.213,7.39,4.242,7.521,4.28,7.62C4.293,7.683,4.31,7.741,4.329,7.792C4.5,7.741,4.672,7.687,4.841,7.616
		c0.288-0.119,0.626-0.294,0.843-0.518L5.286,6.672C5.213,6.742,5.129,6.802,5.02,6.875z"/>
	<path fill-rule="evenodd" clip-rule="evenodd" fill="#FFFFFF" d="M2.607,2.48c0.149,0.347,0.318,0.705,0.459,0.981l0.241,0.462
		c0.42,0.804,0.935,1.69,1.012,1.804c0.004,0.006,0.004,0.006,0.004,0.01c0,0.006,0,0.01,0.006,0.01
		c0.286-0.483,0.534-0.92,0.722-1.27l0.304-0.562l0.233-0.457C5.728,3.185,5.893,2.83,6.042,2.48H6.028
		c0.053-0.169,0.076-0.34,0.076-0.518c0-0.978-0.799-1.772-1.775-1.772c-0.983,0-1.778,0.795-1.778,1.772
		c0,0.178,0.025,0.349,0.075,0.518H2.607z M4.329,1.12c0.474,0,0.838,0.383,0.838,0.843c0,0.474-0.364,0.844-0.838,0.844
		c-0.461,0-0.844-0.37-0.844-0.844C3.485,1.503,3.868,1.12,4.329,1.12z"/>
	<path fill-rule="evenodd" clip-rule="evenodd" fill="#FFFFFF" d="M2.211,7.231c0.134,0.102,0.276,0.188,0.428,0.27
		c0.265,0.142,0.608,0.302,0.994,0.36c0.015-0.116,0.022-0.266,0.039-0.374l0.029-0.192c-0.106-0.021-0.227-0.05-0.355-0.097
		C3.13,7.122,2.853,6.988,2.547,6.772C2.465,6.894,2.381,7,2.316,7.088L2.211,7.231z"/>
	<path fill-rule="evenodd" clip-rule="evenodd" fill="#FFFFFF" d="M8.423,2.48H6.618L6.302,3.366h1.786
		c0.082,0,0.139,0.053,0.139,0.135V4.68C7.974,4.674,7.581,4.698,7.197,4.887l0.05,0.13l0.151,0.395
		C7.623,5.34,7.819,5.286,7.974,5.264l0.253-0.038v2.993c0,0.084-0.057,0.135-0.139,0.135h-6.73c-0.081,0-0.138-0.051-0.138-0.135
		v-1.83C1.258,6.428,1.3,6.47,1.354,6.515c0.082,0.069,0.204,0.187,0.363,0.319c0.091-0.08,0.176-0.187,0.25-0.263
		c0.042-0.044,0.08-0.087,0.115-0.13C1.704,6.127,1.319,5.68,1.22,5.557V3.501c0-0.077,0.057-0.135,0.138-0.135h0.969L2.031,2.48
		H0.99c-0.36,0-0.657,0.291-0.657,0.656v5.418c0,0.363,0.297,0.655,0.657,0.655h7.433c0.365,0,0.656-0.292,0.656-0.655V3.137
		C9.079,2.771,8.788,2.48,8.423,2.48z"/>
</g>
</svg>
