<?xml version="1.0" encoding="utf-8"?>
<!-- Generator: Adobe Illustrator 16.0.0, SVG Export Plug-In . SVG Version: 6.00 Build 0)  -->
<!DOCTYPE svg PUBLIC "-//W3C//DTD SVG 1.0//EN" "http://www.w3.org/TR/2001/REC-SVG-20010904/DTD/svg10.dtd">
<svg version="1.0" id="图层_1" xmlns="http://www.w3.org/2000/svg" xmlns:xlink="http://www.w3.org/1999/xlink" x="0px" y="0px"
	 width="9.639px" height="9.639px" viewBox="0 0 9.639 9.639" enable-background="new 0 0 9.639 9.639" xml:space="preserve">
<g>
	<g>
		<path fill-rule="evenodd" clip-rule="evenodd" d="M9.24,8.236L8.096,9.382C8.018,9.46,7.911,9.509,7.791,9.509
			c-0.117,0-0.224-0.049-0.302-0.127L6.918,8.809C6.84,8.731,6.793,8.622,6.793,8.505c0-0.239,0.19-0.431,0.428-0.431
			c0.118,0,0.225,0.047,0.303,0.125L7.791,8.47l0.842-0.844C8.711,7.548,8.817,7.5,8.937,7.5c0.236,0,0.429,0.193,0.429,0.431
			C9.365,8.05,9.318,8.156,9.24,8.236L9.24,8.236z M7.786,7.866C7.636,7.73,7.44,7.643,7.221,7.643
			c-0.475,0-0.858,0.387-0.858,0.862c0,0.238,0.099,0.452,0.254,0.606L6.614,9.113l0.394,0.396H1.071
			c-0.237,0-0.43-0.192-0.43-0.431v-7.46c0-0.238,0.192-0.432,0.43-0.432h0.714v0.432c0,0.475,0.386,0.86,0.86,0.86
			c0.473,0,0.857-0.385,0.857-0.86V1.187h0.428v0.432c0,0.475,0.385,0.86,0.858,0.86s0.858-0.385,0.858-0.86V1.187h0.429v0.432
			c0,0.475,0.385,0.86,0.857,0.86c0.474,0,0.857-0.385,0.857-0.86V1.187h0.717c0.236,0,0.429,0.193,0.429,0.432V7.07
			c-0.237,0-0.45,0.096-0.607,0.252L7.786,7.866L7.786,7.866z M1.785,7.716c0,0.197,0.161,0.358,0.357,0.358H4.86
			c0.197,0,0.358-0.161,0.358-0.358l0,0l0,0l0,0l0,0c0-0.199-0.161-0.358-0.358-0.358H2.143C1.946,7.357,1.785,7.517,1.785,7.716
			L1.785,7.716z M7.363,3.627H2.214c-0.235,0-0.429,0.192-0.429,0.43c0,0.238,0.193,0.431,0.429,0.431h5.149
			c0.236,0,0.428-0.192,0.428-0.431C7.791,3.819,7.6,3.627,7.363,3.627L7.363,3.627z M7.363,5.492H4.789H4.074h-1.86
			c-0.235,0-0.429,0.193-0.429,0.43c0,0.238,0.193,0.431,0.429,0.431h1.86h0.715h2.574c0.236,0,0.428-0.193,0.428-0.431
			C7.791,5.685,7.6,5.492,7.363,5.492L7.363,5.492z M6.934,2.048c-0.235,0-0.428-0.193-0.428-0.43V0.757
			c0-0.238,0.192-0.43,0.428-0.43c0.238,0,0.43,0.192,0.43,0.43v0.861C7.363,1.855,7.172,2.048,6.934,2.048L6.934,2.048z
			 M4.789,2.048c-0.237,0-0.428-0.193-0.428-0.43V0.757c0-0.238,0.19-0.43,0.428-0.43c0.238,0,0.43,0.192,0.43,0.43v0.861
			C5.219,1.855,5.027,2.048,4.789,2.048L4.789,2.048z M2.646,2.048c-0.239,0-0.432-0.193-0.432-0.43V0.757
			c0-0.238,0.192-0.43,0.432-0.43c0.235,0,0.428,0.192,0.428,0.43v0.861C3.073,1.855,2.881,2.048,2.646,2.048L2.646,2.048z"/>
	</g>
	<g>
		<path fill-rule="evenodd" clip-rule="evenodd" fill="#FF650A" d="M9.113,8.08L7.969,9.229C7.891,9.306,7.785,9.354,7.666,9.354
			c-0.118,0-0.226-0.049-0.304-0.126l-0.57-0.575C6.714,8.575,6.665,8.469,6.665,8.35c0-0.238,0.191-0.43,0.429-0.43
			c0.118,0,0.226,0.047,0.304,0.125l0.269,0.271l0.842-0.845C8.585,7.393,8.69,7.346,8.81,7.346c0.237,0,0.429,0.191,0.429,0.431
			C9.238,7.895,9.191,8.002,9.113,8.08L9.113,8.08z M7.659,7.712C7.51,7.575,7.314,7.488,7.094,7.488
			c-0.474,0-0.858,0.386-0.858,0.861c0,0.238,0.099,0.452,0.254,0.605L6.487,8.958l0.394,0.396H0.944
			c-0.236,0-0.43-0.194-0.43-0.432v-7.46c0-0.238,0.193-0.431,0.43-0.431h0.715v0.431c0,0.475,0.386,0.861,0.858,0.861
			c0.474,0,0.858-0.387,0.858-0.861V1.032h0.428v0.431c0,0.475,0.386,0.861,0.858,0.861c0.475,0,0.858-0.387,0.858-0.861V1.032
			h0.429v0.431c0,0.475,0.385,0.861,0.858,0.861s0.858-0.387,0.858-0.861V1.032h0.715c0.237,0,0.429,0.193,0.429,0.431v5.451
			c-0.237,0-0.45,0.097-0.607,0.253L7.659,7.712L7.659,7.712z M1.659,7.562c0,0.197,0.16,0.358,0.356,0.358h2.719
			c0.196,0,0.357-0.161,0.357-0.358l0,0l0,0l0,0l0,0c0-0.198-0.161-0.359-0.357-0.359H2.016C1.819,7.202,1.659,7.363,1.659,7.562
			L1.659,7.562z M7.237,3.472H2.089c-0.236,0-0.43,0.192-0.43,0.43s0.193,0.43,0.43,0.43h5.148c0.236,0,0.429-0.192,0.429-0.43
			S7.474,3.472,7.237,3.472L7.237,3.472z M7.237,5.336H4.662H3.948H2.089c-0.236,0-0.43,0.193-0.43,0.43
			c0,0.239,0.193,0.432,0.43,0.432h1.859h0.714h2.575c0.236,0,0.429-0.193,0.429-0.432C7.666,5.53,7.474,5.336,7.237,5.336
			L7.237,5.336z M6.808,1.893c-0.236,0-0.429-0.193-0.429-0.43V0.602c0-0.238,0.192-0.43,0.429-0.43c0.238,0,0.43,0.192,0.43,0.43
			v0.861C7.237,1.7,7.046,1.893,6.808,1.893L6.808,1.893z M4.662,1.893c-0.237,0-0.428-0.193-0.428-0.43V0.602
			c0-0.238,0.19-0.43,0.428-0.43s0.43,0.192,0.43,0.43v0.861C5.092,1.7,4.899,1.893,4.662,1.893L4.662,1.893z M2.518,1.893
			c-0.237,0-0.429-0.193-0.429-0.43V0.602c0-0.238,0.191-0.43,0.429-0.43c0.236,0,0.429,0.192,0.429,0.43v0.861
			C2.946,1.7,2.754,1.893,2.518,1.893L2.518,1.893z"/>
	</g>
</g>
</svg>
