<?xml version="1.0" encoding="utf-8"?>
<!-- Generator: Adobe Illustrator 16.0.0, SVG Export Plug-In . SVG Version: 6.00 Build 0)  -->
<!DOCTYPE svg PUBLIC "-//W3C//DTD SVG 1.0//EN" "http://www.w3.org/TR/2001/REC-SVG-20010904/DTD/svg10.dtd">
<svg version="1.0" id="图层_1" xmlns="http://www.w3.org/2000/svg" xmlns:xlink="http://www.w3.org/1999/xlink" x="0px" y="0px"
	 width="9.639px" height="9.639px" viewBox="0 0 9.639 9.639" enable-background="new 0 0 9.639 9.639" xml:space="preserve">
<g>
	<path fill-rule="evenodd" clip-rule="evenodd" d="M5.053,0.729c-1.715,0-3.113,1.7-3.113,3.79c0,2.09,1.398,3.789,3.113,3.789
		c1.719,0,3.114-1.699,3.114-3.789C8.167,2.43,6.771,0.729,5.053,0.729L5.053,0.729z M5.053,8.005c-1.576,0-2.861-1.564-2.861-3.485
		c0-1.922,1.285-3.485,2.861-3.485c1.58,0,2.863,1.563,2.863,3.485C7.916,6.44,6.633,8.005,5.053,8.005L5.053,8.005z M5.053,1.339
		c-1.44,0-2.611,1.426-2.611,3.18c0,1.753,1.171,3.178,2.611,3.178S7.666,6.272,7.666,4.52C7.666,2.765,6.493,1.339,5.053,1.339
		L5.053,1.339z M5.053,7.133c-1.183,0-2.146-1.173-2.146-2.614c0-1.442,0.964-2.614,2.146-2.614C6.238,1.905,7.2,3.078,7.2,4.52
		C7.2,5.96,6.238,7.133,5.053,7.133L5.053,7.133z M1.783,2.946c0,0.337-0.094,0.588-0.353,0.771L1.215,3.86v0.441H0.796V3.865
		L0.572,3.713C0.3,3.495,0.228,3.29,0.228,2.946l0.002-2.09h0.229v2.052c0,0.071,0.048,0.128,0.106,0.128
		c0.058,0,0.106-0.057,0.106-0.128V0.856h0.231v2.256c0,0.071,0.047,0.129,0.104,0.129c0.06,0,0.105-0.058,0.105-0.129V0.856h0.231
		v2.052c0,0.071,0.047,0.128,0.105,0.128s0.106-0.057,0.106-0.128V0.856h0.228V2.946L1.783,2.946z M9.028,3.841H8.6V1.235
		c0-0.858,0.407-0.858,0.849-0.858L9.45,4.313H9.028V3.841L9.028,3.841z M6.842,4.52c0,1.202-0.8,2.177-1.789,2.177
		c-0.987,0-1.788-0.975-1.788-2.177c0-1.203,0.801-2.178,1.788-2.178C6.042,2.341,6.842,3.316,6.842,4.52L6.842,4.52z M0.784,4.736
		c-0.052,0.066-0.083,0.153-0.083,0.25v3.675c0,0.203,0.137,0.369,0.305,0.369s0.303-0.166,0.303-0.369V4.987
		c0-0.098-0.03-0.185-0.083-0.25H0.784L0.784,4.736z M9.53,4.937C9.52,4.864,9.492,4.8,9.453,4.749H9.026
		c-0.051,0.065-0.08,0.149-0.08,0.244V5.04C8.945,5.05,8.943,5.061,8.943,5.073v3.589c0,0.203,0.136,0.369,0.303,0.369
		c0.169,0,0.306-0.166,0.306-0.369V5.073C9.552,5.024,9.545,4.979,9.53,4.937L9.53,4.937z"/>
</g>
<g>
	<path fill-rule="evenodd" clip-rule="evenodd" fill="#FFFFFF" d="M4.954,0.647c-1.716,0-3.113,1.699-3.113,3.789
		c0,2.09,1.397,3.791,3.113,3.791c1.718,0,3.113-1.701,3.113-3.791C8.067,2.346,6.672,0.647,4.954,0.647L4.954,0.647z M4.954,7.921
		c-1.577,0-2.861-1.563-2.861-3.485c0-1.921,1.284-3.485,2.861-3.485c1.579,0,2.862,1.563,2.862,3.485
		C7.816,6.358,6.533,7.921,4.954,7.921L4.954,7.921z M4.954,1.256c-1.441,0-2.612,1.427-2.612,3.18c0,1.753,1.171,3.182,2.612,3.182
		c1.439,0,2.612-1.428,2.612-3.182C7.566,2.683,6.394,1.256,4.954,1.256L4.954,1.256z M4.954,7.05c-1.185,0-2.146-1.173-2.146-2.615
		c0-1.441,0.962-2.614,2.146-2.614s2.147,1.173,2.147,2.614C7.102,5.877,6.139,7.05,4.954,7.05L4.954,7.05z M1.683,2.863
		c0,0.336-0.092,0.587-0.352,0.771L1.116,3.777v0.44h-0.42V3.782L0.472,3.629C0.201,3.412,0.129,3.207,0.129,2.863l0.001-2.09h0.229
		v2.052c0,0.071,0.048,0.128,0.105,0.128s0.107-0.057,0.107-0.128V0.773h0.231V3.03c0,0.07,0.046,0.127,0.104,0.127
		c0.059,0,0.104-0.057,0.104-0.127V0.773h0.233v2.052c0,0.071,0.047,0.128,0.105,0.128c0.058,0,0.106-0.057,0.106-0.128V0.773h0.226
		V2.863L1.683,2.863z M8.93,3.758H8.502V1.152c0-0.858,0.406-0.858,0.848-0.858L9.352,4.23H8.93V3.758L8.93,3.758z M6.744,4.436
		c0,1.203-0.803,2.178-1.79,2.178S3.165,5.638,3.165,4.436c0-1.202,0.802-2.177,1.789-2.177S6.744,3.233,6.744,4.436L6.744,4.436z
		 M0.685,4.653c-0.052,0.066-0.083,0.153-0.083,0.25v3.675c0,0.205,0.136,0.369,0.305,0.369S1.21,8.783,1.21,8.578V4.903
		c0-0.098-0.031-0.185-0.082-0.25H0.685L0.685,4.653z M9.431,4.854C9.42,4.78,9.394,4.716,9.355,4.666H8.928
		c-0.051,0.064-0.08,0.149-0.08,0.244v0.046C8.846,4.967,8.843,4.978,8.843,4.99v3.588c0,0.205,0.138,0.369,0.304,0.369
		c0.17,0,0.306-0.164,0.306-0.369V4.99C9.452,4.941,9.445,4.896,9.431,4.854L9.431,4.854z"/>
</g>
</svg>
