<?xml version="1.0" encoding="utf-8"?>
<!-- Generator: Adobe Illustrator 16.0.0, SVG Export Plug-In . SVG Version: 6.00 Build 0)  -->
<!DOCTYPE svg PUBLIC "-//W3C//DTD SVG 1.0//EN" "http://www.w3.org/TR/2001/REC-SVG-20010904/DTD/svg10.dtd">
<svg version="1.0" id="图层_1" xmlns="http://www.w3.org/2000/svg" xmlns:xlink="http://www.w3.org/1999/xlink" x="0px" y="0px"
	 width="9.639px" height="9.639px" viewBox="0 0 9.639 9.639" enable-background="new 0 0 9.639 9.639" xml:space="preserve">
<g>
	<path fill-rule="evenodd" clip-rule="evenodd" d="M4.877,0.706c-2.437,0-4.412,1.975-4.412,4.412S2.44,9.532,4.877,9.532
		c2.438,0,4.413-1.977,4.413-4.414S7.315,0.706,4.877,0.706L4.877,0.706 M4.851,7.703c-0.257,0-0.465-0.204-0.465-0.456
		c0-0.25,0.208-0.455,0.465-0.455c0.254,0,0.462,0.205,0.462,0.455C5.313,7.499,5.104,7.703,4.851,7.703L4.851,7.703 M6.601,4.596
		c-0.129,0.201-0.401,0.476-0.817,0.82C5.569,5.596,5.437,5.74,5.384,5.849C5.332,5.958,5.307,6.151,5.313,6.432H4.386
		C4.384,6.299,4.383,6.218,4.383,6.188c0-0.298,0.05-0.546,0.148-0.74c0.101-0.191,0.299-0.41,0.596-0.652
		C5.424,4.555,5.604,4.396,5.66,4.32c0.09-0.118,0.136-0.249,0.136-0.392c0-0.198-0.081-0.367-0.24-0.507
		C5.399,3.28,5.185,3.209,4.916,3.209c-0.261,0-0.478,0.073-0.654,0.22C4.089,3.576,3.939,3.899,3.902,4.102
		C3.87,4.291,2.956,4.37,2.968,3.986c0.01-0.384,0.212-0.801,0.553-1.103c0.344-0.303,0.793-0.453,1.35-0.453
		c0.586,0,1.053,0.153,1.399,0.459s0.519,0.663,0.519,1.067C6.788,4.182,6.727,4.396,6.601,4.596L6.601,4.596 M6.601,4.596"/>
</g>
<g>
	<path fill-rule="evenodd" clip-rule="evenodd" fill="#FFFFFF" d="M4.704,0.493c-2.438,0-4.413,1.975-4.413,4.413
		c0,2.437,1.976,4.413,4.413,4.413c2.437,0,4.412-1.977,4.412-4.413C9.116,2.468,7.141,0.493,4.704,0.493L4.704,0.493 M4.675,7.49
		c-0.256,0-0.463-0.203-0.463-0.457c0-0.251,0.207-0.454,0.463-0.454s0.463,0.203,0.463,0.454C5.138,7.287,4.931,7.49,4.675,7.49
		L4.675,7.49 M6.425,4.383c-0.128,0.202-0.398,0.476-0.815,0.82C5.395,5.383,5.262,5.526,5.21,5.635
		C5.157,5.744,5.134,5.938,5.138,6.219H4.212C4.21,6.086,4.208,6.005,4.208,5.976c0-0.298,0.05-0.546,0.149-0.74
		c0.099-0.191,0.298-0.411,0.596-0.651C5.25,4.342,5.429,4.182,5.487,4.107c0.087-0.118,0.134-0.249,0.134-0.393
		c0-0.197-0.079-0.365-0.239-0.506C5.224,3.066,5.01,2.995,4.741,2.995c-0.261,0-0.477,0.074-0.653,0.22
		C3.916,3.362,3.765,3.687,3.729,3.889C3.695,4.078,2.781,4.157,2.793,3.773s0.212-0.801,0.553-1.103
		C3.689,2.368,4.14,2.218,4.696,2.218c0.586,0,1.053,0.152,1.4,0.458C6.44,2.982,6.613,3.338,6.613,3.744
		C6.613,3.969,6.551,4.182,6.425,4.383L6.425,4.383 M6.425,4.383"/>
</g>
</svg>
