<?xml version="1.0" encoding="utf-8"?>
<!-- Generator: Adobe Illustrator 16.0.0, SVG Export Plug-In . SVG Version: 6.00 Build 0)  -->
<!DOCTYPE svg PUBLIC "-//W3C//DTD SVG 1.0//EN" "http://www.w3.org/TR/2001/REC-SVG-20010904/DTD/svg10.dtd">
<svg version="1.0" id="图层_1" xmlns="http://www.w3.org/2000/svg" xmlns:xlink="http://www.w3.org/1999/xlink" x="0px" y="0px"
	 width="9.639px" height="9.639px" viewBox="0 0 9.639 9.639" enable-background="new 0 0 9.639 9.639" xml:space="preserve">
<g>
	<path fill-rule="evenodd" clip-rule="evenodd" d="M7.669,7.542L7.266,7.309C7.064,7.508,6.84,7.679,6.6,7.817l0.157,0.588
		C6.858,8.78,6.635,9.169,6.259,9.27l-0.34,0.094C5.543,9.462,5.157,9.239,5.056,8.862L4.898,8.271
		C4.622,8.27,4.345,8.231,4.072,8.159L3.846,8.552C3.651,8.887,3.221,9.004,2.885,8.809L2.579,8.632
		C2.242,8.438,2.126,8.007,2.321,7.669l0.226-0.392c-0.198-0.201-0.369-0.421-0.508-0.66L1.446,6.776
		c-0.375,0.1-0.761-0.123-0.862-0.5L0.493,5.935C0.393,5.559,0.616,5.172,0.991,5.072l0.587-0.158c0-0.278,0.036-0.558,0.107-0.833
		L1.283,3.849C0.946,3.654,0.831,3.223,1.026,2.885l0.176-0.306c0.194-0.336,0.625-0.452,0.961-0.257l0.398,0.229
		c0.199-0.198,0.418-0.37,0.654-0.51L3.064,1.477C2.963,1.1,3.187,0.713,3.563,0.612l0.34-0.091C4.278,0.42,4.664,0.643,4.765,1.019
		l0.148,0.555C5.2,1.573,5.488,1.609,5.771,1.684l0.237-0.41C6.203,0.936,6.633,0.821,6.97,1.016l0.305,0.176
		c0.337,0.195,0.452,0.626,0.258,0.963L7.296,2.566c0.206,0.208,0.382,0.44,0.524,0.689l0.553-0.148
		c0.376-0.101,0.761,0.123,0.863,0.5l0.091,0.339C9.429,4.323,9.206,4.71,8.829,4.81L8.266,4.962
		C8.262,5.236,8.224,5.513,8.151,5.784l0.398,0.23C8.887,6.209,9.001,6.64,8.808,6.978L8.631,7.283
		C8.436,7.62,8.006,7.735,7.669,7.542L7.669,7.542z M5.878,3.261c-0.925-0.535-2.11-0.219-2.646,0.71
		c-0.534,0.927-0.217,2.114,0.71,2.65c0.926,0.535,2.111,0.218,2.645-0.71C7.123,4.982,6.805,3.797,5.878,3.261L5.878,3.261z
		 M4.285,6.028C3.677,5.676,3.467,4.896,3.819,4.286c0.352-0.61,1.13-0.819,1.74-0.466c0.608,0.352,0.817,1.131,0.466,1.74
		C5.672,6.171,4.893,6.379,4.285,6.028L4.285,6.028z"/>
</g>
<g>
	<path fill-rule="evenodd" clip-rule="evenodd" fill="#FF650A" d="M7.41,7.419L7.008,7.186C6.805,7.385,6.582,7.556,6.34,7.696
		l0.158,0.586C6.6,8.66,6.376,9.047,6,9.148L5.66,9.239c-0.376,0.1-0.762-0.123-0.863-0.499L4.64,8.148
		C4.363,8.146,4.086,8.11,3.813,8.038L3.587,8.429C3.393,8.767,2.962,8.881,2.626,8.688L2.32,8.51
		C1.983,8.315,1.868,7.885,2.063,7.548l0.226-0.393C2.089,6.953,1.919,6.733,1.78,6.496L1.188,6.653
		c-0.375,0.101-0.762-0.123-0.862-0.5L0.234,5.813c-0.1-0.375,0.123-0.763,0.498-0.864L1.32,4.792c0-0.279,0.036-0.559,0.107-0.833
		L1.024,3.727C0.688,3.532,0.572,3.101,0.767,2.763l0.176-0.306C1.137,2.12,1.568,2.004,1.905,2.199l0.397,0.23
		c0.199-0.198,0.418-0.371,0.654-0.511L2.805,1.353c-0.1-0.375,0.124-0.763,0.499-0.864l0.34-0.091
		C4.02,0.298,4.406,0.521,4.506,0.897l0.148,0.555C4.941,1.45,5.229,1.487,5.513,1.563l0.236-0.41
		c0.194-0.338,0.626-0.454,0.962-0.259l0.305,0.176c0.337,0.195,0.453,0.626,0.258,0.964l-0.237,0.41
		c0.207,0.209,0.383,0.44,0.524,0.689l0.554-0.148c0.376-0.101,0.762,0.122,0.863,0.499l0.091,0.34
		C9.171,4.2,8.947,4.586,8.571,4.688L8.007,4.839C8.004,5.114,7.965,5.39,7.893,5.662l0.397,0.23
		c0.337,0.195,0.452,0.626,0.258,0.962L8.372,7.16C8.178,7.497,7.747,7.614,7.41,7.419L7.41,7.419z M5.62,3.139
		c-0.926-0.535-2.11-0.218-2.646,0.71C2.439,4.776,2.757,5.963,3.683,6.499C4.61,7.034,5.794,6.717,6.33,5.789
		C6.864,4.86,6.547,3.674,5.62,3.139L5.62,3.139z M4.026,5.905C3.417,5.553,3.209,4.774,3.561,4.164
		C3.912,3.554,4.69,3.345,5.3,3.697c0.608,0.352,0.817,1.132,0.466,1.741C5.414,6.049,4.635,6.257,4.026,5.905L4.026,5.905z"/>
</g>
</svg>
