<?xml version="1.0" encoding="utf-8"?>
<!-- Generator: Adobe Illustrator 16.0.0, SVG Export Plug-In . SVG Version: 6.00 Build 0)  -->
<!DOCTYPE svg PUBLIC "-//W3C//DTD SVG 1.0//EN" "http://www.w3.org/TR/2001/REC-SVG-20010904/DTD/svg10.dtd">
<svg version="1.0" id="图层_1" xmlns="http://www.w3.org/2000/svg" xmlns:xlink="http://www.w3.org/1999/xlink" x="0px" y="0px"
	 width="9.639px" height="9.639px" viewBox="0 0 9.639 9.639" enable-background="new 0 0 9.639 9.639" xml:space="preserve">
<g>
	<path fill-rule="evenodd" clip-rule="evenodd" d="M9.229,8.572L8.455,7.79c0.222-0.356,0.351-0.776,0.351-1.227
		c0-1.288-1.046-2.331-2.337-2.331c-1.292,0-2.34,1.044-2.34,2.331c0,1.287,1.046,2.328,2.34,2.328c0.487,0,0.938-0.146,1.311-0.401
		l0.762,0.767c0.09,0.088,0.211,0.142,0.346,0.142c0.268,0,0.486-0.217,0.486-0.485c0-0.132-0.055-0.253-0.144-0.343V8.572
		L9.229,8.572z M6.467,8.174c-0.893,0-1.614-0.722-1.614-1.61c0-0.89,0.722-1.611,1.614-1.611s1.615,0.721,1.615,1.611
		C8.082,7.452,7.359,8.174,6.467,8.174L6.467,8.174z M4.129,3.884c2.329,0,3.951-0.588,3.951-1.313V1.784
		c0-0.725-1.622-1.312-3.951-1.312c-2.328,0-3.688,0.588-3.688,1.312v0.788C0.44,3.297,1.801,3.884,4.129,3.884L4.129,3.884z
		 M3.568,7.169C1.97,7.112,1.117,6.603,0.627,6.117C0.503,6.239,0.442,6.373,0.442,6.509v1.051c0,0.725,1.359,1.311,3.687,1.311
		c0.235,0,0.461-0.009,0.683-0.019C4.215,8.426,3.704,7.919,3.568,7.169L3.568,7.169L3.568,7.169z M3.604,6.499
		c0-0.694,0.249-1.33,0.661-1.827c-0.05,0-0.099,0-0.149,0c-1.887,0-2.951-0.387-3.489-0.919C0.503,3.876,0.442,4.01,0.442,4.146
		v1.051c0,0.668,1.156,1.219,3.162,1.3V6.499L3.604,6.499z"/>
</g>
<g>
	<path fill-rule="evenodd" clip-rule="evenodd" fill="#FF650A" d="M9.108,8.347L8.334,7.564c0.222-0.357,0.353-0.777,0.353-1.228
		c0-1.287-1.048-2.33-2.339-2.33c-1.29,0-2.34,1.044-2.34,2.33s1.047,2.327,2.34,2.327c0.486,0,0.938-0.146,1.311-0.4l0.763,0.768
		c0.087,0.086,0.21,0.141,0.344,0.141c0.27,0,0.488-0.216,0.488-0.486c0-0.132-0.056-0.252-0.145-0.343V8.347L9.108,8.347z
		 M6.346,7.947c-0.893,0-1.614-0.72-1.614-1.61c0-0.89,0.722-1.61,1.614-1.61c0.894,0,1.615,0.72,1.615,1.61
		C7.961,7.228,7.239,7.947,6.346,7.947L6.346,7.947z M4.008,3.659c2.329,0,3.951-0.589,3.951-1.313V1.558
		c0-0.724-1.622-1.313-3.951-1.313c-2.328,0-3.688,0.588-3.688,1.313v0.789C0.32,3.072,1.68,3.659,4.008,3.659L4.008,3.659z
		 M3.445,6.944C1.849,6.885,0.996,6.376,0.507,5.89C0.382,6.013,0.32,6.147,0.32,6.283v1.053c0,0.722,1.36,1.309,3.688,1.309
		c0.235,0,0.462-0.008,0.684-0.019C4.093,8.199,3.583,7.693,3.445,6.944L3.445,6.944L3.445,6.944z M3.482,6.272
		c0-0.694,0.252-1.33,0.663-1.826c-0.052,0-0.1,0-0.149,0c-1.889,0-2.951-0.387-3.489-0.919C0.382,3.652,0.32,3.784,0.32,3.92v1.051
		c0,0.668,1.157,1.219,3.162,1.299V6.272L3.482,6.272z"/>
</g>
</svg>
