<?xml version="1.0" encoding="utf-8"?>
<!-- Generator: Adobe Illustrator 16.0.0, SVG Export Plug-In . SVG Version: 6.00 Build 0)  -->
<!DOCTYPE svg PUBLIC "-//W3C//DTD SVG 1.0//EN" "http://www.w3.org/TR/2001/REC-SVG-20010904/DTD/svg10.dtd">
<svg version="1.0" id="图层_1" xmlns="http://www.w3.org/2000/svg" xmlns:xlink="http://www.w3.org/1999/xlink" x="0px" y="0px"
	 width="9.639px" height="9.639px" viewBox="0 0 9.639 9.639" enable-background="new 0 0 9.639 9.639" xml:space="preserve">
<g>
	<path fill-rule="evenodd" clip-rule="evenodd" d="M5.647,6.139H4.051c-0.232,0-0.421-0.188-0.421-0.419V4.056
		c0-0.231,0.188-0.419,0.421-0.419h1.597c0.231,0,0.418,0.188,0.418,0.419V5.72C6.065,5.951,5.879,6.139,5.647,6.139L5.647,6.139z
		 M4.051,3.997c-0.034,0-0.062,0.025-0.062,0.059V5.72c0,0.033,0.027,0.06,0.062,0.06h1.597c0.034,0,0.061-0.027,0.061-0.06V4.056
		c0-0.034-0.026-0.059-0.061-0.059H4.051L4.051,3.997z M5.647,3.062H4.051c-0.232,0-0.421-0.188-0.421-0.418V0.979
		c0-0.231,0.188-0.419,0.421-0.419h1.597c0.231,0,0.418,0.188,0.418,0.419v1.665C6.065,2.874,5.879,3.062,5.647,3.062L5.647,3.062z
		 M4.051,0.919c-0.034,0-0.062,0.027-0.062,0.061v1.665c0,0.032,0.027,0.059,0.062,0.059h1.597c0.034,0,0.061-0.027,0.061-0.059
		V0.979c0-0.033-0.026-0.061-0.061-0.061H4.051L4.051,0.919z M5.647,9.215H4.051c-0.232,0-0.421-0.188-0.421-0.419V7.132
		c0-0.23,0.188-0.418,0.421-0.418h1.597c0.231,0,0.418,0.188,0.418,0.418v1.664C6.065,9.027,5.879,9.215,5.647,9.215L5.647,9.215z
		 M4.051,7.072c-0.034,0-0.062,0.027-0.062,0.06v1.664c0,0.033,0.027,0.061,0.062,0.061h1.597c0.034,0,0.061-0.027,0.061-0.061
		V7.132c0-0.033-0.026-0.06-0.061-0.06H4.051L4.051,7.072z M2.538,6.139H0.94c-0.231,0-0.418-0.188-0.418-0.419V4.056
		c0-0.231,0.187-0.419,0.418-0.419h1.598c0.23,0,0.421,0.188,0.421,0.419V5.72C2.959,5.951,2.769,6.139,2.538,6.139L2.538,6.139z
		 M0.94,3.997c-0.033,0-0.061,0.025-0.061,0.059V5.72c0,0.033,0.027,0.06,0.061,0.06h1.598c0.034,0,0.061-0.027,0.061-0.06V4.056
		c0-0.034-0.026-0.059-0.061-0.059H0.94L0.94,3.997z M2.538,3.062H0.94c-0.231,0-0.418-0.188-0.418-0.418V0.979
		c0-0.231,0.187-0.419,0.418-0.419h1.598c0.23,0,0.421,0.188,0.421,0.419v1.665C2.959,2.874,2.769,3.062,2.538,3.062L2.538,3.062z
		 M0.94,0.919c-0.033,0-0.061,0.027-0.061,0.061v1.665c0,0.032,0.027,0.059,0.061,0.059h1.598c0.034,0,0.061-0.027,0.061-0.059
		V0.979c0-0.033-0.026-0.061-0.061-0.061H0.94L0.94,0.919z M2.538,9.215H0.94c-0.231,0-0.418-0.188-0.418-0.419V7.132
		c0-0.23,0.187-0.418,0.418-0.418h1.598c0.23,0,0.421,0.188,0.421,0.418v1.664C2.959,9.027,2.769,9.215,2.538,9.215L2.538,9.215z
		 M0.94,7.072c-0.033,0-0.061,0.027-0.061,0.06v1.664c0,0.033,0.027,0.061,0.061,0.061h1.598c0.034,0,0.061-0.027,0.061-0.061V7.132
		c0-0.033-0.026-0.06-0.061-0.06H0.94L0.94,7.072z M8.757,6.139H7.158c-0.23,0-0.418-0.188-0.418-0.419V4.056
		c0-0.231,0.188-0.419,0.418-0.419h1.599c0.232,0,0.42,0.188,0.42,0.419V5.72C9.177,5.951,8.989,6.139,8.757,6.139L8.757,6.139z
		 M7.158,3.997c-0.032,0-0.06,0.025-0.06,0.059V5.72c0,0.033,0.027,0.06,0.06,0.06h1.599c0.035,0,0.061-0.027,0.061-0.06V4.056
		c0-0.034-0.025-0.059-0.061-0.059H7.158L7.158,3.997z M8.757,3.062H7.158c-0.23,0-0.418-0.188-0.418-0.418V0.979
		c0-0.231,0.188-0.419,0.418-0.419h1.599c0.232,0,0.42,0.188,0.42,0.419v1.665C9.177,2.874,8.989,3.062,8.757,3.062L8.757,3.062z
		 M7.158,0.919c-0.032,0-0.06,0.027-0.06,0.061v1.665c0,0.032,0.027,0.059,0.06,0.059h1.599c0.035,0,0.061-0.027,0.061-0.059V0.979
		c0-0.033-0.025-0.061-0.061-0.061H7.158L7.158,0.919z M8.757,9.215H7.158c-0.23,0-0.418-0.188-0.418-0.419V7.132
		c0-0.23,0.188-0.418,0.418-0.418h1.599c0.232,0,0.42,0.188,0.42,0.418v1.664C9.177,9.027,8.989,9.215,8.757,9.215L8.757,9.215z
		 M7.158,7.072c-0.032,0-0.06,0.027-0.06,0.06v1.664c0,0.033,0.027,0.061,0.06,0.061h1.599c0.035,0,0.061-0.027,0.061-0.061V7.132
		c0-0.033-0.025-0.06-0.061-0.06H7.158L7.158,7.072z"/>
</g>
<g>
	<path fill-rule="evenodd" clip-rule="evenodd" fill="#FFFFFF" d="M5.493,5.943H3.897c-0.231,0-0.42-0.188-0.42-0.42V3.859
		c0-0.231,0.188-0.418,0.42-0.418h1.596c0.232,0,0.421,0.187,0.421,0.418v1.664C5.914,5.754,5.726,5.943,5.493,5.943L5.493,5.943z
		 M3.897,3.8c-0.034,0-0.06,0.027-0.06,0.06v1.664c0,0.034,0.025,0.06,0.06,0.06h1.596c0.035,0,0.062-0.026,0.062-0.06V3.859
		c0-0.033-0.026-0.06-0.062-0.06H3.897L3.897,3.8z M5.493,2.866H3.897c-0.231,0-0.42-0.188-0.42-0.419V0.782
		c0-0.23,0.188-0.418,0.42-0.418h1.596c0.232,0,0.421,0.188,0.421,0.418v1.665C5.914,2.678,5.726,2.866,5.493,2.866L5.493,2.866z
		 M3.897,0.723c-0.034,0-0.06,0.027-0.06,0.059v1.665c0,0.033,0.025,0.06,0.06,0.06h1.596c0.035,0,0.062-0.027,0.062-0.06V0.782
		c0-0.032-0.026-0.059-0.062-0.059H3.897L3.897,0.723z M5.493,9.019H3.897c-0.231,0-0.42-0.188-0.42-0.419V6.935
		c0-0.23,0.188-0.418,0.42-0.418h1.596c0.232,0,0.421,0.188,0.421,0.418V8.6C5.914,8.83,5.726,9.019,5.493,9.019L5.493,9.019z
		 M3.897,6.876c-0.034,0-0.06,0.027-0.06,0.059V8.6c0,0.033,0.025,0.06,0.06,0.06h1.596c0.035,0,0.062-0.026,0.062-0.06V6.935
		c0-0.032-0.026-0.059-0.062-0.059H3.897L3.897,6.876z M2.387,5.943h-1.6c-0.232,0-0.419-0.188-0.419-0.42V3.859
		c0-0.231,0.187-0.418,0.419-0.418h1.6c0.229,0,0.418,0.187,0.418,0.418v1.664C2.805,5.754,2.616,5.943,2.387,5.943L2.387,5.943z
		 M0.787,3.8c-0.033,0-0.059,0.027-0.059,0.06v1.664c0,0.034,0.025,0.06,0.059,0.06h1.6c0.031,0,0.059-0.026,0.059-0.06V3.859
		c0-0.033-0.027-0.06-0.059-0.06H0.787L0.787,3.8z M2.387,2.866h-1.6c-0.232,0-0.419-0.188-0.419-0.419V0.782
		c0-0.23,0.187-0.418,0.419-0.418h1.6c0.229,0,0.418,0.188,0.418,0.418v1.665C2.805,2.678,2.616,2.866,2.387,2.866L2.387,2.866z
		 M0.787,0.723c-0.033,0-0.059,0.027-0.059,0.059v1.665c0,0.033,0.025,0.06,0.059,0.06h1.6c0.031,0,0.059-0.027,0.059-0.06V0.782
		c0-0.032-0.027-0.059-0.059-0.059H0.787L0.787,0.723z M2.387,9.019h-1.6c-0.232,0-0.419-0.188-0.419-0.419V6.935
		c0-0.23,0.187-0.418,0.419-0.418h1.6c0.229,0,0.418,0.188,0.418,0.418V8.6C2.805,8.83,2.616,9.019,2.387,9.019L2.387,9.019z
		 M0.787,6.876c-0.033,0-0.059,0.027-0.059,0.059V8.6c0,0.033,0.025,0.06,0.059,0.06h1.6c0.031,0,0.059-0.026,0.059-0.06V6.935
		c0-0.032-0.027-0.059-0.059-0.059H0.787L0.787,6.876z M8.605,5.943h-1.6c-0.231,0-0.418-0.188-0.418-0.42V3.859
		c0-0.231,0.187-0.418,0.418-0.418h1.6c0.23,0,0.418,0.187,0.418,0.418v1.664C9.023,5.754,8.836,5.943,8.605,5.943L8.605,5.943z
		 M7.006,3.8c-0.032,0-0.061,0.027-0.061,0.06v1.664c0,0.034,0.028,0.06,0.061,0.06h1.6c0.033,0,0.059-0.026,0.059-0.06V3.859
		c0-0.033-0.025-0.06-0.059-0.06H7.006L7.006,3.8z M8.605,2.866h-1.6c-0.231,0-0.418-0.188-0.418-0.419V0.782
		c0-0.23,0.187-0.418,0.418-0.418h1.6c0.23,0,0.418,0.188,0.418,0.418v1.665C9.023,2.678,8.836,2.866,8.605,2.866L8.605,2.866z
		 M7.006,0.723c-0.032,0-0.061,0.027-0.061,0.059v1.665c0,0.033,0.028,0.06,0.061,0.06h1.6c0.033,0,0.059-0.027,0.059-0.06V0.782
		c0-0.032-0.025-0.059-0.059-0.059H7.006L7.006,0.723z M8.605,9.019h-1.6c-0.231,0-0.418-0.188-0.418-0.419V6.935
		c0-0.23,0.187-0.418,0.418-0.418h1.6c0.23,0,0.418,0.188,0.418,0.418V8.6C9.023,8.83,8.836,9.019,8.605,9.019L8.605,9.019z
		 M7.006,6.876c-0.032,0-0.061,0.027-0.061,0.059V8.6c0,0.033,0.028,0.06,0.061,0.06h1.6c0.033,0,0.059-0.026,0.059-0.06V6.935
		c0-0.032-0.025-0.059-0.059-0.059H7.006L7.006,6.876z"/>
</g>
</svg>
