<?xml version="1.0" encoding="utf-8"?>
<!-- Generator: Adobe Illustrator 16.0.0, SVG Export Plug-In . SVG Version: 6.00 Build 0)  -->
<!DOCTYPE svg PUBLIC "-//W3C//DTD SVG 1.0//EN" "http://www.w3.org/TR/2001/REC-SVG-20010904/DTD/svg10.dtd">
<svg version="1.0" id="图层_1" xmlns="http://www.w3.org/2000/svg" xmlns:xlink="http://www.w3.org/1999/xlink" x="0px" y="0px"
	 width="9.639px" height="9.639px" viewBox="0 0 9.639 9.639" enable-background="new 0 0 9.639 9.639" xml:space="preserve">
<g>
	<path fill-rule="evenodd" clip-rule="evenodd" d="M9.334,7.826L7.719,6.211C7.517,6.009,7.208,5.971,6.968,6.101L6.662,5.794
		c0.467-0.581,0.743-1.32,0.743-2.122c0-1.895-1.535-3.432-3.428-3.432c-1.896,0-3.431,1.537-3.431,3.432
		c0,1.894,1.534,3.429,3.431,3.429c0.802,0,1.541-0.277,2.121-0.744l0.305,0.306C6.275,6.902,6.312,7.213,6.516,7.415l1.612,1.612
		c0.25,0.252,0.657,0.252,0.907,0L9.334,8.73C9.582,8.48,9.582,8.075,9.334,7.826L9.334,7.826z M1.184,3.672
		c0-1.544,1.248-2.795,2.794-2.795c1.541,0,2.797,1.251,2.797,2.795c0,1.547-1.256,2.792-2.797,2.792
		C2.432,6.465,1.184,5.214,1.184,3.672L1.184,3.672z M4.679,5.369c-1.366,0-2.477-1.109-2.477-2.477
		c0-0.036,0.002-0.072,0.005-0.109C2.029,3.078,1.922,3.419,1.922,3.788c0,1.058,0.856,1.915,1.913,1.915
		c0.408,0,0.787-0.128,1.097-0.347C4.852,5.366,4.765,5.369,4.679,5.369L4.679,5.369z"/>
</g>
<g>
	<path fill-rule="evenodd" clip-rule="evenodd" fill="#FFFFFF" d="M8.984,7.826L7.368,6.211C7.167,6.009,6.857,5.971,6.617,6.101
		L6.314,5.794c0.465-0.581,0.741-1.32,0.741-2.122c0-1.895-1.535-3.432-3.427-3.432c-1.896,0-3.433,1.537-3.433,3.432
		c0,1.894,1.537,3.429,3.433,3.429c0.803,0,1.539-0.277,2.122-0.744l0.304,0.306c-0.131,0.239-0.092,0.549,0.11,0.751l1.613,1.612
		c0.249,0.252,0.659,0.252,0.907,0L8.984,8.73C9.234,8.48,9.234,8.075,8.984,7.826L8.984,7.826z M0.833,3.672
		c0-1.544,1.248-2.795,2.796-2.795c1.539,0,2.794,1.251,2.794,2.795c0,1.547-1.255,2.792-2.794,2.792
		C2.081,6.465,0.833,5.214,0.833,3.672L0.833,3.672z M4.33,5.369c-1.368,0-2.478-1.109-2.478-2.477c0-0.036,0.003-0.072,0.005-0.109
		C1.677,3.078,1.572,3.419,1.572,3.788c0,1.058,0.858,1.915,1.913,1.915c0.408,0,0.788-0.128,1.099-0.347
		C4.5,5.366,4.415,5.369,4.33,5.369L4.33,5.369z"/>
</g>
</svg>
