<?xml version="1.0" encoding="utf-8"?>
<!-- Generator: Adobe Illustrator 16.0.0, SVG Export Plug-In . SVG Version: 6.00 Build 0)  -->
<!DOCTYPE svg PUBLIC "-//W3C//DTD SVG 1.0//EN" "http://www.w3.org/TR/2001/REC-SVG-20010904/DTD/svg10.dtd">
<svg version="1.0" id="图层_1" xmlns="http://www.w3.org/2000/svg" xmlns:xlink="http://www.w3.org/1999/xlink" x="0px" y="0px"
	 width="9.639px" height="9.639px" viewBox="0 0 9.639 9.639" enable-background="new 0 0 9.639 9.639" xml:space="preserve">
<g>
	<path fill-rule="evenodd" clip-rule="evenodd" d="M8.761,6.601c-0.04,0.272-0.215,0.354-0.334,0.352H2.27
		C2.14,6.955,1.99,6.855,1.952,6.555L1.359,1.252c0,0-0.396,0-0.514,0c-0.22,0-0.398-0.178-0.398-0.398c0-0.221,0.179-0.4,0.398-0.4
		c0.175,0,0.747,0,0.747,0c0.2,0,0.298,0.093,0.359,0.366l0.205,0.889h6.726c0.229,0,0.456,0.226,0.456,0.456L8.761,6.601
		L8.761,6.601z M5.349,2.278L3.736,3.89h0.928v2.264h1.37V3.89h0.927L5.349,2.278L5.349,2.278z M2.842,7.18
		c0.252,0,0.454,0.205,0.454,0.458c0,0.251-0.202,0.455-0.454,0.455c-0.253,0-0.458-0.204-0.458-0.455
		C2.384,7.385,2.589,7.18,2.842,7.18L2.842,7.18z M7.856,7.18c0.252,0,0.456,0.205,0.456,0.458c0,0.251-0.204,0.455-0.456,0.455
		c-0.251,0-0.455-0.204-0.455-0.455C7.401,7.385,7.605,7.18,7.856,7.18L7.856,7.18z"/>
</g>
<g>
	<path fill-rule="evenodd" clip-rule="evenodd" fill="#FF650A" d="M8.523,6.417C8.482,6.69,8.307,6.772,8.188,6.769H2.032
		c-0.13,0.003-0.279-0.097-0.317-0.396L1.121,1.07c0,0-0.396,0-0.512,0c-0.222,0-0.399-0.179-0.399-0.399
		c0-0.221,0.178-0.399,0.399-0.399c0.174,0,0.746,0,0.746,0c0.199,0,0.297,0.092,0.36,0.365L1.92,1.525h6.726
		c0.228,0,0.455,0.226,0.455,0.456L8.523,6.417L8.523,6.417z M5.111,2.095L3.499,3.707h0.927V5.97h1.37V3.707h0.928L5.111,2.095
		L5.111,2.095z M2.604,6.998c0.253,0,0.455,0.205,0.455,0.456S2.856,7.909,2.604,7.909c-0.252,0-0.457-0.205-0.457-0.456
		S2.352,6.998,2.604,6.998L2.604,6.998z M7.618,6.998c0.253,0,0.457,0.205,0.457,0.456S7.871,7.909,7.618,7.909
		c-0.252,0-0.455-0.205-0.455-0.456S7.366,6.998,7.618,6.998L7.618,6.998z"/>
</g>
</svg>
