<?xml version="1.0" encoding="utf-8"?>
<!-- Generator: Adobe Illustrator 16.0.0, SVG Export Plug-In . SVG Version: 6.00 Build 0)  -->
<!DOCTYPE svg PUBLIC "-//W3C//DTD SVG 1.0//EN" "http://www.w3.org/TR/2001/REC-SVG-20010904/DTD/svg10.dtd">
<svg version="1.0" id="图层_1" xmlns="http://www.w3.org/2000/svg" xmlns:xlink="http://www.w3.org/1999/xlink" x="0px" y="0px"
	 width="9.639px" height="9.639px" viewBox="0 0 9.639 9.639" enable-background="new 0 0 9.639 9.639" xml:space="preserve">
<g>
	<path fill-rule="evenodd" clip-rule="evenodd" d="M1.499,4.145h5.745L7.25,4.438c0.04-0.002,0.077-0.012,0.117-0.012
		c0.258,0,0.501,0.055,0.733,0.133v-2.44H6.406V0.84H0.37v7.757h5.248c-0.401-0.45-0.653-0.99-0.653-1.654
		c0-0.183,0.021-0.361,0.058-0.535H1.503V5.538h3.872c0.16-0.25,0.365-0.464,0.601-0.639H1.503L1.499,4.145 M1.509,3.541V2.822
		h4.055v0.719H1.509z"/>
	<polygon fill-rule="evenodd" clip-rule="evenodd" points="6.63,0.84 6.63,1.836 8.101,1.836 6.63,0.84 	"/>
	<path fill-rule="evenodd" clip-rule="evenodd" d="M9.281,8.455L8.539,7.697C8.71,7.43,8.811,7.114,8.811,6.772
		c0-0.93-0.735-1.682-1.642-1.682c-0.906,0-1.64,0.752-1.64,1.682c0,0.931,0.734,1.683,1.64,1.683c0.278,0,0.536-0.077,0.765-0.201
		l0.753,0.771L9.281,8.455L9.281,8.455z M6.19,6.772c0-0.554,0.439-1.005,0.98-1.005c0.54,0,0.979,0.451,0.979,1.005
		S7.709,7.777,7.17,7.777C6.629,7.777,6.19,7.326,6.19,6.772L6.19,6.772z"/>
</g>
<g>
	<path fill-rule="evenodd" clip-rule="evenodd" fill="#FFFFFF" d="M1.499,3.931h5.745L7.25,4.225
		c0.04-0.001,0.077-0.013,0.117-0.013c0.258,0,0.501,0.055,0.733,0.134V1.904H6.406V0.625H0.37v7.757h5.248
		C5.217,7.933,4.965,7.393,4.965,6.729c0-0.185,0.021-0.36,0.058-0.535H1.503V5.325h3.872c0.16-0.251,0.365-0.464,0.601-0.641H1.503
		L1.499,3.931 M1.509,3.329v-0.72h4.055v0.72H1.509z"/>
	<polygon fill-rule="evenodd" clip-rule="evenodd" fill="#FFFFFF" points="6.63,0.625 6.63,1.622 8.101,1.622 6.63,0.625 	"/>
	<path fill-rule="evenodd" clip-rule="evenodd" fill="#FFFFFF" d="M9.281,8.241L8.539,7.482C8.71,7.218,8.811,6.901,8.811,6.561
		c0-0.93-0.735-1.683-1.642-1.683c-0.906,0-1.64,0.753-1.64,1.683s0.734,1.681,1.64,1.681c0.278,0,0.536-0.078,0.765-0.202
		l0.753,0.771L9.281,8.241L9.281,8.241z M6.19,6.561c0-0.555,0.439-1.006,0.98-1.006c0.54,0,0.979,0.451,0.979,1.006
		c0,0.553-0.439,1.002-0.979,1.002C6.629,7.563,6.19,7.113,6.19,6.561L6.19,6.561z"/>
</g>
</svg>
