<?xml version="1.0" encoding="utf-8"?>
<!-- Generator: Adobe Illustrator 16.0.0, SVG Export Plug-In . SVG Version: 6.00 Build 0)  -->
<!DOCTYPE svg PUBLIC "-//W3C//DTD SVG 1.0//EN" "http://www.w3.org/TR/2001/REC-SVG-20010904/DTD/svg10.dtd">
<svg version="1.0" id="图层_1" xmlns="http://www.w3.org/2000/svg" xmlns:xlink="http://www.w3.org/1999/xlink" x="0px" y="0px"
	 width="9.639px" height="9.639px" viewBox="0 0 9.639 9.639" enable-background="new 0 0 9.639 9.639" xml:space="preserve">
<g>
	<path fill-rule="evenodd" clip-rule="evenodd" d="M8.786,5.382c-0.715-0.715-1.927-0.715-2.64,0c-0.716,0.712-0.716,1.923,0,2.638
		c0.713,0.713,1.925,0.713,2.64,0C9.555,7.305,9.555,6.094,8.786,5.382L8.786,5.382z M8.179,7.799L7.467,7.085L6.752,7.799
		L6.31,7.359l0.715-0.715L6.31,5.931l0.442-0.441l0.715,0.715l0.712-0.715l0.44,0.441L7.904,6.645l0.715,0.715L8.179,7.799
		L8.179,7.799z"/>
	<path fill-rule="evenodd" clip-rule="evenodd" d="M5.926,8.677H1.307c-0.107,0-0.162-0.053-0.162-0.106V1.149
		c0-0.111,0.055-0.168,0.162-0.168H5.54v1.925c0,0.166,0.111,0.275,0.277,0.275h1.922v0.989c0.22,0.056,0.386,0.11,0.551,0.221
		v-1.21c0-0.109-0.055-0.33-0.386-0.77c-0.165-0.274-0.438-0.551-0.716-0.88C6.916,1.257,6.585,0.981,6.31,0.764
		C5.872,0.489,5.651,0.435,5.54,0.435H1.307c-0.383,0-0.712,0.329-0.712,0.715V8.57c0,0.328,0.329,0.658,0.712,0.658h6.322
		c0.221,0,0.386-0.111,0.496-0.275c-0.275,0.11-0.55,0.164-0.824,0.164C6.752,9.174,6.31,8.953,5.926,8.677L5.926,8.677z
		 M6.091,1.313C6.31,1.479,6.529,1.697,6.806,1.918l0,0c0.275,0.276,0.495,0.494,0.605,0.714h-1.32V1.313L6.091,1.313z"/>
</g>
<g>
	<path fill-rule="evenodd" clip-rule="evenodd" fill="#FF650A" d="M8.561,5.17c-0.716-0.715-1.923-0.715-2.638,0
		c-0.716,0.712-0.716,1.924,0,2.639c0.715,0.712,1.922,0.712,2.638,0C9.329,7.094,9.329,5.882,8.561,5.17L8.561,5.17z M7.955,7.588
		L7.241,6.874L6.525,7.588l-0.439-0.44l0.716-0.714L6.086,5.719l0.439-0.44l0.716,0.715l0.714-0.715l0.44,0.44L7.68,6.434
		l0.716,0.714L7.955,7.588L7.955,7.588z"/>
	<path fill-rule="evenodd" clip-rule="evenodd" fill="#FF650A" d="M5.704,8.466h-4.62c-0.108,0-0.164-0.054-0.164-0.107V0.937
		c0-0.11,0.056-0.166,0.164-0.166h4.234v1.924c0,0.166,0.108,0.276,0.272,0.276h1.925v0.99c0.221,0.053,0.386,0.108,0.551,0.22
		v-1.21c0-0.11-0.057-0.33-0.387-0.771C7.516,1.926,7.241,1.651,6.967,1.321C6.691,1.045,6.36,0.771,6.086,0.553
		c-0.438-0.275-0.659-0.33-0.768-0.33H1.084c-0.384,0-0.714,0.33-0.714,0.714v7.422c0,0.329,0.33,0.658,0.714,0.658h6.321
		c0.22,0,0.386-0.11,0.496-0.275c-0.276,0.11-0.55,0.165-0.825,0.165C6.525,8.962,6.086,8.741,5.704,8.466L5.704,8.466z
		 M5.868,1.101c0.218,0.166,0.437,0.385,0.714,0.606l0,0C6.857,1.982,7.076,2.2,7.187,2.419H5.868V1.101L5.868,1.101z"/>
</g>
</svg>
