<?xml version="1.0" encoding="utf-8"?>
<!-- Generator: Adobe Illustrator 16.0.0, SVG Export Plug-In . SVG Version: 6.00 Build 0)  -->
<!DOCTYPE svg PUBLIC "-//W3C//DTD SVG 1.0//EN" "http://www.w3.org/TR/2001/REC-SVG-20010904/DTD/svg10.dtd">
<svg version="1.0" id="图层_1" xmlns="http://www.w3.org/2000/svg" xmlns:xlink="http://www.w3.org/1999/xlink" x="0px" y="0px"
	 width="9.639px" height="9.639px" viewBox="0 0 9.639 9.639" enable-background="new 0 0 9.639 9.639" xml:space="preserve">
<g>
	<path fill-rule="evenodd" clip-rule="evenodd" d="M9,0.979C8.701,0.892,8.389,1.067,8.302,1.366L8.259,1.521H2.988L2.909,0.886
		C2.873,0.603,2.634,0.393,2.348,0.393H0.935c-0.312,0-0.563,0.251-0.563,0.563c0,0.312,0.252,0.565,0.563,0.565h0.914l0.503,4.025
		c0.037,0.282,0.277,0.495,0.563,0.495h4.801c0.254,0,0.474-0.168,0.544-0.41l1.129-3.955C9.474,1.376,9.301,1.063,9,0.979L9,0.979
		L9,0.979z M4.892,3.78V3.217h1.129V3.78H4.892L4.892,3.78z M6.021,4.346v0.565H4.892V4.346H6.021L6.021,4.346z M4.892,2.651V2.087
		h1.129v0.564H4.892L4.892,2.651z M3.059,2.087h1.268v0.564H3.13L3.059,2.087L3.059,2.087z M3.2,3.217h1.126V3.78H3.271L3.2,3.217
		L3.2,3.217z M3.342,4.346h0.984v0.565H3.413L3.342,4.346L3.342,4.346z M7.289,4.911H6.587V4.346h0.864L7.289,4.911L7.289,4.911
		L7.289,4.911z M7.611,3.78H6.587V3.217h1.187L7.611,3.78L7.611,3.78L7.611,3.78z M7.936,2.651H6.587V2.087h1.509L7.936,2.651
		L7.936,2.651L7.936,2.651z M2.631,7.456c0-0.47,0.381-0.85,0.849-0.85c0.466,0,0.847,0.38,0.847,0.85
		c0,0.466-0.381,0.845-0.847,0.845C3.012,8.301,2.631,7.922,2.631,7.456L2.631,7.456z M6.021,7.456c0-0.47,0.379-0.85,0.849-0.85
		c0.467,0,0.846,0.38,0.846,0.85c0,0.466-0.379,0.845-0.846,0.845C6.399,8.301,6.021,7.922,6.021,7.456L6.021,7.456z"/>
</g>
<g>
	<path fill-rule="evenodd" clip-rule="evenodd" fill="#FFFFFF" d="M8.827,0.777c-0.301-0.088-0.613,0.087-0.7,0.386L8.085,1.319
		H2.814L2.733,0.684C2.699,0.4,2.459,0.188,2.176,0.188H0.762c-0.312,0-0.565,0.254-0.565,0.566S0.45,1.319,0.762,1.319h0.911
		l0.506,4.024C2.213,5.626,2.454,5.84,2.74,5.84h4.802c0.251,0,0.473-0.167,0.543-0.411l1.13-3.955
		C9.301,1.174,9.126,0.86,8.827,0.777L8.827,0.777L8.827,0.777z M4.717,3.578V3.015h1.131v0.563H4.717L4.717,3.578z M5.848,4.144
		v0.565H4.717V4.144H5.848L5.848,4.144z M4.717,2.448V1.883h1.131v0.565H4.717L4.717,2.448z M2.885,1.883h1.268v0.565H2.955
		L2.885,1.883L2.885,1.883z M3.026,3.015h1.126v0.563H3.097L3.026,3.015L3.026,3.015z M3.168,4.144h0.984v0.565H3.238L3.168,4.144
		L3.168,4.144z M7.113,4.709H6.411V4.144h0.866L7.116,4.709H7.113L7.113,4.709z M7.438,3.578H6.411V3.015h1.189L7.438,3.578
		L7.438,3.578L7.438,3.578z M7.761,2.448h-1.35V1.883h1.512L7.761,2.448L7.761,2.448L7.761,2.448z M2.457,7.251
		c0-0.468,0.38-0.847,0.848-0.847s0.848,0.379,0.848,0.847c0,0.469-0.38,0.848-0.848,0.848S2.457,7.72,2.457,7.251L2.457,7.251z
		 M5.848,7.251c0-0.468,0.378-0.847,0.847-0.847c0.468,0,0.848,0.379,0.848,0.847c0,0.469-0.38,0.848-0.848,0.848
		C6.226,8.099,5.848,7.72,5.848,7.251L5.848,7.251z"/>
</g>
</svg>
