<?xml version="1.0" encoding="utf-8"?>
<!-- Generator: Adobe Illustrator 16.0.0, SVG Export Plug-In . SVG Version: 6.00 Build 0)  -->
<!DOCTYPE svg PUBLIC "-//W3C//DTD SVG 1.0//EN" "http://www.w3.org/TR/2001/REC-SVG-20010904/DTD/svg10.dtd">
<svg version="1.0" id="图层_1" xmlns="http://www.w3.org/2000/svg" xmlns:xlink="http://www.w3.org/1999/xlink" x="0px" y="0px"
	 width="9.639px" height="9.639px" viewBox="0 0 9.639 9.639" enable-background="new 0 0 9.639 9.639" xml:space="preserve">
<g>
	<path fill-rule="evenodd" clip-rule="evenodd" d="M7.674,0.543H2.178c-0.909,0-1.647,0.738-1.647,1.648v5.495
		c0,0.912,0.738,1.649,1.647,1.649h5.496c0.912,0,1.649-0.737,1.649-1.649V2.191C9.323,1.281,8.586,0.543,7.674,0.543L7.674,0.543z
		 M8.224,7.687c0,0.306-0.244,0.551-0.55,0.551H2.178c-0.304,0-0.55-0.245-0.55-0.551V2.191c0-0.305,0.246-0.551,0.55-0.551h5.496
		c0.306,0,0.55,0.246,0.55,0.551V7.687L8.224,7.687z"/>
	<polygon fill-rule="evenodd" clip-rule="evenodd" points="2.729,2.741 3.827,2.741 3.827,3.84 2.729,3.84 2.729,2.741 	"/>
	<polygon fill-rule="evenodd" clip-rule="evenodd" points="2.729,4.39 3.827,4.39 3.827,5.489 2.729,5.489 2.729,4.39 	"/>
	<polygon fill-rule="evenodd" clip-rule="evenodd" points="2.729,6.039 3.827,6.039 3.827,7.139 2.729,7.139 2.729,6.039 	"/>
	<polygon fill-rule="evenodd" clip-rule="evenodd" points="4.377,2.741 5.477,2.741 5.477,3.84 4.377,3.84 4.377,2.741 	"/>
	<polygon fill-rule="evenodd" clip-rule="evenodd" points="4.377,4.39 5.477,4.39 5.477,5.489 4.377,5.489 4.377,4.39 	"/>
	<polygon fill-rule="evenodd" clip-rule="evenodd" points="4.377,6.039 5.477,6.039 5.477,7.139 4.377,7.139 4.377,6.039 	"/>
	<polygon fill-rule="evenodd" clip-rule="evenodd" points="6.026,2.741 7.126,2.741 7.126,3.84 6.026,3.84 6.026,2.741 	"/>
	<polygon fill-rule="evenodd" clip-rule="evenodd" points="6.026,4.39 7.126,4.39 7.126,5.489 6.026,5.489 6.026,4.39 	"/>
	<polygon fill-rule="evenodd" clip-rule="evenodd" points="6.026,6.039 7.126,6.039 7.126,7.139 6.026,7.139 6.026,6.039 	"/>
</g>
<g>
	<path fill-rule="evenodd" clip-rule="evenodd" fill="#FFFFFF" d="M7.459,0.303H1.963c-0.909,0-1.647,0.738-1.647,1.649v5.495
		c0,0.911,0.738,1.648,1.647,1.648h5.496c0.912,0,1.649-0.737,1.649-1.648V1.952C9.108,1.041,8.371,0.303,7.459,0.303L7.459,0.303z
		 M8.009,7.447c0,0.305-0.244,0.551-0.55,0.551H1.963c-0.304,0-0.55-0.246-0.55-0.551V1.952c0-0.306,0.246-0.551,0.55-0.551h5.496
		c0.306,0,0.55,0.245,0.55,0.551V7.447L8.009,7.447z"/>
	<polygon fill-rule="evenodd" clip-rule="evenodd" fill="#FFFFFF" points="2.514,2.502 3.612,2.502 3.612,3.6 2.514,3.6 
		2.514,2.502 	"/>
	<polygon fill-rule="evenodd" clip-rule="evenodd" fill="#FFFFFF" points="2.514,4.149 3.612,4.149 3.612,5.249 2.514,5.249 
		2.514,4.149 	"/>
	<polygon fill-rule="evenodd" clip-rule="evenodd" fill="#FFFFFF" points="2.514,5.799 3.612,5.799 3.612,6.898 2.514,6.898 
		2.514,5.799 	"/>
	<polygon fill-rule="evenodd" clip-rule="evenodd" fill="#FFFFFF" points="4.162,2.502 5.262,2.502 5.262,3.6 4.162,3.6 
		4.162,2.502 	"/>
	<polygon fill-rule="evenodd" clip-rule="evenodd" fill="#FFFFFF" points="4.162,4.149 5.262,4.149 5.262,5.249 4.162,5.249 
		4.162,4.149 	"/>
	<polygon fill-rule="evenodd" clip-rule="evenodd" fill="#FFFFFF" points="4.162,5.799 5.262,5.799 5.262,6.898 4.162,6.898 
		4.162,5.799 	"/>
	<polygon fill-rule="evenodd" clip-rule="evenodd" fill="#FFFFFF" points="5.812,2.502 6.911,2.502 6.911,3.6 5.812,3.6 
		5.812,2.502 	"/>
	<polygon fill-rule="evenodd" clip-rule="evenodd" fill="#FFFFFF" points="5.812,4.149 6.911,4.149 6.911,5.249 5.812,5.249 
		5.812,4.149 	"/>
	<polygon fill-rule="evenodd" clip-rule="evenodd" fill="#FFFFFF" points="5.812,5.799 6.911,5.799 6.911,6.898 5.812,6.898 
		5.812,5.799 	"/>
</g>
</svg>
