<?xml version="1.0" encoding="utf-8"?>
<!-- Generator: Adobe Illustrator 16.0.0, SVG Export Plug-In . SVG Version: 6.00 Build 0)  -->
<!DOCTYPE svg PUBLIC "-//W3C//DTD SVG 1.0//EN" "http://www.w3.org/TR/2001/REC-SVG-20010904/DTD/svg10.dtd">
<svg version="1.0" id="图层_1" xmlns="http://www.w3.org/2000/svg" xmlns:xlink="http://www.w3.org/1999/xlink" x="0px" y="0px"
	 width="9.639px" height="9.639px" viewBox="0 0 9.639 9.639" enable-background="new 0 0 9.639 9.639" xml:space="preserve">
<g>
	<path fill-rule="evenodd" clip-rule="evenodd" d="M7.239,4.688c-0.68,0-1.231,0.553-1.231,1.232c0,0.68,0.552,1.231,1.231,1.231
		c0.349,0,0.66-0.148,0.884-0.382V5.07C7.899,4.836,7.588,4.688,7.239,4.688z"/>
	<path fill-rule="evenodd" clip-rule="evenodd" d="M5.598,5.919c0-0.908,0.735-1.642,1.642-1.642c0.333,0,0.624,0.124,0.884,0.294
		V3.257c0-0.308-0.248-0.557-0.558-0.557H6.457V1.59c0-0.306-0.25-0.554-0.555-0.554H0.903c-0.307,0-0.555,0.248-0.555,0.554v4.999
		c0,0.307,0.248,0.556,0.555,0.556h1.111v1.108c0,0.309,0.25,0.557,0.555,0.557h4.996c0.31,0,0.558-0.248,0.558-0.557V7.281
		c-0.257,0.17-0.556,0.281-0.884,0.281C6.333,7.563,5.598,6.826,5.598,5.919z M2.015,3.257v3.331H0.903V1.59h4.999v1.111H2.569
		C2.265,2.701,2.015,2.95,2.015,3.257z"/>
	<path fill-rule="evenodd" clip-rule="evenodd" d="M9.436,7.824l-0.9-0.898c0.217-0.277,0.346-0.626,0.346-1.006
		c0-0.575-0.312-1.055-0.758-1.348V5.07C8.335,5.292,8.47,5.589,8.47,5.919c0,0.33-0.135,0.627-0.347,0.849v0.513
		c0.038-0.025,0.084-0.037,0.12-0.066l0.902,0.9c0.04,0.041,0.094,0.061,0.146,0.061c0.05,0,0.104-0.02,0.144-0.061
		C9.517,8.033,9.517,7.904,9.436,7.824z"/>
</g>
<g>
	<path fill-rule="evenodd" clip-rule="evenodd" fill="#FFFFFF" d="M7.033,4.481c-0.68,0-1.232,0.553-1.232,1.231
		c0,0.68,0.553,1.231,1.232,1.231c0.348,0,0.66-0.149,0.883-0.382V4.863C7.693,4.63,7.381,4.481,7.033,4.481z"/>
	<path fill-rule="evenodd" clip-rule="evenodd" fill="#FFFFFF" d="M5.392,5.713c0-0.908,0.733-1.642,1.642-1.642
		c0.333,0,0.624,0.123,0.883,0.293V3.051c0-0.307-0.246-0.556-0.557-0.556H6.252V1.383c0-0.306-0.25-0.554-0.555-0.554h-5
		c-0.308,0-0.554,0.248-0.554,0.554v4.999c0,0.308,0.246,0.556,0.554,0.556h1.111v1.109c0,0.307,0.249,0.557,0.554,0.557h4.997
		c0.311,0,0.557-0.25,0.557-0.557V7.075C7.659,7.244,7.361,7.355,7.033,7.355C6.125,7.355,5.392,6.62,5.392,5.713z M1.809,3.051
		v3.331H0.697V1.383h5v1.111H2.362C2.058,2.495,1.809,2.744,1.809,3.051z"/>
	<path fill-rule="evenodd" clip-rule="evenodd" fill="#FFFFFF" d="M9.23,7.617L8.33,6.72c0.215-0.277,0.346-0.627,0.346-1.007
		c0-0.575-0.313-1.055-0.76-1.348v0.499c0.213,0.223,0.346,0.519,0.346,0.85c0,0.33-0.133,0.628-0.346,0.849v0.513
		C7.955,7.05,8,7.038,8.037,7.008l0.902,0.9C8.98,7.949,9.034,7.971,9.084,7.971c0.052,0,0.105-0.021,0.146-0.063
		C9.31,7.828,9.31,7.697,9.23,7.617z"/>
</g>
</svg>
