<?xml version="1.0" encoding="utf-8"?>
<!-- Generator: Adobe Illustrator 16.0.0, SVG Export Plug-In . SVG Version: 6.00 Build 0)  -->
<!DOCTYPE svg PUBLIC "-//W3C//DTD SVG 1.0//EN" "http://www.w3.org/TR/2001/REC-SVG-20010904/DTD/svg10.dtd">
<svg version="1.0" id="图层_1" xmlns="http://www.w3.org/2000/svg" xmlns:xlink="http://www.w3.org/1999/xlink" x="0px" y="0px"
	 width="9.639px" height="9.639px" viewBox="0 0 9.639 9.639" enable-background="new 0 0 9.639 9.639" xml:space="preserve">
<g>
	<path fill-rule="evenodd" clip-rule="evenodd" d="M7.095,2.183L7.095,2.183z"/>
	<polygon fill-rule="evenodd" clip-rule="evenodd" points="4.638,5.512 4.267,5.33 4.448,5.703 4.638,5.512 	"/>
	<path fill-rule="evenodd" clip-rule="evenodd" d="M9.188,0.616C9.082,0.511,8.94,0.451,8.789,0.451c0,0-2.57,0-2.926,0
		c-0.416,0-0.718,0.06-1.017,0.358c-0.445,0.445-4.23,4.228-4.269,4.267C0.472,5.182,0.413,5.322,0.413,5.474
		c0,0.149,0.059,0.292,0.165,0.397l3.35,3.347c0.105,0.104,0.248,0.165,0.398,0.165s0.293-0.061,0.397-0.165
		c0.041-0.04,4.043-4.037,4.271-4.266c0.297-0.297,0.358-0.648,0.359-1.086c0-0.423,0-2.852,0-2.852
		C9.354,0.864,9.294,0.723,9.188,0.616L9.188,0.616z M4.072,6.951c-0.033,0.154-0.13,0.313-0.291,0.474
		c-0.212,0.21-0.482,0.3-0.815,0.268L3.03,7.307c0.254,0.036,0.431,0.003,0.534-0.1C3.626,7.146,3.66,7.085,3.669,7.022
		C3.675,6.966,3.665,6.926,3.643,6.9C3.574,6.834,3.378,6.838,3.049,6.907c-0.398,0.098-0.645,0.098-0.743,0
		C2.222,6.823,2.187,6.712,2.201,6.573C2.226,6.414,2.315,6.26,2.469,6.108c0.198-0.195,0.46-0.286,0.784-0.271L3.197,6.222
		C2.948,6.199,2.778,6.232,2.686,6.325c-0.04,0.041-0.063,0.083-0.073,0.128C2.604,6.498,2.613,6.535,2.647,6.567
		c0.047,0.046,0.249,0.03,0.604-0.048c0.377-0.082,0.621-0.068,0.732,0.041C4.078,6.656,4.108,6.785,4.072,6.951L4.072,6.951z
		 M5.351,5.855l-0.42-0.2L4.59,5.997L4.796,6.41L4.454,6.75L3.605,5.007l0.342-0.341l1.744,0.849L5.351,5.855L5.351,5.855z
		 M5.852,5.354L4.555,4.056l0.341-0.341l1.08,1.08l0.66-0.66l0.218,0.218L5.852,5.354L5.852,5.354z M7.133,4.07L5.836,2.775
		l0.98-0.979l0.218,0.218L6.395,2.65l0.353,0.353l0.407-0.407l0.217,0.218L6.964,3.22l0.293,0.293l0.639-0.638l0.218,0.218
		L7.133,4.07L7.133,4.07z M8.511,1.946C8.426,2.032,8.315,2.079,8.195,2.079c-0.119,0-0.232-0.047-0.317-0.13
		C7.793,1.862,7.747,1.751,7.747,1.634c0-0.12,0.047-0.232,0.133-0.317c0.083-0.085,0.196-0.132,0.315-0.132
		c0.12,0,0.23,0.047,0.316,0.132C8.686,1.489,8.686,1.772,8.511,1.946L8.511,1.946z"/>
</g>
<g>
	<path fill-rule="evenodd" clip-rule="evenodd" fill="#FFFFFF" d="M6.966,1.986L6.966,1.986z"/>
	<polygon fill-rule="evenodd" clip-rule="evenodd" fill="#FFFFFF" points="4.51,5.316 4.138,5.135 4.319,5.508 4.51,5.316 	"/>
	<path fill-rule="evenodd" clip-rule="evenodd" fill="#FFFFFF" d="M9.06,0.42C8.954,0.315,8.812,0.256,8.661,0.256
		c0,0-2.571,0-2.927,0c-0.416,0-0.718,0.06-1.018,0.358C4.273,1.06,0.487,4.842,0.45,4.881C0.342,4.985,0.285,5.127,0.285,5.277
		S0.342,5.57,0.45,5.675l3.348,3.347c0.107,0.105,0.249,0.165,0.4,0.165c0.148,0,0.292-0.06,0.397-0.165
		c0.041-0.04,4.04-4.037,4.271-4.265C9.163,4.46,9.224,4.107,9.226,3.67c0-0.423,0-2.852,0-2.852C9.226,0.668,9.165,0.527,9.06,0.42
		L9.06,0.42z M3.943,6.755C3.911,6.908,3.814,7.068,3.651,7.229c-0.21,0.21-0.481,0.3-0.814,0.269L2.901,7.11
		c0.253,0.036,0.432,0.003,0.533-0.099C3.496,6.951,3.53,6.889,3.538,6.827C3.546,6.77,3.536,6.729,3.515,6.705
		C3.446,6.637,3.25,6.64,2.919,6.712c-0.397,0.096-0.644,0.096-0.741,0C2.094,6.627,2.059,6.515,2.073,6.376
		C2.097,6.217,2.187,6.063,2.34,5.913C2.537,5.714,2.8,5.625,3.125,5.64L3.069,6.025c-0.25-0.022-0.421,0.012-0.514,0.104
		C2.518,6.17,2.493,6.212,2.484,6.256C2.474,6.3,2.485,6.338,2.519,6.371c0.048,0.047,0.247,0.031,0.605-0.048
		C3.5,6.242,3.745,6.254,3.854,6.365C3.949,6.46,3.979,6.59,3.943,6.755L3.943,6.755z M5.222,5.659l-0.42-0.2L4.461,5.801
		l0.205,0.413l-0.341,0.34L3.477,4.812L3.817,4.47l1.745,0.848L5.222,5.659L5.222,5.659z M5.723,5.157L4.424,3.86L4.766,3.52
		L5.848,4.6l0.659-0.66l0.218,0.218L5.723,5.157L5.723,5.157z M7.005,3.875L5.708,2.579L6.687,1.6l0.218,0.218L6.266,2.454
		l0.352,0.354l0.408-0.409l0.218,0.219l-0.41,0.407l0.296,0.293L7.767,2.68l0.217,0.218L7.005,3.875L7.005,3.875z M8.381,1.751
		C8.296,1.837,8.186,1.883,8.064,1.883c-0.118,0-0.231-0.046-0.315-0.13c-0.085-0.086-0.13-0.198-0.13-0.316S7.666,1.205,7.75,1.121
		c0.083-0.085,0.196-0.132,0.314-0.132c0.121,0,0.231,0.047,0.319,0.132C8.557,1.294,8.557,1.576,8.381,1.751L8.381,1.751z"/>
</g>
</svg>
