<?xml version="1.0" encoding="utf-8"?>
<!-- Generator: Adobe Illustrator 16.0.0, SVG Export Plug-In . SVG Version: 6.00 Build 0)  -->
<!DOCTYPE svg PUBLIC "-//W3C//DTD SVG 1.0//EN" "http://www.w3.org/TR/2001/REC-SVG-20010904/DTD/svg10.dtd">
<svg version="1.0" id="图层_1" xmlns="http://www.w3.org/2000/svg" xmlns:xlink="http://www.w3.org/1999/xlink" x="0px" y="0px"
	 width="9.639px" height="9.639px" viewBox="0 0 9.639 9.639" enable-background="new 0 0 9.639 9.639" xml:space="preserve">
<g>
	<path fill-rule="evenodd" clip-rule="evenodd" d="M8.196,2.998L8.196,2.998C8.256,2.872,8.29,2.74,8.29,2.604V2.036
		c0-0.942-1.526-1.705-3.409-1.705c-1.885,0-3.41,0.763-3.41,1.705c0-0.046,0.006-0.093,0.012-0.137
		c-0.703,0.311-1.15,0.768-1.15,1.273v0.57c0,0.526,0.479,0.998,1.232,1.311l0,0C1.506,5.18,1.471,5.31,1.471,5.446v0.568
		c0,0.201,0.07,0.391,0.197,0.568C1.541,6.761,1.471,6.951,1.471,7.151v0.567c0,0.94,1.525,1.706,3.41,1.706
		c1.883,0,3.409-0.766,3.409-1.706V7.151c0-0.204-0.075-0.396-0.204-0.578C8.084,6.575,8.084,6.578,8.083,6.578
		c0.096-0.135,0.17-0.275,0.194-0.425c0.704-0.313,1.15-0.767,1.15-1.275V4.31C9.428,3.783,8.948,3.311,8.196,2.998L8.196,2.998z
		 M4.881,0.614c1.842,0,3.125,0.75,3.125,1.421c0,0.671-1.283,1.421-3.125,1.421c-1.844,0-3.127-0.75-3.127-1.421
		C1.754,1.364,3.037,0.614,4.881,0.614L4.881,0.614z M0.617,3.172c0-0.331,0.314-0.68,0.854-0.951v0.382
		c0,0.941,1.525,1.706,3.41,1.706c0.281,0,0.553-0.02,0.813-0.051c-0.521,0.2-1.184,0.335-1.952,0.335
		C1.901,4.593,0.617,3.844,0.617,3.172L0.617,3.172z M8.006,7.151c0,0.671-1.283,1.421-3.125,1.421c-1.844,0-3.127-0.75-3.127-1.421
		c0-0.111,0.047-0.225,0.115-0.337C1.868,6.813,1.867,6.812,1.865,6.812c0.573,0.54,1.709,0.907,3.016,0.907
		c1.308,0,2.436-0.37,3.009-0.911c0,0,0,0-0.002,0C7.957,6.923,8.006,7.037,8.006,7.151L8.006,7.151z M6.833,6.532
		C6.312,6.733,5.649,6.867,4.881,6.867c-1.844,0-3.127-0.749-3.127-1.421c0-0.097,0.034-0.194,0.084-0.292
		c0.277,0.094,0.586,0.167,0.915,0.218c0.426,0.701,1.724,1.21,3.264,1.21c0.282,0,0.556-0.019,0.819-0.051
		C6.835,6.531,6.833,6.532,6.833,6.532L6.833,6.532z M6.017,5.731c-0.729,0-1.365-0.122-1.874-0.303
		C5.744,5.333,7.011,4.689,7.14,3.879C7.526,3.707,7.836,3.494,8.037,3.25c-0.002,0-0.002,0-0.002,0
		c0.688,0.28,1.108,0.68,1.108,1.06C9.144,4.981,7.858,5.731,6.017,5.731L6.017,5.731z M5.487,2.451
		c0-0.063-0.048-0.107-0.143-0.139c-0.096-0.03-0.309-0.071-0.638-0.118C4.411,2.153,4.179,2.112,4.014,2.069
		C3.847,2.029,3.712,1.972,3.607,1.898C3.504,1.825,3.451,1.737,3.451,1.64c0-0.129,0.093-0.245,0.278-0.349
		c0.187-0.103,0.479-0.166,0.877-0.188V0.899h0.538v0.203c0.603,0.03,0.991,0.169,1.168,0.417L5.571,1.645
		C5.426,1.474,5.203,1.388,4.899,1.388c-0.151,0-0.272,0.02-0.366,0.058c-0.09,0.039-0.138,0.084-0.138,0.14S4.44,1.682,4.53,1.712
		C4.616,1.741,4.808,1.778,5.1,1.823c0.319,0.048,0.57,0.093,0.751,0.136C6.032,2,6.178,2.059,6.286,2.133
		c0.107,0.076,0.163,0.164,0.163,0.264c0,0.154-0.112,0.282-0.336,0.384C5.891,2.885,5.567,2.945,5.145,2.963v0.263H4.606V2.963
		c-0.705-0.029-1.142-0.198-1.31-0.502l0.833-0.09C4.208,2.564,4.462,2.66,4.896,2.66c0.203,0,0.353-0.021,0.448-0.062
		C5.439,2.558,5.487,2.508,5.487,2.451L5.487,2.451z"/>
</g>
<g>
	<path fill-rule="evenodd" clip-rule="evenodd" fill="#FF650A" d="M7.972,2.773L7.972,2.773C8.03,2.646,8.065,2.515,8.065,2.379
		V1.811c0-0.941-1.527-1.705-3.41-1.705c-1.884,0-3.409,0.764-3.409,1.705c0-0.046,0.006-0.092,0.013-0.137
		C0.555,1.984,0.106,2.441,0.106,2.947v0.57c0,0.525,0.479,0.998,1.233,1.311l0,0C1.28,4.954,1.246,5.086,1.246,5.221V5.79
		c0,0.201,0.071,0.39,0.197,0.567c-0.126,0.179-0.197,0.369-0.197,0.57v0.567c0,0.941,1.525,1.706,3.409,1.706
		c1.883,0,3.41-0.765,3.41-1.706V6.927c0-0.203-0.075-0.396-0.204-0.578c-0.003,0-0.003,0.003-0.003,0.003
		c0.096-0.134,0.169-0.274,0.193-0.425C8.756,5.616,9.203,5.16,9.203,4.654v-0.57C9.203,3.558,8.724,3.086,7.972,2.773L7.972,2.773z
		 M4.655,0.389c1.843,0,3.127,0.75,3.127,1.421c0,0.671-1.284,1.421-3.127,1.421c-1.844,0-3.127-0.75-3.127-1.421
		C1.528,1.139,2.812,0.389,4.655,0.389L4.655,0.389z M0.392,2.947c0-0.33,0.315-0.68,0.854-0.95v0.382
		c0,0.941,1.525,1.705,3.409,1.705c0.282,0,0.554-0.018,0.814-0.05C4.947,4.235,4.285,4.369,3.519,4.369
		C1.676,4.369,0.392,3.619,0.392,2.947L0.392,2.947z M7.782,6.927c0,0.67-1.284,1.422-3.127,1.422c-1.844,0-3.127-0.752-3.127-1.422
		c0-0.11,0.048-0.225,0.115-0.338L1.642,6.586C2.213,7.127,3.35,7.494,4.655,7.494c1.308,0,2.436-0.37,3.009-0.91l0,0
		C7.731,6.697,7.782,6.813,7.782,6.927L7.782,6.927z M6.609,6.307c-0.522,0.2-1.185,0.335-1.954,0.335
		c-1.844,0-3.127-0.749-3.127-1.421c0-0.095,0.034-0.192,0.084-0.291C1.892,5.023,2.2,5.097,2.527,5.147
		c0.427,0.701,1.724,1.21,3.265,1.21c0.281,0,0.556-0.018,0.819-0.05C6.609,6.307,6.609,6.307,6.609,6.307L6.609,6.307z
		 M5.792,5.506c-0.728,0-1.366-0.122-1.875-0.303C5.52,5.107,6.785,4.464,6.914,3.654C7.302,3.482,7.61,3.269,7.812,3.025l0,0
		c0.688,0.279,1.107,0.68,1.107,1.059C8.919,4.757,7.635,5.506,5.792,5.506L5.792,5.506z M5.262,2.226
		c0-0.062-0.048-0.107-0.142-0.139c-0.096-0.03-0.31-0.071-0.639-0.119C4.186,1.928,3.953,1.887,3.788,1.845
		C3.621,1.804,3.487,1.748,3.382,1.673C3.278,1.6,3.227,1.513,3.227,1.416c0-0.129,0.092-0.246,0.278-0.35
		C3.69,0.963,3.982,0.899,4.381,0.877V0.674h0.538v0.204c0.604,0.03,0.991,0.168,1.168,0.418L5.347,1.42
		c-0.146-0.172-0.367-0.257-0.67-0.257c-0.153,0-0.274,0.02-0.366,0.059C4.218,1.259,4.17,1.306,4.17,1.361
		c0,0.056,0.045,0.097,0.135,0.126c0.087,0.029,0.279,0.066,0.569,0.111c0.319,0.047,0.57,0.092,0.751,0.135
		c0.183,0.042,0.328,0.101,0.436,0.175c0.107,0.075,0.163,0.163,0.163,0.263c0,0.154-0.11,0.282-0.334,0.383
		C5.665,2.66,5.343,2.72,4.919,2.739v0.263H4.381V2.739C3.677,2.71,3.239,2.541,3.073,2.237l0.833-0.09
		c0.076,0.193,0.333,0.289,0.765,0.289c0.203,0,0.354-0.021,0.449-0.062C5.214,2.333,5.262,2.283,5.262,2.226L5.262,2.226z"/>
</g>
</svg>
