<?xml version="1.0" encoding="utf-8"?>
<!-- Generator: Adobe Illustrator 16.0.0, SVG Export Plug-In . SVG Version: 6.00 Build 0)  -->
<!DOCTYPE svg PUBLIC "-//W3C//DTD SVG 1.0//EN" "http://www.w3.org/TR/2001/REC-SVG-20010904/DTD/svg10.dtd">
<svg version="1.0" id="图层_1" xmlns="http://www.w3.org/2000/svg" xmlns:xlink="http://www.w3.org/1999/xlink" x="0px" y="0px"
	 width="9.639px" height="9.639px" viewBox="0 0 9.639 9.639" enable-background="new 0 0 9.639 9.639" xml:space="preserve">
<g>
	<path fill-rule="evenodd" clip-rule="evenodd" d="M4.857,6.819c0.146-0.635,0.48-1.073,0.773-1.35
		c1.636-1.449,3.38-0.328,3.38-0.328L8.992,4.213V1.186c0-0.38-0.303-0.687-0.677-0.687H1.113c-0.374,0-0.679,0.307-0.679,0.687
		V8.79c0,0.319,0.22,0.586,0.514,0.661h4.934C5.642,9.304,4.541,8.528,4.857,6.819z M2.562,2.761h4.255
		c0.164,0,0.299,0.132,0.299,0.298s-0.135,0.3-0.299,0.3H2.562c-0.165,0-0.299-0.134-0.299-0.3S2.396,2.761,2.562,2.761z
		 M4.548,5.694H2.617c-0.162,0-0.298-0.135-0.298-0.3c0-0.166,0.136-0.298,0.298-0.298h1.931c0.163,0,0.299,0.132,0.299,0.298
		C4.847,5.56,4.711,5.694,4.548,5.694z"/>
	<path fill-rule="evenodd" clip-rule="evenodd" d="M6.904,6.585c0.013,0.278,0.201,0.468,0.519,0.58L7.394,6.067
		C7.043,6.087,6.896,6.335,6.904,6.585L6.904,6.585L6.904,6.585L6.904,6.585z"/>
	<path fill-rule="evenodd" clip-rule="evenodd" d="M7.563,7.499l0.028,1.198c0.369-0.029,0.51-0.299,0.51-0.571
		C8.091,7.989,8.081,7.633,7.563,7.499L7.563,7.499L7.563,7.499L7.563,7.499z"/>
	<path fill-rule="evenodd" clip-rule="evenodd" d="M7.405,5.25C6.269,5.279,5.362,6.217,5.39,7.361
		c0.03,1.138,0.968,2.043,2.113,2.013c1.135-0.029,2.042-0.965,2.012-2.111C9.484,6.127,8.54,5.22,7.405,5.25L7.405,5.25L7.405,5.25
		L7.405,5.25z M7.591,8.8l0.013,0.426H7.476L7.465,8.808C7.243,8.816,6.984,8.8,6.716,8.646C6.687,8.558,6.637,8.298,6.577,8.03
		l0.089-0.041c0.091,0.26,0.311,0.671,0.799,0.698L7.432,7.45L7.233,7.361C6.944,7.232,6.677,7.064,6.677,6.696
		c-0.011-0.34,0.219-0.668,0.729-0.728L7.394,5.569h0.129v0.387C7.623,5.948,7.783,5.948,8.12,6.028
		c0.031,0.149,0.06,0.318,0.108,0.577l-0.087,0.04c-0.111-0.32-0.21-0.54-0.607-0.588l0.02,1.146C7.922,7.322,8.35,7.499,8.37,8
		C8.378,8.398,8.101,8.715,7.591,8.8L7.591,8.8L7.591,8.8L7.591,8.8z"/>
</g>
<g>
	<path fill-rule="evenodd" clip-rule="evenodd" fill="#FFFFFF" d="M4.646,6.607c0.146-0.635,0.479-1.073,0.773-1.349
		c1.637-1.449,3.379-0.329,3.379-0.329L8.779,4V0.973c0-0.379-0.303-0.687-0.676-0.687H0.9c-0.373,0-0.677,0.308-0.677,0.687v7.604
		c0,0.321,0.219,0.589,0.513,0.662h4.935C5.43,9.093,4.328,8.314,4.646,6.607z M2.349,2.547h4.255c0.165,0,0.3,0.133,0.3,0.299
		c0,0.166-0.135,0.3-0.3,0.3H2.349c-0.165,0-0.299-0.134-0.299-0.3C2.05,2.681,2.184,2.547,2.349,2.547z M4.334,5.483H2.405
		c-0.163,0-0.297-0.135-0.297-0.302c0-0.164,0.134-0.296,0.297-0.296h1.929c0.164,0,0.299,0.132,0.299,0.296
		C4.633,5.348,4.498,5.483,4.334,5.483z"/>
	<path fill-rule="evenodd" clip-rule="evenodd" fill="#FFFFFF" d="M6.691,6.373C6.704,6.65,6.893,6.842,7.212,6.952l-0.03-1.095
		C6.831,5.875,6.684,6.123,6.691,6.373L6.691,6.373L6.691,6.373L6.691,6.373z"/>
	<path fill-rule="evenodd" clip-rule="evenodd" fill="#FFFFFF" d="M7.352,7.287L7.38,8.484c0.37-0.028,0.506-0.298,0.506-0.569
		C7.879,7.779,7.869,7.42,7.352,7.287L7.352,7.287L7.352,7.287L7.352,7.287z"/>
	<path fill-rule="evenodd" clip-rule="evenodd" fill="#FFFFFF" d="M7.192,5.038C6.057,5.066,5.149,6.005,5.179,7.15
		c0.029,1.136,0.965,2.042,2.112,2.013c1.134-0.03,2.043-0.966,2.012-2.112C9.273,5.914,8.327,5.006,7.192,5.038L7.192,5.038
		L7.192,5.038L7.192,5.038z M7.38,8.587l0.011,0.426H7.262l-0.01-0.417c-0.222,0.01-0.48-0.009-0.75-0.16
		c-0.027-0.09-0.077-0.349-0.137-0.617l0.091-0.039c0.089,0.258,0.308,0.669,0.796,0.696L7.22,7.237L7.021,7.15
		c-0.29-0.129-0.557-0.298-0.557-0.667c-0.009-0.34,0.219-0.669,0.728-0.727L7.182,5.358h0.13v0.386
		c0.1-0.007,0.259-0.007,0.598,0.071c0.03,0.149,0.059,0.319,0.106,0.579L7.93,6.433c-0.112-0.321-0.21-0.54-0.608-0.588l0.02,1.144
		c0.37,0.121,0.797,0.298,0.817,0.799C8.166,8.187,7.886,8.503,7.38,8.587L7.38,8.587L7.38,8.587L7.38,8.587z"/>
</g>
</svg>
