<?xml version="1.0" encoding="utf-8"?>
<!-- Generator: Adobe Illustrator 16.0.0, SVG Export Plug-In . SVG Version: 6.00 Build 0)  -->
<!DOCTYPE svg PUBLIC "-//W3C//DTD SVG 1.0//EN" "http://www.w3.org/TR/2001/REC-SVG-20010904/DTD/svg10.dtd">
<svg version="1.0" id="图层_1" xmlns="http://www.w3.org/2000/svg" xmlns:xlink="http://www.w3.org/1999/xlink" x="0px" y="0px"
	 width="9.639px" height="9.639px" viewBox="0 0 9.639 9.639" enable-background="new 0 0 9.639 9.639" xml:space="preserve">
<g>
	<g>
		<path fill-rule="evenodd" clip-rule="evenodd" d="M4.913,1.055c-2.068,0-3.744,1.675-3.744,3.744c0,2.065,1.676,3.743,3.744,3.743
			c2.067,0,3.743-1.678,3.743-3.743C8.656,2.73,6.98,1.055,4.913,1.055z M5.186,6.976L5.17,7.712L4.538,7.698l0.017-0.717
			C3.972,6.964,3.371,6.822,3.023,6.637l0.251-0.469c0.358,0.179,0.879,0.324,1.441,0.338C5.43,6.521,5.918,6.242,5.927,5.837
			C5.938,5.448,5.551,5.2,4.812,4.969C3.791,4.663,3.166,4.323,3.18,3.708c0.012-0.589,0.616-1.022,1.543-1.107l0.017-0.715
			l0.623,0.014L5.348,2.586C5.95,2.614,6.359,2.736,6.646,2.864L6.387,3.326c-0.211-0.09-0.619-0.255-1.261-0.27
			c-0.775-0.017-1.073,0.302-1.08,0.585C4.038,4.009,4.405,4.202,5.273,4.477c1.028,0.323,1.544,0.7,1.53,1.331
			C6.791,6.368,6.225,6.88,5.186,6.976z"/>
		
			<circle fill-rule="evenodd" clip-rule="evenodd" fill="none" stroke="#000000" stroke-width="0.38" stroke-miterlimit="10" cx="4.913" cy="4.799" r="4.388"/>
	</g>
	<g>
		<path fill-rule="evenodd" clip-rule="evenodd" fill="#FF650A" d="M4.726,0.921c-2.067,0-3.742,1.676-3.742,3.743
			c0,2.068,1.675,3.745,3.742,3.745c2.068,0,3.744-1.677,3.744-3.745C8.47,2.597,6.794,0.921,4.726,0.921z M5.001,6.841L4.984,7.577
			L4.351,7.565l0.018-0.716C3.785,6.831,3.185,6.69,2.837,6.502l0.252-0.469c0.357,0.179,0.879,0.326,1.44,0.338
			c0.714,0.015,1.202-0.265,1.21-0.668c0.012-0.389-0.376-0.638-1.115-0.869C3.605,4.53,2.98,4.189,2.994,3.573
			c0.012-0.588,0.614-1.021,1.543-1.106l0.017-0.716l0.622,0.015L5.161,2.452c0.603,0.028,1.011,0.15,1.3,0.277L6.199,3.192
			c-0.21-0.09-0.617-0.255-1.259-0.27C4.164,2.905,3.866,3.225,3.858,3.507c-0.007,0.368,0.36,0.561,1.229,0.835
			c1.027,0.321,1.543,0.701,1.529,1.33C6.604,6.233,6.039,6.745,5.001,6.841z"/>
		
			<circle fill-rule="evenodd" clip-rule="evenodd" fill="none" stroke="#FF650A" stroke-width="0.38" stroke-miterlimit="10" cx="4.726" cy="4.664" r="4.388"/>
	</g>
</g>
</svg>
