<?xml version="1.0" encoding="utf-8"?>
<!-- Generator: Adobe Illustrator 16.0.0, SVG Export Plug-In . SVG Version: 6.00 Build 0)  -->
<!DOCTYPE svg PUBLIC "-//W3C//DTD SVG 1.0//EN" "http://www.w3.org/TR/2001/REC-SVG-20010904/DTD/svg10.dtd">
<svg version="1.0" id="图层_1" xmlns="http://www.w3.org/2000/svg" xmlns:xlink="http://www.w3.org/1999/xlink" x="0px" y="0px"
	 width="9.639px" height="9.639px" viewBox="0 0 9.639 9.639" enable-background="new 0 0 9.639 9.639" xml:space="preserve">
<g>
	<g>
		<path fill-rule="evenodd" clip-rule="evenodd" d="M6.077,7.458H5.063V6.291h0.255C5.229,6.087,5.161,5.895,5.112,5.702H1.304
			c-0.178,0-0.34-0.023-0.34-0.193V5.307h4.077c-0.004,0-0.008-0.131-0.008-0.188c0-0.127,0.012-0.198,0.031-0.391h-4.1V1.09
			c0-0.074,0.065-0.142,0.115-0.195c0.05-0.053,0.151-0.083,0.225-0.083H7.61c0.075,0,0.192,0.085,0.192,0.278v1.699
			c0.193,0.04,0.387,0.104,0.587,0.184V1.09c0-0.374-0.28-0.867-0.662-0.867H1.304c-0.216,0-0.468,0.11-0.627,0.267
			c-0.159,0.156-0.302,0.377-0.302,0.6v4.43c0,0.44,0.256,0.771,0.929,0.771H3.5v1.167H2.868c-0.073,0-0.138,0.037-0.19,0.09
			c-0.053,0.054-0.08,0.124-0.08,0.197S2.625,7.9,2.678,7.95c0.052,0.051,0.117,0.097,0.19,0.097h3.208
			c0.074,0,0.138-0.043,0.19-0.093s0.08-0.12,0.08-0.194S6.32,7.605,6.267,7.553C6.214,7.501,6.151,7.458,6.077,7.458L6.077,7.458z
			 M4.678,7.458H4.089V6.291h0.589V7.458L4.678,7.458z"/>
		<path fill-rule="evenodd" clip-rule="evenodd" d="M7.415,5.906c-0.404,0-0.733-0.328-0.733-0.733c0-0.404,0.329-0.733,0.733-0.733
			S8.146,4.77,8.146,5.173C8.146,5.578,7.819,5.906,7.415,5.906L7.415,5.906z M7.415,4.832c-0.188,0-0.342,0.153-0.342,0.342
			c0,0.189,0.154,0.342,0.342,0.342c0.188,0,0.342-0.153,0.342-0.342C7.757,4.984,7.603,4.832,7.415,4.832L7.415,4.832z"/>
		<path fill-rule="evenodd" clip-rule="evenodd" d="M7.409,7.265c-0.153,0-0.297-0.018-0.406-0.124
			c-0.11-0.109-0.172-0.233-0.174-0.386C6.78,6.737,6.733,6.723,6.686,6.701C6.579,6.804,6.438,6.869,6.29,6.869
			c-0.002,0-0.003,0-0.006,0c-0.153,0-0.297-0.056-0.407-0.162C5.766,6.599,5.706,6.456,5.704,6.3
			C5.703,6.146,5.76,6.002,5.868,5.892C5.847,5.845,5.826,5.797,5.809,5.75C5.66,5.746,5.52,5.688,5.413,5.583
			C5.302,5.474,5.241,5.329,5.24,5.174s0.058-0.301,0.166-0.412c0.108-0.11,0.252-0.171,0.406-0.173
			c0.019-0.05,0.04-0.099,0.062-0.148c-0.103-0.107-0.16-0.248-0.161-0.398C5.712,3.888,5.771,3.742,5.881,3.631
			c0.224-0.227,0.591-0.229,0.818-0.006C6.744,3.604,6.789,3.586,6.834,3.57c0.005-0.316,0.264-0.571,0.581-0.571
			c0.317,0,0.575,0.255,0.581,0.571c0.048,0.018,0.096,0.037,0.143,0.06c0.226-0.218,0.587-0.218,0.811,0.002
			C9.06,3.74,9.121,3.885,9.123,4.041C9.125,4.194,9.066,4.34,8.959,4.45c0.022,0.046,0.042,0.094,0.06,0.142
			C9.33,4.597,9.586,4.851,9.59,5.166c0.002,0.155-0.056,0.301-0.165,0.413C9.316,5.688,9.171,5.75,9.019,5.752
			c-0.018,0.051-0.039,0.1-0.062,0.149c0.104,0.107,0.162,0.248,0.164,0.397c0,0.155-0.06,0.302-0.168,0.412
			C8.729,6.938,8.364,6.943,8.133,6.72c-0.045,0.022-0.095,0-0.143,0.018C7.984,7.05,7.73,7.265,7.415,7.265
			C7.413,7.265,7.411,7.265,7.409,7.265L7.409,7.265z M6.629,6.268c0.036,0,0.071,0.011,0.102,0.028
			c0.114,0.069,0.236,0.12,0.365,0.153c0.054,0.014,0.099,0.048,0.125,0.098c0.026,0.048,0.031,0.106,0.012,0.157
			C7.224,6.729,7.22,6.749,7.22,6.77c0,0.051,0.021,0.099,0.057,0.133c0.037,0.037,0.076,0.056,0.134,0.056
			c0.104-0.002,0.188-0.087,0.188-0.192c0-0.017-0.005-0.037-0.012-0.06C7.569,6.654,7.574,6.597,7.599,6.549
			C7.625,6.5,7.671,6.465,7.725,6.451C7.854,6.42,7.979,6.369,8.092,6.3C8.139,6.272,8.196,6.265,8.25,6.281
			c0.053,0.016,0.097,0.054,0.12,0.104c0.012,0.022,0.021,0.041,0.035,0.055c0.077,0.074,0.196,0.072,0.269-0.002
			C8.71,6.4,8.729,6.352,8.729,6.302c-0.001-0.05-0.021-0.097-0.057-0.133C8.658,6.157,8.641,6.145,8.621,6.135
			C8.571,6.11,8.532,6.066,8.518,6.014C8.503,5.96,8.51,5.903,8.536,5.857c0.071-0.115,0.122-0.239,0.154-0.37
			c0.014-0.053,0.05-0.099,0.097-0.125c0.05-0.027,0.107-0.032,0.16-0.013C8.97,5.358,8.991,5.362,9.013,5.362
			c0.049,0,0.097-0.021,0.133-0.057C9.179,5.269,9.198,5.221,9.198,5.17C9.196,5.066,9.104,4.988,9.007,4.983
			c-0.02,0.002-0.037,0.004-0.06,0.012c-0.053,0.019-0.11,0.015-0.16-0.012C8.74,4.958,8.704,4.912,8.69,4.859
			C8.658,4.73,8.609,4.607,8.54,4.494C8.512,4.447,8.505,4.39,8.52,4.337c0.017-0.053,0.054-0.097,0.104-0.121
			c0.021-0.01,0.041-0.023,0.055-0.038c0.036-0.036,0.055-0.083,0.055-0.134C8.73,3.994,8.712,3.947,8.674,3.912
			C8.6,3.838,8.48,3.84,8.407,3.915c-0.014,0.012-0.024,0.03-0.033,0.051c-0.025,0.05-0.069,0.088-0.121,0.103
			C8.2,4.085,8.141,4.077,8.096,4.049C7.981,3.979,7.858,3.928,7.73,3.897C7.676,3.884,7.631,3.849,7.604,3.8
			C7.578,3.751,7.574,3.694,7.592,3.642c0.007-0.023,0.012-0.044,0.012-0.063c0-0.104-0.084-0.189-0.189-0.189
			S7.225,3.475,7.225,3.579c0,0.02,0.004,0.04,0.012,0.063C7.255,3.694,7.252,3.751,7.226,3.8C7.199,3.849,7.154,3.884,7.1,3.897
			c-0.126,0.03-0.247,0.08-0.358,0.146C6.694,4.073,6.636,4.08,6.583,4.063C6.531,4.047,6.487,4.01,6.464,3.96
			C6.454,3.937,6.44,3.918,6.427,3.906C6.353,3.832,6.232,3.832,6.159,3.907C6.123,3.943,6.104,3.99,6.104,4.041
			c0,0.05,0.02,0.098,0.057,0.133C6.173,4.187,6.19,4.198,6.212,4.209c0.05,0.023,0.086,0.067,0.103,0.121
			C6.33,4.382,6.322,4.44,6.293,4.487c-0.07,0.114-0.123,0.238-0.154,0.368C6.125,4.909,6.09,4.954,6.041,4.979
			C5.993,5.006,5.935,5.01,5.883,4.992C5.859,4.983,5.841,4.978,5.819,4.979C5.768,4.979,5.72,5,5.685,5.036
			C5.65,5.073,5.63,5.121,5.631,5.171s0.021,0.097,0.057,0.133C5.722,5.339,5.77,5.358,5.82,5.358
			C5.836,5.36,5.858,5.354,5.883,5.346c0.052-0.018,0.109-0.014,0.158,0.014c0.049,0.026,0.083,0.072,0.097,0.125
			c0.031,0.128,0.082,0.252,0.15,0.365c0.028,0.048,0.035,0.105,0.02,0.158C6.291,6.061,6.253,6.104,6.204,6.128
			C6.181,6.139,6.163,6.151,6.148,6.165C6.113,6.201,6.094,6.249,6.095,6.299c0.001,0.051,0.02,0.099,0.057,0.133
			c0.036,0.036,0.09,0.062,0.135,0.055c0.05,0,0.098-0.02,0.133-0.057c0.013-0.012,0.023-0.029,0.034-0.051
			C6.477,6.33,6.521,6.292,6.574,6.277C6.592,6.271,6.611,6.268,6.629,6.268L6.629,6.268z"/>
	</g>
	<g>
		<path fill-rule="evenodd" clip-rule="evenodd" fill="#FF650A" d="M5.937,7.364H4.923V6.196h0.254
			C5.088,5.993,5.021,5.8,4.972,5.607H1.165c-0.179,0-0.341-0.022-0.341-0.192V5.212H4.9c-0.004,0-0.008-0.131-0.008-0.188
			c0-0.127,0.012-0.198,0.032-0.391h-4.1V0.995c0-0.074,0.064-0.142,0.114-0.194C0.988,0.748,1.09,0.717,1.165,0.717H7.47
			c0.074,0,0.191,0.085,0.191,0.278v1.699c0.193,0.041,0.386,0.104,0.59,0.184V0.995c0-0.373-0.282-0.866-0.665-0.866H1.165
			c-0.218,0-0.469,0.11-0.628,0.266c-0.159,0.157-0.302,0.378-0.302,0.6v4.431c0,0.439,0.256,0.77,0.93,0.77H3.36v1.168H2.728
			c-0.074,0-0.138,0.037-0.19,0.09C2.485,7.508,2.458,7.578,2.458,7.651s0.026,0.154,0.079,0.205s0.117,0.096,0.19,0.096h3.208
			c0.074,0,0.137-0.042,0.19-0.092c0.053-0.051,0.08-0.12,0.08-0.194c0-0.075-0.027-0.155-0.08-0.207
			C6.074,7.407,6.011,7.364,5.937,7.364L5.937,7.364z M4.538,7.364H3.948V6.196h0.589V7.364L4.538,7.364z"/>
		<path fill-rule="evenodd" clip-rule="evenodd" fill="#FF650A" d="M7.274,5.813c-0.404,0-0.733-0.329-0.733-0.734
			c0-0.403,0.329-0.732,0.733-0.732s0.733,0.329,0.733,0.732C8.008,5.483,7.679,5.813,7.274,5.813L7.274,5.813z M7.274,4.737
			c-0.189,0-0.343,0.153-0.343,0.341c0,0.189,0.153,0.343,0.343,0.343c0.188,0,0.342-0.154,0.342-0.343
			C7.617,4.89,7.462,4.737,7.274,4.737L7.274,4.737z"/>
		<path fill-rule="evenodd" clip-rule="evenodd" fill="#FF650A" d="M7.269,7.17c-0.153,0-0.297-0.017-0.406-0.125
			c-0.11-0.107-0.172-0.23-0.174-0.384C6.64,6.643,6.593,6.629,6.546,6.607C6.438,6.709,6.298,6.774,6.148,6.774
			c-0.001,0-0.003,0-0.005,0c-0.153,0-0.297-0.055-0.407-0.162c-0.11-0.109-0.172-0.251-0.173-0.406
			C5.562,6.052,5.62,5.908,5.727,5.798C5.706,5.75,5.686,5.703,5.668,5.654C5.52,5.651,5.379,5.593,5.273,5.488
			C5.162,5.38,5.1,5.234,5.099,5.079c0-0.154,0.058-0.301,0.167-0.411c0.107-0.11,0.251-0.172,0.405-0.174
			c0.019-0.05,0.04-0.099,0.063-0.147c-0.103-0.108-0.16-0.248-0.161-0.398c0-0.155,0.059-0.301,0.168-0.412
			C5.964,3.311,6.332,3.308,6.559,3.53c0.044-0.02,0.089-0.039,0.135-0.055c0.005-0.316,0.264-0.572,0.581-0.572
			c0.316,0,0.575,0.255,0.58,0.572c0.048,0.017,0.098,0.038,0.144,0.06c0.226-0.217,0.585-0.217,0.81,0.002
			c0.11,0.109,0.173,0.253,0.175,0.409c0,0.154-0.057,0.299-0.163,0.41C8.841,4.403,8.862,4.45,8.879,4.498
			c0.31,0.004,0.566,0.259,0.57,0.573C9.45,5.227,9.393,5.373,9.283,5.484c-0.108,0.11-0.251,0.172-0.404,0.175
			c-0.019,0.051-0.04,0.1-0.063,0.148c0.104,0.107,0.161,0.248,0.163,0.397c0.002,0.155-0.059,0.302-0.167,0.412
			c-0.225,0.228-0.59,0.232-0.818,0.009c-0.048,0.023-0.096,0-0.146,0.019C7.843,6.956,7.589,7.17,7.274,7.17
			C7.272,7.17,7.271,7.17,7.269,7.17L7.269,7.17z M6.489,6.174c0.036,0,0.071,0.009,0.102,0.028c0.113,0.07,0.236,0.121,0.365,0.153
			C7.009,6.369,7.055,6.403,7.08,6.453C7.107,6.5,7.111,6.559,7.092,6.61C7.083,6.634,7.08,6.655,7.08,6.675
			c0,0.052,0.021,0.099,0.057,0.134c0.037,0.037,0.076,0.057,0.134,0.055c0.105-0.001,0.188-0.087,0.188-0.191
			c0-0.017-0.005-0.038-0.012-0.06C7.429,6.56,7.434,6.502,7.459,6.455c0.026-0.049,0.072-0.084,0.125-0.098
			c0.129-0.031,0.253-0.082,0.367-0.15c0.047-0.028,0.104-0.035,0.158-0.02C8.162,6.203,8.206,6.24,8.229,6.291
			C8.24,6.313,8.252,6.331,8.265,6.345c0.076,0.073,0.196,0.071,0.27-0.002c0.035-0.037,0.054-0.084,0.054-0.135
			S8.567,6.11,8.53,6.075C8.52,6.062,8.503,6.05,8.48,6.04C8.43,6.016,8.392,5.972,8.378,5.919C8.362,5.866,8.37,5.81,8.397,5.763
			c0.071-0.115,0.122-0.239,0.154-0.37C8.563,5.34,8.6,5.294,8.646,5.268c0.05-0.025,0.107-0.03,0.16-0.012
			c0.022,0.008,0.046,0.011,0.064,0.012c0.05,0,0.097-0.021,0.134-0.057C9.038,5.175,9.06,5.127,9.058,5.076
			C9.056,4.972,8.965,4.894,8.866,4.889c-0.02,0.002-0.037,0.004-0.06,0.012C8.754,4.92,8.696,4.916,8.648,4.889
			C8.6,4.864,8.563,4.818,8.55,4.765C8.52,4.636,8.469,4.513,8.399,4.4C8.372,4.353,8.364,4.296,8.382,4.243
			c0.014-0.053,0.05-0.097,0.103-0.121C8.505,4.111,8.523,4.1,8.536,4.085c0.037-0.036,0.056-0.084,0.056-0.134
			C8.59,3.9,8.571,3.853,8.534,3.817C8.459,3.744,8.339,3.746,8.267,3.82C8.253,3.833,8.244,3.85,8.232,3.871
			C8.21,3.921,8.166,3.959,8.113,3.975C8.06,3.991,8.002,3.983,7.954,3.955C7.84,3.885,7.717,3.834,7.589,3.803
			C7.535,3.79,7.49,3.755,7.463,3.706S7.434,3.6,7.451,3.548c0.008-0.023,0.013-0.044,0.013-0.063c0-0.104-0.084-0.189-0.189-0.189
			s-0.19,0.085-0.19,0.189c0,0.02,0.004,0.041,0.013,0.063C7.116,3.6,7.111,3.657,7.085,3.706C7.059,3.755,7.013,3.79,6.959,3.803
			C6.833,3.834,6.712,3.883,6.601,3.95C6.553,3.979,6.496,3.985,6.443,3.969C6.39,3.954,6.347,3.915,6.323,3.865
			C6.313,3.843,6.3,3.825,6.287,3.811C6.212,3.737,6.092,3.738,6.019,3.813C5.983,3.849,5.963,3.896,5.963,3.947
			c0,0.05,0.021,0.098,0.056,0.133c0.013,0.013,0.029,0.024,0.051,0.034c0.05,0.024,0.088,0.068,0.103,0.121
			c0.016,0.053,0.008,0.111-0.021,0.158c-0.07,0.114-0.122,0.238-0.154,0.368C5.985,4.814,5.95,4.86,5.901,4.885
			C5.852,4.912,5.795,4.917,5.743,4.897C5.719,4.889,5.701,4.883,5.679,4.885c-0.051,0-0.099,0.021-0.134,0.057
			C5.509,4.978,5.49,5.026,5.491,5.076c0,0.051,0.021,0.098,0.056,0.134C5.583,5.245,5.629,5.264,5.68,5.264
			c0.017,0.002,0.039-0.003,0.063-0.012C5.795,5.234,5.852,5.238,5.9,5.265C5.949,5.291,5.983,5.336,5.997,5.39
			c0.031,0.128,0.082,0.252,0.15,0.366c0.028,0.047,0.036,0.105,0.02,0.157C6.15,5.967,6.113,6.01,6.063,6.034
			c-0.022,0.01-0.04,0.023-0.054,0.038C5.973,6.106,5.954,6.155,5.954,6.205c0,0.051,0.021,0.098,0.057,0.133
			c0.036,0.036,0.09,0.061,0.134,0.055c0.05,0,0.098-0.021,0.134-0.057c0.012-0.012,0.023-0.03,0.034-0.051
			c0.024-0.05,0.068-0.087,0.121-0.103C6.452,6.177,6.471,6.174,6.489,6.174L6.489,6.174z"/>
	</g>
</g>
</svg>
