<?xml version="1.0" encoding="utf-8"?>
<!-- Generator: Adobe Illustrator 16.0.0, SVG Export Plug-In . SVG Version: 6.00 Build 0)  -->
<!DOCTYPE svg PUBLIC "-//W3C//DTD SVG 1.0//EN" "http://www.w3.org/TR/2001/REC-SVG-20010904/DTD/svg10.dtd">
<svg version="1.0" id="图层_1" xmlns="http://www.w3.org/2000/svg" xmlns:xlink="http://www.w3.org/1999/xlink" x="0px" y="0px"
	 width="9.639px" height="9.639px" viewBox="0 0 9.639 9.639" enable-background="new 0 0 9.639 9.639" xml:space="preserve">
<g>
	<path fill-rule="evenodd" clip-rule="evenodd" d="M8.438,2.671"/>
	<path fill-rule="evenodd" clip-rule="evenodd" d="M9.467,1.863c-0.03-0.16-0.141-0.267-0.272-0.267c-0.002,0-0.003,0-0.004,0H9.178
		c-0.197,0-0.355-0.157-0.355-0.352c0-0.049,0.022-0.114,0.03-0.133C8.916,0.969,8.867,0.795,8.74,0.707L8.729,0.699L8.271,0.443
		L8.255,0.437C8.214,0.417,8.168,0.409,8.12,0.409c-0.096,0-0.194,0.04-0.257,0.105C7.796,0.586,7.656,0.684,7.577,0.684
		S7.36,0.584,7.29,0.511C7.228,0.443,7.131,0.404,7.034,0.404c-0.047,0-0.093,0.007-0.135,0.026L6.888,0.436l-0.48,0.263
		l-0.01,0.008C6.271,0.795,6.222,0.97,6.284,1.111c0.008,0.02,0.031,0.083,0.031,0.133c0,0.194-0.158,0.352-0.352,0.352H5.948
		C5.813,1.595,5.702,1.701,5.672,1.863C5.666,1.887,5.63,2.081,5.63,2.243c0,0.16,0.036,0.356,0.042,0.378
		c0.03,0.159,0.14,0.267,0.272,0.267c0.001,0,0.004,0,0.004,0h0.016c0.193,0,0.352,0.158,0.352,0.352
		c0,0.049-0.023,0.113-0.031,0.133C6.222,3.514,6.271,3.69,6.396,3.779l0.01,0.006l0.452,0.252l0.014,0.007
		c0.042,0.019,0.09,0.029,0.136,0.029c0.1,0,0.197-0.043,0.26-0.112c0.06-0.063,0.208-0.18,0.291-0.18s0.224,0.106,0.294,0.183
		c0.063,0.071,0.163,0.112,0.262,0.112l0,0c0.046,0,0.092-0.008,0.132-0.027l0.483-0.266L8.74,3.779
		C8.867,3.69,8.916,3.516,8.853,3.374c-0.008-0.021-0.03-0.085-0.03-0.134c0-0.194,0.158-0.352,0.355-0.352H9.19
		c0.135,0.001,0.246-0.105,0.276-0.266c0-0.003,0.04-0.212,0.04-0.379C9.507,2.077,9.469,1.872,9.467,1.863L9.467,1.863z M8.4,3.45
		L8.128,3.599C8.099,3.571,8.057,3.536,8.011,3.502C7.855,3.385,7.703,3.327,7.559,3.327c-0.143,0-0.294,0.057-0.447,0.171
		C7.063,3.532,7.024,3.567,6.995,3.593L6.737,3.45c0.016-0.057,0.031-0.132,0.031-0.21c0-0.396-0.287-0.728-0.668-0.793
		c-0.007-0.06-0.016-0.14-0.016-0.204c0-0.064,0.009-0.145,0.016-0.204C6.481,1.972,6.769,1.64,6.769,1.245
		c0-0.077-0.016-0.152-0.031-0.208l0.283-0.155c0.029,0.026,0.072,0.06,0.117,0.093C7.29,1.083,7.438,1.139,7.577,1.139
		s0.286-0.054,0.438-0.161c0.045-0.033,0.086-0.066,0.115-0.092l0.271,0.149C8.386,1.093,8.369,1.167,8.369,1.245
		c0,0.396,0.284,0.728,0.668,0.794c0.01,0.068,0.016,0.144,0.016,0.204c0,0.063-0.007,0.144-0.016,0.204
		C8.653,2.512,8.369,2.844,8.369,3.24C8.369,3.318,8.386,3.391,8.4,3.45L8.4,3.45z"/>
	<path fill-rule="evenodd" clip-rule="evenodd" d="M8.431,7.485c0,0.168-0.138,0.308-0.307,0.308H1.026
		c-0.17,0-0.307-0.14-0.307-0.308V3.19h4.663C5.27,3.077,5.189,2.926,5.156,2.752c-0.002-0.015-0.007-0.038-0.012-0.07H0.72V2.189
		c0-0.169,0.137-0.306,0.307-0.306h4.119c0.004-0.03,0.009-0.053,0.011-0.066c0.032-0.166,0.106-0.312,0.208-0.422H0.875
		c-0.323,0-0.588,0.264-0.588,0.588v5.678c0,0.327,0.265,0.589,0.588,0.589h7.438c0.326,0,0.588-0.262,0.588-0.589V4.255
		L8.431,4.516V7.485L8.431,7.485z"/>
	<path fill-rule="evenodd" clip-rule="evenodd" d="M8.351,1.964c0.005,0.007,0.012,0.014,0.019,0.02
		C8.362,1.977,8.357,1.971,8.351,1.964L8.351,1.964z"/>
	<path fill-rule="evenodd" clip-rule="evenodd" d="M7.569,1.492c-0.414,0-0.75,0.337-0.75,0.75c0,0.413,0.336,0.75,0.75,0.75
		c0.413,0,0.749-0.336,0.749-0.75C8.318,1.829,7.982,1.492,7.569,1.492L7.569,1.492z M7.569,2.537c-0.163,0-0.297-0.133-0.297-0.296
		c0-0.162,0.134-0.295,0.297-0.295c0.162,0,0.295,0.133,0.295,0.295C7.864,2.404,7.731,2.537,7.569,2.537L7.569,2.537z"/>
	<path fill-rule="evenodd" clip-rule="evenodd" d="M2.908,6.614H1.731c-0.194,0-0.351-0.157-0.351-0.349V5.086
		c0-0.192,0.156-0.35,0.351-0.35h1.177c0.191,0,0.349,0.157,0.349,0.35v1.179C3.257,6.457,3.1,6.614,2.908,6.614L2.908,6.614z
		 M1.741,6.254h1.157V5.097H1.741V6.254L1.741,6.254z"/>
	<path fill-rule="evenodd" clip-rule="evenodd" d="M5.203,6.614H4.025c-0.193,0-0.351-0.157-0.351-0.349V5.086
		c0-0.192,0.157-0.35,0.351-0.35h1.178c0.192,0,0.35,0.157,0.35,0.35v1.179C5.553,6.457,5.396,6.614,5.203,6.614L5.203,6.614z
		 M4.034,6.254h1.158V5.097H4.034V6.254L4.034,6.254z"/>
	<path fill-rule="evenodd" clip-rule="evenodd" d="M7.498,6.614H6.32c-0.192,0-0.35-0.157-0.35-0.349V5.086
		c0-0.192,0.157-0.35,0.35-0.35h1.178c0.192,0,0.35,0.157,0.35,0.35v1.179C7.848,6.457,7.69,6.614,7.498,6.614L7.498,6.614z
		 M6.33,6.254h1.158V5.097H6.33V6.254L6.33,6.254z"/>
</g>
<g>
	<path fill-rule="evenodd" clip-rule="evenodd" fill="#FFFFFF" d="M8.291,2.512"/>
	<path fill-rule="evenodd" clip-rule="evenodd" fill="#FFFFFF" d="M9.319,1.705C9.29,1.545,9.181,1.437,9.049,1.437
		c-0.002,0-0.003,0-0.004,0H9.03c-0.197,0-0.356-0.157-0.356-0.352c0-0.048,0.024-0.113,0.032-0.134
		C8.769,0.81,8.72,0.637,8.594,0.548L8.583,0.54L8.124,0.285L8.109,0.278C8.065,0.26,8.021,0.251,7.974,0.251
		c-0.098,0-0.194,0.04-0.258,0.104c-0.068,0.072-0.206,0.17-0.285,0.17S7.215,0.424,7.145,0.353C7.08,0.285,6.984,0.245,6.886,0.245
		c-0.047,0-0.091,0.009-0.135,0.028L6.74,0.277L6.261,0.54L6.252,0.548C6.123,0.637,6.074,0.811,6.137,0.952
		c0.01,0.021,0.03,0.084,0.03,0.134c0,0.194-0.157,0.352-0.351,0.352H5.801C5.665,1.436,5.555,1.542,5.524,1.705
		C5.519,1.727,5.483,1.922,5.483,2.083S5.519,2.44,5.524,2.461c0.03,0.16,0.14,0.267,0.273,0.267c0.001,0,0.003,0,0.003,0h0.016
		c0.193,0,0.351,0.159,0.351,0.353c0,0.049-0.021,0.113-0.03,0.133C6.074,3.355,6.123,3.53,6.25,3.62l0.01,0.006l0.451,0.253
		l0.016,0.007c0.04,0.019,0.086,0.028,0.135,0.028c0.1,0,0.196-0.042,0.261-0.112c0.058-0.063,0.207-0.179,0.29-0.179
		c0.081,0,0.226,0.105,0.293,0.184C7.77,3.877,7.867,3.918,7.968,3.918l0,0c0.047,0,0.09-0.008,0.132-0.026l0.483-0.266L8.594,3.62
		C8.72,3.53,8.769,3.357,8.706,3.215C8.698,3.194,8.674,3.13,8.674,3.081c0-0.194,0.159-0.353,0.356-0.353h0.015
		C9.181,2.729,9.29,2.624,9.319,2.463c0-0.003,0.041-0.213,0.041-0.38C9.36,1.918,9.321,1.712,9.319,1.705L9.319,1.705z
		 M8.252,3.291L7.981,3.439C7.952,3.412,7.909,3.376,7.863,3.342C7.707,3.226,7.557,3.168,7.412,3.168
		c-0.144,0-0.293,0.056-0.447,0.171C6.917,3.373,6.876,3.408,6.848,3.433L6.59,3.291c0.019-0.057,0.032-0.132,0.032-0.209
		c0-0.396-0.286-0.728-0.666-0.794c-0.008-0.061-0.019-0.14-0.019-0.204c0-0.065,0.011-0.144,0.019-0.203
		c0.38-0.066,0.666-0.399,0.666-0.794c0-0.077-0.014-0.151-0.032-0.208l0.282-0.156c0.029,0.026,0.072,0.061,0.119,0.093
		C7.145,0.924,7.29,0.979,7.431,0.979c0.139,0,0.285-0.053,0.437-0.159c0.046-0.033,0.088-0.066,0.117-0.091l0.269,0.148
		c-0.016,0.058-0.03,0.131-0.03,0.209c0,0.396,0.284,0.728,0.665,0.794c0.01,0.069,0.017,0.144,0.017,0.203
		c0,0.064-0.008,0.143-0.017,0.204C8.507,2.353,8.223,2.685,8.223,3.081C8.223,3.159,8.237,3.231,8.252,3.291L8.252,3.291z"/>
	<path fill-rule="evenodd" clip-rule="evenodd" fill="#FFFFFF" d="M8.284,7.327c0,0.168-0.138,0.307-0.307,0.307H0.881
		c-0.172,0-0.309-0.139-0.309-0.307V3.031h4.661c-0.111-0.113-0.19-0.265-0.225-0.438c-0.003-0.015-0.007-0.039-0.013-0.07H0.572
		V2.031c0-0.17,0.137-0.308,0.309-0.308h4.117c0.004-0.03,0.008-0.051,0.011-0.066c0.033-0.166,0.105-0.311,0.208-0.421H0.728
		c-0.322,0-0.587,0.263-0.587,0.588v5.678c0,0.325,0.265,0.589,0.587,0.589h7.44c0.325,0,0.588-0.264,0.588-0.589V4.096l-0.472,0.26
		V7.327L8.284,7.327z"/>
	<path fill-rule="evenodd" clip-rule="evenodd" fill="#FFFFFF" d="M8.204,1.805c0.005,0.007,0.013,0.014,0.019,0.02
		C8.217,1.818,8.212,1.812,8.204,1.805L8.204,1.805z"/>
	<path fill-rule="evenodd" clip-rule="evenodd" fill="#FFFFFF" d="M7.423,1.333c-0.414,0-0.749,0.336-0.749,0.749
		c0,0.414,0.335,0.75,0.749,0.75c0.411,0,0.75-0.336,0.75-0.75C8.173,1.668,7.834,1.333,7.423,1.333L7.423,1.333z M7.423,2.378
		c-0.164,0-0.297-0.133-0.297-0.297c0-0.162,0.133-0.295,0.297-0.295c0.161,0,0.294,0.133,0.294,0.295
		C7.717,2.245,7.584,2.378,7.423,2.378L7.423,2.378z"/>
	<path fill-rule="evenodd" clip-rule="evenodd" fill="#FFFFFF" d="M2.761,6.454H1.585c-0.193,0-0.352-0.156-0.352-0.348V4.928
		c0-0.192,0.158-0.349,0.352-0.349h1.176c0.193,0,0.35,0.156,0.35,0.349v1.178C3.11,6.298,2.954,6.454,2.761,6.454L2.761,6.454z
		 M1.593,6.096h1.158V4.938H1.593V6.096L1.593,6.096z"/>
	<path fill-rule="evenodd" clip-rule="evenodd" fill="#FFFFFF" d="M5.058,6.454H3.879c-0.194,0-0.351-0.156-0.351-0.348V4.928
		c0-0.192,0.156-0.349,0.351-0.349h1.179c0.19,0,0.347,0.156,0.347,0.349v1.178C5.404,6.298,5.248,6.454,5.058,6.454L5.058,6.454z
		 M3.89,6.096h1.157V4.938H3.89V6.096L3.89,6.096z"/>
	<path fill-rule="evenodd" clip-rule="evenodd" fill="#FFFFFF" d="M7.352,6.454H6.173c-0.192,0-0.35-0.156-0.35-0.348V4.928
		c0-0.192,0.157-0.349,0.35-0.349h1.179c0.192,0,0.349,0.156,0.349,0.349v1.178C7.7,6.298,7.544,6.454,7.352,6.454L7.352,6.454z
		 M6.184,6.096h1.159V4.938H6.184V6.096L6.184,6.096z"/>
</g>
</svg>
