<?xml version="1.0" encoding="utf-8"?>
<!-- Generator: Adobe Illustrator 16.0.0, SVG Export Plug-In . SVG Version: 6.00 Build 0)  -->
<!DOCTYPE svg PUBLIC "-//W3C//DTD SVG 1.0//EN" "http://www.w3.org/TR/2001/REC-SVG-20010904/DTD/svg10.dtd">
<svg version="1.0" id="图层_1" xmlns="http://www.w3.org/2000/svg" xmlns:xlink="http://www.w3.org/1999/xlink" x="0px" y="0px"
	 width="9.639px" height="9.639px" viewBox="0 0 9.639 9.639" enable-background="new 0 0 9.639 9.639" xml:space="preserve">
<g>
	<path fill-rule="evenodd" clip-rule="evenodd" d="M3.651,2.455c0,0-0.563-0.54-1.325-0.098C1.644,2.778,1.766,3.55,1.766,3.55
		S0.251,3.845,0.251,5.39c0.034,1.544,1.646,1.559,1.646,1.559l3.21-0.007L3.618,5.597l0.826,0.008L4.443,3.974l1.058-0.01L5.51,5.6
		L6.316,5.61L5.107,6.947l2.719-0.001c0,0,1.501,0.001,1.712-1.468c0.099-1.604-1.452-1.921-1.452-1.921s0.176-2.376-2.002-2.646
		C4.219,0.721,3.651,2.455,3.651,2.455L3.651,2.455z"/>
</g>
<g>
	<path fill-rule="evenodd" clip-rule="evenodd" fill="#FF650A" d="M3.496,2.281c0,0-0.561-0.54-1.322-0.099
		C1.49,2.604,1.611,3.375,1.611,3.375s-1.515,0.296-1.515,1.84c0.034,1.543,1.647,1.56,1.647,1.56l3.21-0.006L3.465,5.421
		l0.826,0.01L4.29,3.797L5.347,3.79l0.01,1.634l0.806,0.014L4.954,6.773l2.718-0.001c0,0,1.502,0.001,1.712-1.468
		c0.099-1.605-1.452-1.921-1.452-1.921s0.177-2.377-2.001-2.647C4.064,0.547,3.496,2.281,3.496,2.281L3.496,2.281z"/>
</g>
</svg>
