<?xml version="1.0" encoding="utf-8"?>
<!-- Generator: Adobe Illustrator 16.0.0, SVG Export Plug-In . SVG Version: 6.00 Build 0)  -->
<!DOCTYPE svg PUBLIC "-//W3C//DTD SVG 1.0//EN" "http://www.w3.org/TR/2001/REC-SVG-20010904/DTD/svg10.dtd">
<svg version="1.0" id="图层_1" xmlns="http://www.w3.org/2000/svg" xmlns:xlink="http://www.w3.org/1999/xlink" x="0px" y="0px"
	 width="9.639px" height="9.531px" viewBox="0 0 9.639 9.531" enable-background="new 0 0 9.639 9.531" xml:space="preserve">
<g>
	<path fill-rule="evenodd" clip-rule="evenodd" d="M3.755,3.452c0,0-0.55-0.528-1.296-0.096C1.792,3.769,1.911,4.522,1.911,4.522
		S0.43,4.812,0.43,6.322c0.033,1.51,1.61,1.524,1.61,1.524L5.18,7.84L3.723,6.524l0.809,0.008L4.53,4.938l1.034-0.01l0.009,1.6
		l0.789,0.011L5.18,7.846l2.659-0.001c0,0,1.468,0.001,1.674-1.436C9.609,4.84,8.093,4.53,8.093,4.53s0.172-2.323-1.958-2.588
		C4.311,1.756,3.755,3.452,3.755,3.452L3.755,3.452z"/>
</g>
<path fill-rule="evenodd" clip-rule="evenodd" fill="#FFFFFF" d="M3.604,3.282c0,0-0.548-0.528-1.293-0.097
	C1.642,3.598,1.76,4.352,1.76,4.352s-1.481,0.29-1.481,1.8C0.313,7.66,1.89,7.677,1.89,7.677l3.14-0.006L3.573,6.353l0.808,0.01
	L4.38,4.765l1.033-0.007l0.01,1.598l0.788,0.014L5.029,7.676l2.658-0.001c0,0,1.469,0.001,1.675-1.436
	C9.458,4.669,7.941,4.36,7.941,4.36s0.173-2.324-1.957-2.589C4.159,1.586,3.604,3.282,3.604,3.282L3.604,3.282z"/>
</svg>
