<?xml version="1.0" encoding="utf-8"?>
<!-- Generator: Adobe Illustrator 16.0.0, SVG Export Plug-In . SVG Version: 6.00 Build 0)  -->
<!DOCTYPE svg PUBLIC "-//W3C//DTD SVG 1.0//EN" "http://www.w3.org/TR/2001/REC-SVG-20010904/DTD/svg10.dtd">
<svg version="1.0" id="图层_1" xmlns="http://www.w3.org/2000/svg" xmlns:xlink="http://www.w3.org/1999/xlink" x="0px" y="0px"
	 width="9.639px" height="9.639px" viewBox="0 0 9.639 9.639" enable-background="new 0 0 9.639 9.639" xml:space="preserve">
<g>
	<path fill-rule="evenodd" clip-rule="evenodd" d="M7.217,3.525c0.016-0.013,0.021-0.034,0.012-0.055
		C7.222,3.45,7.202,3.439,7.182,3.439H5.759l0.003-2.33c0-0.039-0.015-0.078-0.045-0.107C5.688,0.971,5.648,0.956,5.608,0.956H4.215
		c-0.039,0-0.078,0.015-0.108,0.046C4.076,1.031,4.063,1.07,4.063,1.109l0.002,2.33H2.642c-0.02,0-0.039,0.011-0.047,0.031
		C2.586,3.491,2.592,3.513,2.607,3.525l2.199,2.041c0.027,0.026,0.064,0.042,0.105,0.042c0.04,0,0.076-0.016,0.104-0.042
		L7.217,3.525L7.217,3.525L7.217,3.525z"/>
	<path fill-rule="evenodd" clip-rule="evenodd" d="M9.408,6.118L8.028,5.05c-0.077-0.061-0.224-0.11-0.322-0.11H6.908l1.321,1.324
		L6.904,6.263L6.236,7.224H3.58L2.922,6.263L1.609,6.265l1.32-1.325H2.117c-0.1,0-0.244,0.05-0.322,0.11L0.416,6.118
		c-0.079,0.061-0.117,0.187-0.087,0.28l0.55,1.685C0.91,8.178,1.017,8.254,1.115,8.254h7.604c0.099,0,0.204-0.076,0.234-0.171
		l0.541-1.685C9.525,6.305,9.486,6.179,9.408,6.118L9.408,6.118z"/>
</g>
<g>
	<path fill-rule="evenodd" clip-rule="evenodd" fill="#FFFFFF" d="M7.055,3.352C7.068,3.34,7.076,3.317,7.066,3.297
		c-0.006-0.02-0.025-0.033-0.045-0.033H5.598L5.6,0.937c0-0.039-0.014-0.079-0.044-0.109S5.486,0.783,5.447,0.783H4.053
		c-0.039,0-0.078,0.014-0.107,0.044c-0.03,0.03-0.047,0.07-0.047,0.109l0.005,2.327H2.48c-0.021,0-0.041,0.014-0.047,0.033
		C2.425,3.317,2.43,3.34,2.444,3.352l2.202,2.04c0.026,0.026,0.063,0.044,0.103,0.044c0.042,0,0.078-0.018,0.106-0.044L7.055,3.352
		L7.055,3.352L7.055,3.352z"/>
	<path fill-rule="evenodd" clip-rule="evenodd" fill="#FFFFFF" d="M9.246,5.943L7.867,4.877C7.789,4.816,7.645,4.766,7.545,4.766
		H6.746L8.068,6.09L6.742,6.089l-0.667,0.96H3.419l-0.66-0.96L1.447,6.091L2.77,4.766H1.955c-0.099,0-0.244,0.051-0.322,0.111
		L0.254,5.943C0.176,6.004,0.137,6.131,0.167,6.226l0.55,1.684C0.748,8.004,0.855,8.08,0.954,8.08h7.604
		c0.098,0,0.203-0.076,0.233-0.171l0.54-1.684C9.365,6.131,9.325,6.004,9.246,5.943L9.246,5.943z"/>
</g>
</svg>
