<?xml version="1.0" encoding="utf-8"?>
<!-- Generator: Adobe Illustrator 16.0.0, SVG Export Plug-In . SVG Version: 6.00 Build 0)  -->
<!DOCTYPE svg PUBLIC "-//W3C//DTD SVG 1.0//EN" "http://www.w3.org/TR/2001/REC-SVG-20010904/DTD/svg10.dtd">
<svg version="1.0" id="图层_1" xmlns="http://www.w3.org/2000/svg" xmlns:xlink="http://www.w3.org/1999/xlink" x="0px" y="0px"
	 width="9.639px" height="9.639px" viewBox="0 0 9.639 9.639" enable-background="new 0 0 9.639 9.639" xml:space="preserve">
<g>
	<path fill-rule="evenodd" clip-rule="evenodd" stroke="#040000" stroke-width="0.2" stroke-miterlimit="10" d="M0.433,1.528V8.43
		h8.963V1.528H0.433L0.433,1.528 M9.031,8.059H0.85v-6.12h8.182v6.026V8.059 M8.145,3.983H4.616V3.667h3.528V3.983L8.145,3.983
		 M8.145,5.315H4.616V5.001h3.528V5.315L8.145,5.315 M8.145,6.649H4.616V6.333h3.528V6.649L8.145,6.649 M8.145,6.649L8.145,6.649z"
		/>
	<polygon fill-rule="evenodd" clip-rule="evenodd" stroke="#040000" stroke-width="0.2" stroke-miterlimit="10" points="3.831,3.66 
		3.033,5.007 3.729,5.007 3.729,5.248 2.875,5.248 2.875,5.627 3.729,5.627 3.729,5.868 2.875,5.868 2.875,6.662 2.562,6.662 
		2.562,5.868 1.712,5.868 1.712,5.627 2.562,5.627 2.562,5.248 1.712,5.248 1.712,5.007 2.405,5.007 1.6,3.66 1.948,3.66 
		2.724,4.981 3.491,3.66 3.831,3.66 	"/>
</g>
<g>
	<path fill-rule="evenodd" clip-rule="evenodd" fill="#FF650A" stroke="#FF650A" stroke-width="0.2" stroke-miterlimit="10" d="
		M0.243,1.208v6.903h8.963V1.208H0.243L0.243,1.208 M8.842,7.738H0.66v-6.12h8.182v6.028V7.738 M7.955,3.663H4.427V3.347h3.528
		V3.663L7.955,3.663 M7.955,4.996H4.427V4.681h3.528V4.996L7.955,4.996 M7.955,6.329H4.427V6.014h3.528V6.329L7.955,6.329
		 M7.955,6.329L7.955,6.329z"/>
	
		<polygon fill-rule="evenodd" clip-rule="evenodd" fill="#FF650A" stroke="#FF650A" stroke-width="0.2" stroke-miterlimit="10" points="
		3.642,3.34 2.844,4.688 3.54,4.688 3.54,4.928 2.686,4.928 2.686,5.308 3.54,5.308 3.54,5.548 2.686,5.548 2.686,6.342 
		2.372,6.342 2.372,5.548 1.522,5.548 1.522,5.308 2.372,5.308 2.372,4.928 1.522,4.928 1.522,4.688 2.216,4.688 1.41,3.34 
		1.759,3.34 2.534,4.661 3.302,3.34 3.642,3.34 	"/>
</g>
</svg>
