<?xml version="1.0" encoding="utf-8"?>
<!-- Generator: Adobe Illustrator 16.0.0, SVG Export Plug-In . SVG Version: 6.00 Build 0)  -->
<!DOCTYPE svg PUBLIC "-//W3C//DTD SVG 1.0//EN" "http://www.w3.org/TR/2001/REC-SVG-20010904/DTD/svg10.dtd">
<svg version="1.0" id="图层_1" xmlns="http://www.w3.org/2000/svg" xmlns:xlink="http://www.w3.org/1999/xlink" x="0px" y="0px"
	 width="9.639px" height="9.639px" viewBox="0 0 9.639 9.639" enable-background="new 0 0 9.639 9.639" xml:space="preserve">
<g>
	<path fill-rule="evenodd" clip-rule="evenodd" d="M2.604,3.04C2.591,3.056,2.584,3.079,2.591,3.1C2.6,3.12,2.619,3.132,2.641,3.132
		h1.414L4.052,5.543c0,0.042,0.016,0.081,0.046,0.113c0.03,0.031,0.068,0.047,0.107,0.047h1.388c0.039,0,0.078-0.016,0.106-0.047
		c0.033-0.032,0.047-0.071,0.047-0.113L5.742,3.132h1.419c0.021,0,0.041-0.012,0.046-0.032c0.009-0.022,0.002-0.044-0.014-0.06
		L5.002,0.929C4.977,0.901,4.939,0.887,4.899,0.887S4.823,0.901,4.796,0.929L2.604,3.04L2.604,3.04L2.604,3.04L2.604,3.04z"/>
	<path fill-rule="evenodd" clip-rule="evenodd" d="M9.367,6.232L7.992,5.128C7.915,5.065,7.77,5.013,7.669,5.013H6.876l1.323,1.375
		H6.88L6.208,7.379H3.563L2.919,6.383h-1.32l1.318-1.37H2.104c-0.097,0-0.241,0.053-0.321,0.115L0.41,6.232
		C0.333,6.295,0.295,6.428,0.323,6.523l0.549,1.744c0.032,0.097,0.137,0.176,0.235,0.176H8.68c0.1,0,0.204-0.079,0.235-0.176
		l0.537-1.744C9.483,6.428,9.443,6.296,9.367,6.232L9.367,6.232L9.367,6.232z"/>
</g>
<g>
	<path fill-rule="evenodd" clip-rule="evenodd" fill="#FFFFFF" d="M2.465,2.867c-0.013,0.016-0.019,0.039-0.013,0.06
		C2.461,2.947,2.48,2.96,2.502,2.96h1.415L3.915,5.37c0,0.042,0.014,0.081,0.044,0.113C3.99,5.515,4.027,5.53,4.067,5.53h1.387
		c0.039,0,0.08-0.016,0.107-0.047C5.594,5.451,5.608,5.412,5.608,5.37L5.605,2.96h1.417c0.021,0,0.042-0.013,0.046-0.033
		c0.01-0.021,0.002-0.044-0.013-0.06L4.864,0.756C4.838,0.729,4.802,0.714,4.761,0.714c-0.039,0-0.076,0.015-0.104,0.042
		L2.465,2.867L2.465,2.867L2.465,2.867L2.465,2.867z"/>
	<path fill-rule="evenodd" clip-rule="evenodd" fill="#FFFFFF" d="M9.229,6.06L7.854,4.955C7.776,4.894,7.631,4.841,7.53,4.841
		H6.738l1.323,1.373h-1.32L6.07,7.206H3.426L2.78,6.21H1.46l1.318-1.369H1.966c-0.097,0-0.241,0.053-0.32,0.114L0.271,6.06
		C0.195,6.122,0.156,6.255,0.186,6.351l0.549,1.745c0.032,0.096,0.137,0.176,0.234,0.176h7.573c0.099,0,0.204-0.08,0.234-0.176
		l0.538-1.745C9.345,6.255,9.306,6.124,9.229,6.06L9.229,6.06L9.229,6.06z"/>
</g>
</svg>
