<?xml version="1.0" encoding="utf-8"?>
<!-- Generator: Adobe Illustrator 16.0.0, SVG Export Plug-In . SVG Version: 6.00 Build 0)  -->
<!DOCTYPE svg PUBLIC "-//W3C//DTD SVG 1.0//EN" "http://www.w3.org/TR/2001/REC-SVG-20010904/DTD/svg10.dtd">
<svg version="1.0" id="图层_1" xmlns="http://www.w3.org/2000/svg" xmlns:xlink="http://www.w3.org/1999/xlink" x="0px" y="0px"
	 width="9.639px" height="9.639px" viewBox="0 0 9.639 9.639" enable-background="new 0 0 9.639 9.639" xml:space="preserve">
<g>
	<path fill-rule="evenodd" clip-rule="evenodd" d="M7.069,1.302H2.84L0.302,4.824V6.78c0,0.433,0.345,0.783,0.77,0.783H8.76
		c0.424,0,0.77-0.351,0.77-0.783V4.824L7.069,1.302L7.069,1.302z M7.223,4.927L6.564,5.915H3.269L2.61,4.927H0.633l2.306-3.295
		h3.955l2.305,3.295H7.223L7.223,4.927z"/>
	<path fill-rule="evenodd" clip-rule="evenodd" d="M3.599,3.938l0.988-0.658H3.928c0.003-0.006-0.003,0.006,0,0
		c0.165-0.4,0.509-0.659,0.989-0.659c0.573,0,1.317,0.249,1.317,1.317c0,0.661-0.693,0.989-1.317,0.989
		c-0.461,0-0.85-0.325-1.027-0.702C3.887,4.222,3.886,4.217,3.885,4.214L3.582,4.503C3.583,4.507,3.583,4.51,3.586,4.512
		c0,0.001,0.001,0.003,0.001,0.003c0.269,0.443,0.755,0.741,1.33,0.741c0.856,0,1.647-0.332,1.647-1.318
		c0-1.235-0.776-1.646-1.633-1.646c-0.715,0-1.154,0.359-1.332,0.988c-0.003,0.005-0.658-0.006-0.66,0l0,0L3.599,3.938L3.599,3.938z
		"/>
	<polygon fill-rule="evenodd" clip-rule="evenodd" points="4.917,2.949 5.246,2.949 5.246,3.279 4.917,3.279 4.917,2.949 	"/>
	<polygon fill-rule="evenodd" clip-rule="evenodd" points="4.587,3.279 4.917,3.279 4.917,3.609 4.587,3.609 4.587,3.279 	"/>
	<polygon fill-rule="evenodd" clip-rule="evenodd" points="4.917,3.609 5.246,3.609 5.246,3.938 4.917,3.938 4.917,3.609 	"/>
	<polygon fill-rule="evenodd" clip-rule="evenodd" points="5.246,3.938 5.575,3.938 5.575,4.269 5.246,4.269 5.246,3.938 	"/>
</g>
<g>
	<path fill-rule="evenodd" clip-rule="evenodd" fill="#FFFFFF" d="M6.965,1.209H2.737L0.2,4.732v1.956
		c0,0.433,0.344,0.783,0.77,0.783h7.689c0.424,0,0.77-0.351,0.77-0.783V4.732L6.965,1.209L6.965,1.209z M7.119,4.835L6.461,5.823
		H3.166L2.507,4.835H0.53L2.835,1.54h3.956l2.304,3.295H7.119L7.119,4.835z"/>
	<path fill-rule="evenodd" clip-rule="evenodd" fill="#FFFFFF" d="M3.495,3.845l0.989-0.657H3.826c0.002-0.007-0.004,0.006,0,0
		C3.99,2.786,4.334,2.528,4.813,2.528c0.574,0,1.318,0.248,1.318,1.316c0,0.662-0.694,0.99-1.318,0.99
		c-0.461,0-0.849-0.325-1.027-0.703C3.785,4.129,3.784,4.124,3.782,4.121L3.479,4.41c0.001,0.004,0.002,0.008,0.005,0.01
		c0,0.001,0.001,0.003,0.001,0.003C3.753,4.865,4.24,5.164,4.813,5.164c0.856,0,1.648-0.332,1.648-1.319
		c0-1.235-0.777-1.646-1.633-1.646c-0.716,0-1.154,0.358-1.333,0.988c-0.002,0.005-0.657-0.007-0.66,0l0,0L3.495,3.845L3.495,3.845z
		"/>
	<polygon fill-rule="evenodd" clip-rule="evenodd" fill="#FFFFFF" points="4.813,2.857 5.142,2.857 5.142,3.188 4.813,3.188 
		4.813,2.857 	"/>
	<polygon fill-rule="evenodd" clip-rule="evenodd" fill="#FFFFFF" points="4.484,3.188 4.813,3.188 4.813,3.517 4.484,3.517 
		4.484,3.188 	"/>
	<polygon fill-rule="evenodd" clip-rule="evenodd" fill="#FFFFFF" points="4.813,3.517 5.142,3.517 5.142,3.845 4.813,3.845 
		4.813,3.517 	"/>
	<polygon fill-rule="evenodd" clip-rule="evenodd" fill="#FFFFFF" points="5.142,3.845 5.472,3.845 5.472,4.176 5.142,4.176 
		5.142,3.845 	"/>
</g>
</svg>
