<?xml version="1.0" encoding="utf-8"?>
<!-- Generator: Adobe Illustrator 16.0.0, SVG Export Plug-In . SVG Version: 6.00 Build 0)  -->
<!DOCTYPE svg PUBLIC "-//W3C//DTD SVG 1.0//EN" "http://www.w3.org/TR/2001/REC-SVG-20010904/DTD/svg10.dtd">
<svg version="1.0" id="图层_1" xmlns="http://www.w3.org/2000/svg" xmlns:xlink="http://www.w3.org/1999/xlink" x="0px" y="0px"
	 width="9.639px" height="9.639px" viewBox="0 0 9.639 9.639" enable-background="new 0 0 9.639 9.639" xml:space="preserve">
<g>
	<path fill-rule="evenodd" clip-rule="evenodd" d="M6.17,1.804L1.657,1.831c0,0,0.248-0.659,0.679-1.073
		C2.771,0.343,3.388,0.17,3.911,0.17c0.474,0,1.111,0.217,1.51,0.563C5.945,1.19,6.17,1.804,6.17,1.804z"/>
	<path fill-rule="evenodd" clip-rule="evenodd" d="M7.309,7.434L5.812,5.846c0,0-0.407,0.098-0.489,0.091
		C4.783,5.891,4.37,5.685,4.136,5.184C4.062,5.024,4.131,4.698,4.131,4.698s0.599,0.329,0.737,0.358
		c0.181,0.04,0.814-0.637,0.814-0.637L5.328,3.538c0,0,0.339-0.017,0.493,0.071c0.425,0.244,0.615,0.617,0.658,1.096
		c0.01,0.099-0.138,0.588-0.138,0.588l1.611,1.556c0,0,0.739-0.019,0.943,0.102c0.229,0.133,0.61,0.862,0.61,0.862L8.735,7.457
		L8.091,8.056c0,0,0.078,0.721,0.15,0.879c-0.108,0-0.573-0.242-0.794-0.649C7.264,7.947,7.309,7.434,7.309,7.434z"/>
	<path fill-rule="evenodd" clip-rule="evenodd" d="M3.596,8.638c-0.87,0-2.611,0.004-2.611,0.004H0.34c0,0,0.15-1.313,0.591-2.083
		c0.542-0.938,2.58-1.49,2.58-1.49s0.097,0.34,0.275,0.615C3.823,5.74,4.09,6.021,4.339,6.145c0.313,0.154,0.61,0.15,0.61,0.15
		l1.854,1.371l0.207,0.977L6.279,8.64C6.279,8.64,4.49,8.638,3.596,8.638z"/>
	<path fill-rule="evenodd" clip-rule="evenodd" d="M6.17,2.26c0,0-0.118,0.799-0.219,0.8C5.694,3.062,5.007,3.188,4.938,3.488
		C4.896,3.664,5.168,4.269,5.052,4.404c-0.116,0.134-1.027-0.352-1.14-0.286C3.758,4.209,3.58,4.845,3.58,4.845
		S2.951,4.607,2.797,4.533C1.504,3.914,1.657,2.26,1.657,2.26H6.17z"/>
</g>
<g>
	<path fill-rule="evenodd" clip-rule="evenodd" fill="#FFFFFF" d="M5.987,1.766L1.473,1.792c0,0,0.248-0.658,0.679-1.073
		c0.434-0.415,1.051-0.587,1.574-0.587c0.475,0,1.112,0.218,1.511,0.563C5.763,1.152,5.987,1.766,5.987,1.766z"/>
	<path fill-rule="evenodd" clip-rule="evenodd" fill="#FFFFFF" d="M7.125,7.396L5.629,5.807c0,0-0.409,0.098-0.491,0.091
		C4.599,5.853,4.187,5.647,3.952,5.145C3.879,4.986,3.945,4.661,3.945,4.661s0.6,0.329,0.739,0.359
		c0.181,0.038,0.813-0.638,0.813-0.638L5.144,3.5c0,0,0.339-0.017,0.493,0.071c0.423,0.244,0.616,0.617,0.66,1.096
		c0.007,0.099-0.138,0.587-0.138,0.587l1.611,1.556c0,0,0.738-0.019,0.941,0.102C8.94,7.046,9.321,7.774,9.321,7.774l-0.77-0.355
		L7.907,8.017c0,0,0.077,0.722,0.149,0.879c-0.108,0-0.571-0.243-0.794-0.648C7.079,7.91,7.125,7.396,7.125,7.396z"/>
	<path fill-rule="evenodd" clip-rule="evenodd" fill="#FFFFFF" d="M3.411,8.599C2.54,8.599,0.8,8.602,0.8,8.602H0.156
		c0,0,0.149-1.312,0.592-2.082C1.29,5.583,3.326,5.03,3.326,5.03s0.098,0.34,0.276,0.616c0.035,0.055,0.304,0.336,0.553,0.46
		c0.311,0.154,0.61,0.15,0.61,0.15l1.853,1.37l0.207,0.976L6.095,8.6C6.095,8.6,4.307,8.599,3.411,8.599z"/>
	<path fill-rule="evenodd" clip-rule="evenodd" fill="#FFFFFF" d="M5.987,2.222c0,0-0.121,0.799-0.221,0.799
		C5.509,3.024,4.824,3.149,4.753,3.451c-0.042,0.175,0.23,0.78,0.113,0.915C4.751,4.5,3.84,4.014,3.727,4.08
		C3.574,4.171,3.395,4.808,3.395,4.808s-0.627-0.24-0.781-0.313C1.319,3.876,1.473,2.222,1.473,2.222H5.987z"/>
</g>
</svg>
