<?xml version="1.0" encoding="utf-8"?>
<!-- Generator: Adobe Illustrator 16.0.0, SVG Export Plug-In . SVG Version: 6.00 Build 0)  -->
<!DOCTYPE svg PUBLIC "-//W3C//DTD SVG 1.0//EN" "http://www.w3.org/TR/2001/REC-SVG-20010904/DTD/svg10.dtd">
<svg version="1.0" id="图层_1" xmlns="http://www.w3.org/2000/svg" xmlns:xlink="http://www.w3.org/1999/xlink" x="0px" y="0px"
	 width="9.639px" height="9.639px" viewBox="0 0 9.639 9.639" enable-background="new 0 0 9.639 9.639" xml:space="preserve">
<g>
	<path fill-rule="evenodd" clip-rule="evenodd" d="M5.838,8.168c-0.155-0.3-0.234-0.578-0.234-0.809V6.132
		c-0.04-0.009-0.079-0.017-0.119-0.024c0,0-0.316-0.192-0.3-0.593C5.331,5.46,5.65,4.686,5.665,4.541c0,0,0.446-0.351,0.471-0.877
		c0.028-0.525-0.098-0.55-0.098-0.55c0.188-0.573,0.247-2.722-1.133-2.466c-0.229-0.45-1.672-0.804-2.344,0.397
		c-0.334,0.6-0.46,1.417-0.199,2.084C2.354,3.179,2.271,3.081,2.24,3.39C2.211,3.687,2.346,4.113,2.49,4.31
		c0.063,0.083,0.165,0.145,0.236,0.176c0,0,0.088,0.529,0.501,1.028C3.323,5.911,2.93,6.12,2.93,6.12
		c-1.303,0.25-2.5,0.973-2.5,1.757c0,0.056,0,0.604,0,0.604c0,0.849,1.977,1.03,3.758,1.03c0.168,0,0.336-0.003,0.506-0.014
		c0.709-0.013,1.42-0.062,2.001-0.175c-0.057-0.059-0.115-0.119-0.168-0.18C6.235,8.819,5.995,8.482,5.838,8.168L5.838,8.168
		L5.838,8.168z M8.937,5.624c-0.428,0-0.832-0.139-1.154-0.38c-0.323,0.241-0.729,0.38-1.155,0.38c-0.148,0-0.302-0.027-0.459-0.083
		v1.816c0,0.168,0.059,0.377,0.172,0.6c0.119,0.231,0.295,0.481,0.51,0.722c0.192,0.213,0.413,0.42,0.63,0.582
		c0.095,0.071,0.172,0.122,0.232,0.16c0.031,0.017,0.069,0.017,0.099,0c0.063-0.04,0.142-0.096,0.237-0.168
		c0.222-0.167,0.449-0.377,0.645-0.59C8.916,8.421,9.098,8.171,9.219,7.94c0.116-0.22,0.178-0.422,0.178-0.583V5.542
		C9.239,5.597,9.085,5.624,8.937,5.624L8.937,5.624L8.937,5.624z"/>
</g>
<g>
	<path fill-rule="evenodd" clip-rule="evenodd" fill="#FFFFFF" d="M5.649,8.044c-0.155-0.299-0.233-0.58-0.233-0.809V6.008
		c-0.041-0.009-0.08-0.017-0.12-0.024c0,0-0.316-0.192-0.299-0.593c0.146-0.055,0.466-0.829,0.479-0.974c0,0,0.446-0.35,0.472-0.877
		C5.976,3.015,5.85,2.99,5.85,2.99c0.188-0.573,0.248-2.722-1.133-2.466C4.489,0.074,3.045-0.28,2.375,0.921
		c-0.336,0.6-0.462,1.417-0.201,2.084c-0.009,0.049-0.091-0.048-0.122,0.26c-0.029,0.297,0.105,0.723,0.25,0.921
		C2.365,4.27,2.466,4.331,2.538,4.362c0,0,0.089,0.529,0.501,1.029c0.096,0.396-0.298,0.605-0.298,0.605
		c-1.303,0.25-2.5,0.974-2.5,1.756c0,0.058,0,0.605,0,0.605c0,0.85,1.977,1.029,3.758,1.029c0.168,0,0.337-0.001,0.506-0.013
		c0.709-0.013,1.42-0.061,2.001-0.173c-0.057-0.061-0.114-0.12-0.169-0.181C6.047,8.695,5.808,8.359,5.649,8.044L5.649,8.044
		L5.649,8.044z M8.749,5.5c-0.429,0-0.831-0.139-1.155-0.38C7.271,5.362,6.865,5.5,6.438,5.5c-0.148,0-0.302-0.027-0.459-0.083
		v1.816c0,0.169,0.059,0.377,0.173,0.6c0.118,0.231,0.295,0.483,0.509,0.722c0.192,0.214,0.414,0.421,0.63,0.581
		C7.386,9.209,7.463,9.26,7.524,9.298c0.03,0.017,0.068,0.017,0.1,0c0.061-0.04,0.141-0.095,0.235-0.168
		c0.222-0.167,0.45-0.379,0.646-0.59C8.728,8.297,8.909,8.047,9.03,7.815c0.116-0.217,0.178-0.42,0.178-0.582V5.417
		C9.051,5.473,8.897,5.5,8.749,5.5L8.749,5.5L8.749,5.5z"/>
</g>
</svg>
