<?xml version="1.0" encoding="utf-8"?>
<!-- Generator: Adobe Illustrator 16.0.0, SVG Export Plug-In . SVG Version: 6.00 Build 0)  -->
<!DOCTYPE svg PUBLIC "-//W3C//DTD SVG 1.0//EN" "http://www.w3.org/TR/2001/REC-SVG-20010904/DTD/svg10.dtd">
<svg version="1.0" id="图层_1" xmlns="http://www.w3.org/2000/svg" xmlns:xlink="http://www.w3.org/1999/xlink" x="0px" y="0px"
	 width="9.639px" height="9.639px" viewBox="0 0 9.639 9.639" enable-background="new 0 0 9.639 9.639" xml:space="preserve">
<g>
	<path fill-rule="evenodd" clip-rule="evenodd" d="M0.533,0.54c1.462,0,2.908,0,4.38,0c0,2.949,0,5.884,0,8.842
		c-1.451,0-2.904,0-4.38,0C0.533,6.451,0.533,3.513,0.533,0.54L0.533,0.54z M1.046,2.734c0.402,0,0.759,0,1.126,0
		c0-0.375,0-0.725,0-1.115c-0.342,0-0.673-0.006-1.004,0.006C1.125,1.628,1.053,1.719,1.051,1.77
		C1.04,2.085,1.046,2.398,1.046,2.734L1.046,2.734z M3.294,2.754c0.33,0,0.651,0.006,0.972-0.008
		c0.049-0.001,0.133-0.099,0.136-0.155c0.015-0.266,0.016-0.535,0-0.803c-0.004-0.06-0.099-0.16-0.154-0.165
		C3.936,1.608,3.623,1.617,3.294,1.617C3.294,2.005,3.294,2.36,3.294,2.754L3.294,2.754z M2.184,7.181
		c0-0.335,0.008-0.639-0.009-0.941C2.172,6.178,2.063,6.078,1.998,6.073C1.739,6.055,1.479,6.06,1.222,6.072
		C1.16,6.074,1.058,6.148,1.055,6.19C1.042,6.52,1.048,6.848,1.048,7.181C1.444,7.181,1.792,7.181,2.184,7.181L2.184,7.181z
		 M3.298,6.066c0,0.393,0,0.748,0,1.103c0.377,0,0.732,0,1.109,0c0-0.329,0.009-0.634-0.007-0.938
		C4.397,6.175,4.3,6.077,4.239,6.073C3.937,6.057,3.633,6.066,3.298,6.066L3.298,6.066z M2.169,3.849
		c-0.345,0-0.674-0.004-1.004,0.006C1.125,3.856,1.053,3.93,1.051,3.972C1.043,4.301,1.048,4.628,1.048,4.948
		c0.401,0,0.757,0,1.121,0C2.169,4.577,2.169,4.231,2.169,3.849L2.169,3.849z M4.407,3.847c-0.358,0-0.672-0.004-0.983,0.004
		C3.376,3.852,3.291,3.912,3.289,3.946C3.278,4.283,3.282,4.619,3.282,4.971c0.342,0,0.641,0.01,0.933-0.007
		c0.066-0.005,0.181-0.101,0.184-0.162C4.417,4.501,4.407,4.197,4.407,3.847L4.407,3.847z M6.597,7.196c0,0.736,0,1.455,0,2.189
		c-0.366,0-0.694,0-1.052,0c0-1.634,0-3.271,0-4.933c1.263,0,2.526,0,3.815,0c0,1.639,0,3.276,0,4.93c-0.342,0-0.68,0-1.05,0
		c0-0.725,0-1.444,0-2.187C7.737,7.196,7.193,7.196,6.597,7.196L6.597,7.196z M5.532,3.821c0-0.172,0-0.318,0-0.484
		c1.278,0,2.542,0,3.829,0c0,0.158,0,0.31,0,0.484C8.091,3.821,6.826,3.821,5.532,3.821L5.532,3.821z"/>
</g>
<g>
	<path fill-rule="evenodd" clip-rule="evenodd" fill="#FFFFFF" d="M0.362,0.411c1.462,0,2.908,0,4.379,0c0,2.947,0,5.883,0,8.841
		c-1.451,0-2.902,0-4.379,0C0.362,6.32,0.362,3.384,0.362,0.411L0.362,0.411z M0.876,2.605c0.402,0,0.759,0,1.124,0
		c0-0.376,0-0.725,0-1.117c-0.342,0-0.673-0.004-1.003,0.008C0.953,1.497,0.882,1.59,0.881,1.64
		C0.867,1.955,0.876,2.269,0.876,2.605L0.876,2.605z M3.124,2.625c0.33,0,0.651,0.006,0.971-0.008
		c0.05-0.001,0.131-0.099,0.135-0.156c0.016-0.267,0.017-0.536,0-0.804C4.225,1.6,4.132,1.497,4.077,1.495
		C3.766,1.478,3.452,1.486,3.124,1.486C3.124,1.877,3.124,2.232,3.124,2.625L3.124,2.625z M2.012,7.05
		c0-0.334,0.009-0.639-0.008-0.941C2,6.05,1.892,5.947,1.828,5.942C1.569,5.925,1.31,5.928,1.049,5.941
		C0.99,5.943,0.886,6.017,0.885,6.063C0.869,6.391,0.877,6.719,0.877,7.05C1.272,7.05,1.621,7.05,2.012,7.05L2.012,7.05z
		 M3.128,5.937c0,0.394,0,0.749,0,1.102c0.377,0,0.73,0,1.108,0c0-0.326,0.009-0.631-0.009-0.934
		C4.225,6.044,4.127,5.946,4.069,5.942C3.767,5.927,3.462,5.937,3.128,5.937L3.128,5.937z M1.998,3.72
		c-0.346,0-0.676-0.006-1.005,0.005C0.953,3.726,0.882,3.8,0.881,3.844C0.87,4.171,0.877,4.498,0.877,4.818c0.402,0,0.758,0,1.121,0
		C1.998,4.448,1.998,4.102,1.998,3.72L1.998,3.72z M4.236,3.715c-0.357,0-0.672-0.003-0.983,0.008
		C3.205,3.724,3.12,3.78,3.119,3.816C3.106,4.153,3.112,4.49,3.112,4.843c0.342,0,0.638,0.01,0.932-0.009
		C4.111,4.83,4.223,4.732,4.226,4.673C4.246,4.371,4.236,4.066,4.236,3.715L4.236,3.715z M6.427,7.066c0,0.735,0,1.456,0,2.191
		c-0.366,0-0.695,0-1.052,0c0-1.638,0-3.271,0-4.934c1.259,0,2.524,0,3.814,0c0,1.638,0,3.274,0,4.931c-0.343,0-0.681,0-1.052,0
		c0-0.729,0-1.447,0-2.188C7.564,7.066,7.021,7.066,6.427,7.066L6.427,7.066z M5.361,3.69c0-0.171,0-0.315,0-0.482
		c1.278,0,2.542,0,3.829,0c0,0.157,0,0.31,0,0.482C7.92,3.69,6.656,3.69,5.361,3.69L5.361,3.69z"/>
</g>
</svg>
