<?xml version="1.0" encoding="utf-8"?>
<!-- Generator: Adobe Illustrator 16.0.0, SVG Export Plug-In . SVG Version: 6.00 Build 0)  -->
<!DOCTYPE svg PUBLIC "-//W3C//DTD SVG 1.0//EN" "http://www.w3.org/TR/2001/REC-SVG-20010904/DTD/svg10.dtd">
<svg version="1.0" id="图层_1" xmlns="http://www.w3.org/2000/svg" xmlns:xlink="http://www.w3.org/1999/xlink" x="0px" y="0px"
	 width="9.639px" height="9.639px" viewBox="0 0 9.639 9.639" enable-background="new 0 0 9.639 9.639" xml:space="preserve">
<path d="M8.723,3.747c0.007-0.071,0.01-0.143,0.01-0.215c0-1.412-1.144-2.561-2.549-2.561c-0.902,0-1.717,0.464-2.178,1.229
	C3.763,2.09,3.494,2.032,3.223,2.032c-0.914,0-1.693,0.648-1.874,1.536C0.628,3.743,0.137,4.403,0.137,5.231
	c0,0.977,0.69,1.712,1.607,1.712h6.129c0.942,0,1.705-0.767,1.705-1.712C9.578,4.617,9.248,4.052,8.723,3.747z M5.187,5.505
	c-0.698,0-1.265-0.565-1.265-1.261c0-0.075,0.008-0.146,0.021-0.215L3.584,4.314c-0.042,0.043-0.112,0.043-0.155,0
	c-0.042-0.044-0.042-0.112,0-0.155l0.519-0.411c0.021-0.023,0.051-0.033,0.08-0.032c0.029-0.001,0.059,0.009,0.081,0.032
	l0.412,0.411c0.042,0.042,0.042,0.111,0,0.154c-0.044,0.042-0.114,0.042-0.155,0l-0.222-0.22c-0.006,0.048-0.012,0.099-0.012,0.15
	c0,0.579,0.473,1.051,1.055,1.051c0.314,0,0.596-0.14,0.79-0.358l0.164,0.132C5.91,5.335,5.568,5.505,5.187,5.505z M6.838,4.326
	L6.426,4.738C6.404,4.76,6.375,4.771,6.347,4.77c-0.03,0.001-0.06-0.01-0.082-0.031L5.746,4.326c-0.042-0.043-0.042-0.112,0-0.156
	c0.044-0.043,0.114-0.043,0.156,0l0.32,0.256C6.233,4.366,6.24,4.305,6.24,4.243c0-0.581-0.473-1.053-1.054-1.053
	c-0.339,0-0.641,0.16-0.833,0.408L4.19,3.468C4.42,3.171,4.781,2.98,5.187,2.98c0.697,0,1.263,0.565,1.263,1.264
	c0,0.058-0.005,0.116-0.013,0.171l0.245-0.243c0.043-0.045,0.114-0.045,0.156,0C6.88,4.215,6.88,4.283,6.838,4.326z"/>
<path fill="#FFFFFF" d="M8.723,3.583c0.007-0.07,0.01-0.142,0.01-0.215c0-1.411-1.144-2.561-2.549-2.561
	c-0.902,0-1.717,0.466-2.178,1.229c-0.243-0.11-0.512-0.169-0.783-0.169c-0.914,0-1.693,0.649-1.874,1.536
	C0.628,3.579,0.137,4.241,0.137,5.067c0,0.977,0.69,1.713,1.607,1.713h6.129c0.942,0,1.705-0.769,1.705-1.713
	C9.578,4.453,9.248,3.887,8.723,3.583z M5.187,5.341c-0.698,0-1.265-0.564-1.265-1.261c0-0.074,0.008-0.145,0.021-0.214L3.584,4.15
	c-0.042,0.043-0.112,0.043-0.155,0c-0.042-0.044-0.042-0.112,0-0.154l0.519-0.412c0.021-0.021,0.051-0.032,0.08-0.031
	c0.029-0.001,0.059,0.01,0.081,0.031l0.412,0.412c0.042,0.041,0.042,0.11,0,0.153c-0.044,0.043-0.114,0.043-0.155,0L4.144,3.931
	C4.138,3.978,4.132,4.028,4.132,4.08c0,0.579,0.473,1.051,1.055,1.051c0.314,0,0.596-0.139,0.79-0.357l0.164,0.132
	C5.91,5.172,5.568,5.341,5.187,5.341z M6.838,4.162L6.426,4.574C6.404,4.596,6.375,4.607,6.347,4.606
	c-0.03,0.001-0.06-0.011-0.082-0.032L5.746,4.162c-0.042-0.043-0.042-0.111,0-0.155c0.044-0.043,0.114-0.043,0.156,0l0.32,0.255
	C6.233,4.202,6.24,4.141,6.24,4.079c0-0.581-0.473-1.052-1.054-1.052c-0.339,0-0.641,0.16-0.833,0.409L4.19,3.304
	C4.42,3.009,4.781,2.817,5.187,2.817c0.697,0,1.263,0.565,1.263,1.263c0,0.058-0.005,0.116-0.013,0.172l0.245-0.244
	c0.043-0.044,0.114-0.044,0.156,0S6.88,4.119,6.838,4.162z"/>
</svg>
