<?xml version="1.0" encoding="utf-8"?>
<!-- Generator: Adobe Illustrator 16.0.0, SVG Export Plug-In . SVG Version: 6.00 Build 0)  -->
<!DOCTYPE svg PUBLIC "-//W3C//DTD SVG 1.0//EN" "http://www.w3.org/TR/2001/REC-SVG-20010904/DTD/svg10.dtd">
<svg version="1.0" id="图层_1" xmlns="http://www.w3.org/2000/svg" xmlns:xlink="http://www.w3.org/1999/xlink" x="0px" y="0px"
	 width="9.639px" height="9.639px" viewBox="0 0 9.639 9.639" enable-background="new 0 0 9.639 9.639" xml:space="preserve">
<g>
	<g>
		<path fill-rule="evenodd" clip-rule="evenodd" stroke="#040000" stroke-width="0.2" stroke-miterlimit="10" d="M8.088,9.088H1.925
			c-0.567,0-1.027-0.459-1.027-1.027V1.899c0-0.567,0.46-1.027,1.027-1.027h6.163c0.567,0,1.025,0.46,1.025,1.027v6.162
			C9.113,8.629,8.655,9.088,8.088,9.088L8.088,9.088z M8.6,1.899c0-0.284-0.229-0.514-0.512-0.514H1.925
			c-0.282,0-0.512,0.23-0.512,0.514v6.162c0,0.283,0.228,0.514,0.512,0.514h6.163c0.282,0,0.512-0.23,0.512-0.514V1.899L8.6,1.899z
			 M7.317,2.412H2.695c-0.144,0-0.257-0.116-0.257-0.257c0-0.142,0.113-0.256,0.257-0.256h4.622c0.142,0,0.255,0.115,0.255,0.256
			C7.572,2.296,7.459,2.412,7.317,2.412L7.317,2.412z M4.815,3.006C4.868,2.953,4.939,2.929,5.01,2.933
			c0.072-0.003,0.143,0.02,0.195,0.074l1.269,1.536c0.102,0.101,0.102,0.265,0,0.366c-0.101,0.102-0.264,0.102-0.364,0L5.262,3.883
			v3.92c0,0.143-0.113,0.258-0.255,0.258c-0.144,0-0.258-0.115-0.258-0.258V3.892L3.911,4.907c-0.101,0.102-0.265,0.102-0.365,0
			c-0.101-0.101-0.101-0.265,0-0.366L4.815,3.006L4.815,3.006z"/>
	</g>
	<g>
		<path fill-rule="evenodd" clip-rule="evenodd" fill="#FF650A" stroke="#FF650A" stroke-width="0.2" stroke-miterlimit="10" d="
			M7.771,8.814H1.608c-0.567,0-1.026-0.459-1.026-1.027V1.626c0-0.567,0.459-1.027,1.026-1.027h6.163
			c0.567,0,1.026,0.459,1.026,1.027v6.161C8.798,8.355,8.339,8.814,7.771,8.814L7.771,8.814z M8.283,1.626
			c0-0.283-0.229-0.514-0.512-0.514H1.608c-0.282,0-0.512,0.23-0.512,0.514v6.161c0,0.285,0.229,0.516,0.512,0.516h6.163
			c0.283,0,0.512-0.23,0.512-0.516V1.626L8.283,1.626z M7.001,2.14H2.379c-0.143,0-0.256-0.116-0.256-0.257
			c0-0.142,0.113-0.257,0.256-0.257h4.622c0.143,0,0.256,0.115,0.256,0.257C7.257,2.024,7.144,2.14,7.001,2.14L7.001,2.14z
			 M4.499,2.734c0.055-0.053,0.124-0.076,0.195-0.073C4.766,2.658,4.837,2.68,4.89,2.734l1.269,1.537
			c0.102,0.101,0.102,0.264,0,0.365c-0.101,0.101-0.264,0.101-0.364,0L4.947,3.611v3.92c0,0.143-0.113,0.256-0.257,0.256
			c-0.143,0-0.256-0.113-0.256-0.256V3.62l-0.84,1.015c-0.101,0.102-0.264,0.102-0.365,0c-0.099-0.1-0.099-0.265,0-0.366
			L4.499,2.734L4.499,2.734z"/>
	</g>
</g>
</svg>
