<?xml version="1.0" encoding="utf-8"?>
<!-- Generator: Adobe Illustrator 16.0.0, SVG Export Plug-In . SVG Version: 6.00 Build 0)  -->
<!DOCTYPE svg PUBLIC "-//W3C//DTD SVG 1.0//EN" "http://www.w3.org/TR/2001/REC-SVG-20010904/DTD/svg10.dtd">
<svg version="1.0" id="图层_1" xmlns="http://www.w3.org/2000/svg" xmlns:xlink="http://www.w3.org/1999/xlink" x="0px" y="0px"
	 width="9.639px" height="9.639px" viewBox="0 0 9.639 9.639" enable-background="new 0 0 9.639 9.639" xml:space="preserve">
<g>
	<g>
		<path fill-rule="evenodd" clip-rule="evenodd" stroke="#040000" stroke-width="0.2" stroke-miterlimit="10" d="M8.086,0.836H1.785
			c-0.542,0-1.033,0.492-1.033,1.033v6.3c0,0.592,0.491,1.035,1.033,1.035h6.301c0.591,0,1.033-0.492,1.033-1.035v-6.3
			C9.119,1.328,8.677,0.836,8.086,0.836L8.086,0.836z M8.578,8.169c0,0.297-0.246,0.543-0.541,0.543H1.785
			c-0.296,0-0.542-0.246-0.542-0.543v-6.3c0-0.294,0.246-0.542,0.542-0.542h6.301c0.295,0,0.542,0.247,0.542,0.542v6.3H8.578
			L8.578,8.169z"/>
		<path fill-rule="evenodd" clip-rule="evenodd" stroke="#040000" stroke-width="0.2" stroke-miterlimit="10" d="M2.572,7.628h4.726
			c0.148,0,0.246,0.1,0.246,0.246c0,0.148-0.098,0.246-0.246,0.246H2.572c-0.147,0-0.246-0.098-0.246-0.246
			C2.326,7.776,2.425,7.628,2.572,7.628L2.572,7.628z"/>
		<path fill-rule="evenodd" clip-rule="evenodd" stroke="#040000" stroke-width="0.2" stroke-miterlimit="10" d="M5.132,7.038
			c-0.049,0.05-0.147,0.098-0.197,0.098c-0.049,0-0.146,0-0.196-0.098l-1.28-1.575c-0.098-0.098-0.098-0.246,0-0.394
			c0.1-0.099,0.247-0.099,0.395,0l0.837,1.082V2.165c0-0.148,0.099-0.246,0.245-0.246c0.148-0.049,0.246,0.098,0.246,0.246v3.987
			l0.838-1.033c0.098-0.098,0.246-0.098,0.393,0c0.1,0.099,0.1,0.247,0,0.394L5.132,7.038L5.132,7.038z"/>
	</g>
	<g>
		<path fill-rule="evenodd" clip-rule="evenodd" fill="#FF650A" stroke="#FF650A" stroke-width="0.2" stroke-miterlimit="10" d="
			M7.854,0.533H1.553c-0.542,0-1.033,0.492-1.033,1.034v6.3c0,0.592,0.491,1.035,1.033,1.035h6.301c0.591,0,1.033-0.492,1.033-1.035
			v-6.3C8.887,1.025,8.444,0.533,7.854,0.533L7.854,0.533z M8.346,7.866c0,0.297-0.246,0.543-0.541,0.543H1.553
			c-0.296,0-0.542-0.246-0.542-0.543v-6.3c0-0.295,0.246-0.542,0.542-0.542h6.301c0.295,0,0.542,0.247,0.542,0.542v6.3H8.346
			L8.346,7.866z"/>
		<path fill-rule="evenodd" clip-rule="evenodd" fill="#FF650A" stroke="#FF650A" stroke-width="0.2" stroke-miterlimit="10" d="
			M2.341,7.325h4.726c0.147,0,0.246,0.098,0.246,0.246S7.214,7.817,7.066,7.817H2.341c-0.148,0-0.246-0.098-0.246-0.246
			C2.095,7.474,2.192,7.325,2.341,7.325L2.341,7.325z"/>
		<path fill-rule="evenodd" clip-rule="evenodd" fill="#FF650A" stroke="#FF650A" stroke-width="0.2" stroke-miterlimit="10" d="
			M4.899,6.735C4.851,6.784,4.753,6.833,4.703,6.833c-0.049,0-0.147,0-0.197-0.098L3.227,5.16c-0.099-0.098-0.099-0.246,0-0.394
			c0.099-0.098,0.246-0.098,0.394,0l0.838,1.083V1.862c0-0.148,0.098-0.246,0.245-0.246c0.147-0.049,0.246,0.098,0.246,0.246v3.986
			l0.837-1.033c0.099-0.099,0.246-0.099,0.394,0c0.099,0.098,0.099,0.246,0,0.393L4.899,6.735L4.899,6.735z"/>
	</g>
</g>
</svg>
