<?xml version="1.0" encoding="utf-8"?>
<!-- Generator: Adobe Illustrator 16.0.0, SVG Export Plug-In . SVG Version: 6.00 Build 0)  -->
<!DOCTYPE svg PUBLIC "-//W3C//DTD SVG 1.0//EN" "http://www.w3.org/TR/2001/REC-SVG-20010904/DTD/svg10.dtd">
<svg version="1.0" id="图层_1" xmlns="http://www.w3.org/2000/svg" xmlns:xlink="http://www.w3.org/1999/xlink" x="0px" y="0px"
	 width="9.639px" height="9.639px" viewBox="0 0 9.639 9.639" enable-background="new 0 0 9.639 9.639" xml:space="preserve">
<g>
	<path fill-rule="evenodd" clip-rule="evenodd" d="M8.338,6.755H7.346V5.772c0-0.171-0.139-0.31-0.309-0.31
		c-0.172,0-0.311,0.139-0.311,0.31v0.983v0.311c0,0.172,0.138,0.312,0.311,0.312h0.309h0.992c0.17,0,0.311-0.14,0.311-0.312
		C8.648,6.894,8.508,6.755,8.338,6.755L8.338,6.755z"/>
	<path fill-rule="evenodd" clip-rule="evenodd" d="M7.037,4.761c-1.273,0-2.305,1.031-2.305,2.306c0,1.272,1.032,2.305,2.305,2.305
		s2.305-1.032,2.305-2.305C9.342,5.792,8.311,4.761,7.037,4.761L7.037,4.761z M7.037,8.75c-0.931,0-1.686-0.754-1.686-1.684
		c0-0.931,0.754-1.685,1.686-1.685c0.929,0,1.684,0.754,1.684,1.685C8.721,7.996,7.966,8.75,7.037,8.75L7.037,8.75z"/>
	<path fill-rule="evenodd" clip-rule="evenodd" d="M7.037,4.406c0.135,0,0.266,0.011,0.396,0.03L7.71,2.164H7.09L6.814,4.416
		C6.887,4.409,6.961,4.406,7.037,4.406L7.037,4.406z"/>
	<path fill-rule="evenodd" clip-rule="evenodd" d="M4.376,7.106H1.703L1.091,2.164h-0.62l0.719,5.81h0.621l0,0h2.725
		C4.438,7.702,4.382,7.41,4.376,7.106L4.376,7.106z"/>
	<path fill-rule="evenodd" clip-rule="evenodd" d="M2.361,6.646H4.41c0.036-0.216,0.095-0.424,0.179-0.62H2.805V5.564h2.036
		c0.286-0.417,0.686-0.747,1.156-0.947V0.795c0-0.098-0.08-0.178-0.179-0.178H2.361c-0.098,0-0.177,0.08-0.177,0.178v5.673
		C2.185,6.566,2.264,6.646,2.361,6.646L2.361,6.646z M2.805,1.239h2.571v0.46H2.805V1.239L2.805,1.239z M2.805,2.32h2.571v0.461
		H2.805V2.32L2.805,2.32z M2.805,3.401h2.571v0.461H2.805V3.401L2.805,3.401z M2.805,4.483h2.571v0.461H2.805V4.483L2.805,4.483z"/>
</g>
<g>
	<path fill-rule="evenodd" clip-rule="evenodd" fill="#FFFFFF" d="M8.164,6.523H7.171V5.538c0-0.17-0.139-0.31-0.31-0.31
		c-0.172,0-0.31,0.14-0.31,0.31v0.985v0.31c0,0.172,0.138,0.312,0.31,0.312h0.31h0.993c0.17,0,0.309-0.14,0.309-0.312
		S8.334,6.523,8.164,6.523L8.164,6.523z"/>
	<path fill-rule="evenodd" clip-rule="evenodd" fill="#FFFFFF" d="M6.862,4.528c-1.273,0-2.305,1.031-2.305,2.305
		c0,1.273,1.031,2.305,2.305,2.305c1.273,0,2.306-1.032,2.306-2.305C9.168,5.559,8.135,4.528,6.862,4.528L6.862,4.528z M6.862,8.517
		c-0.931,0-1.686-0.753-1.686-1.684c0-0.93,0.754-1.685,1.686-1.685c0.93,0,1.685,0.754,1.685,1.685
		C8.547,7.764,7.792,8.517,6.862,8.517L6.862,8.517z"/>
	<path fill-rule="evenodd" clip-rule="evenodd" fill="#FFFFFF" d="M6.862,4.173c0.136,0,0.267,0.01,0.396,0.029L7.535,1.93h-0.62
		L6.64,4.183C6.713,4.176,6.787,4.173,6.862,4.173L6.862,4.173z"/>
	<path fill-rule="evenodd" clip-rule="evenodd" fill="#FFFFFF" d="M4.203,6.873H1.529L0.916,1.93H0.296l0.719,5.81h0.62l0,0h2.725
		C4.263,7.469,4.208,7.177,4.203,6.873L4.203,6.873z"/>
	<path fill-rule="evenodd" clip-rule="evenodd" fill="#FFFFFF" d="M2.188,6.412h2.047c0.035-0.216,0.096-0.425,0.178-0.62H2.63
		v-0.46h2.036c0.286-0.417,0.686-0.748,1.155-0.947V0.562c0-0.098-0.08-0.177-0.177-0.177H2.188c-0.099,0-0.178,0.079-0.178,0.177
		v5.673C2.009,6.333,2.089,6.412,2.188,6.412L2.188,6.412z M2.63,1.005H5.2v0.461H2.63V1.005L2.63,1.005z M2.63,2.086H5.2v0.461
		H2.63V2.086L2.63,2.086z M2.63,3.168H5.2v0.461H2.63V3.168L2.63,3.168z M2.63,4.25H5.2v0.46H2.63V4.25L2.63,4.25z"/>
</g>
</svg>
