<?xml version="1.0" encoding="utf-8"?>
<!-- Generator: Adobe Illustrator 16.0.0, SVG Export Plug-In . SVG Version: 6.00 Build 0)  -->
<!DOCTYPE svg PUBLIC "-//W3C//DTD SVG 1.1//EN" "http://www.w3.org/Graphics/SVG/1.1/DTD/svg11.dtd">
<svg version="1.1" id="图层_1" xmlns="http://www.w3.org/2000/svg" xmlns:xlink="http://www.w3.org/1999/xlink" x="0px" y="0px"
	 width="141.732px" height="141.732px" viewBox="103.464 103.464 141.732 141.732"
	 enable-background="new 103.464 103.464 141.732 141.732" xml:space="preserve">
<g>
	
		<linearGradient id="SVGID_1_" gradientUnits="userSpaceOnUse" x1="297.2344" y1="-104.543" x2="297.2344" y2="-76.2188" gradientTransform="matrix(1 0 0 -1 -123.3301 102.3701)">
		<stop  offset="0" style="stop-color:#FFA04F"/>
		<stop  offset="1" style="stop-color:#FF4F0A"/>
	</linearGradient>
	<path fill="url(#SVGID_1_)" d="M182.79,178.589c-0.71,2.313,0.632,3.684,1.869,5.242c2.561,3.223,3.369,7.156,3.829,11.125
		c0.297,2.594,0.37,5.221,0.414,7.834c0.042,2.419-1.629,4.112-3.865,4.121c-2.201,0.009-3.769-1.709-3.948-4.105
		c-0.256-3.403-0.625-6.799-0.963-10.195c-0.034-0.344-0.171-0.682-0.273-1.016c-1.311-4.308-4.593-6.004-8.771-4.274
		c-1.026,0.423-2.129,1.58-2.442,2.628c-0.831,2.769-1.333,5.647-1.795,8.51c-0.247,1.53-0.105,3.116-0.202,4.673
		c-0.137,2.219-1.803,3.798-3.917,3.782c-2.103-0.015-3.953-1.66-3.811-3.852c0.282-4.303,0.643-8.617,1.33-12.871
		c0.495-3.055,1.99-5.778,4.263-8.008c0.339-0.334,0.488-0.944,0.558-1.449c0.094-0.677,0.024-1.377,0.024-2.144
		C170.992,178.589,176.713,178.589,182.79,178.589z"/>
	
		<linearGradient id="SVGID_2_" gradientUnits="userSpaceOnUse" x1="297.2324" y1="-54.9766" x2="297.2324" y2="-39.7241" gradientTransform="matrix(1 0 0 -1 -123.3301 102.3701)">
		<stop  offset="0" style="stop-color:#FFA04F"/>
		<stop  offset="1" style="stop-color:#FF4F0A"/>
	</linearGradient>
	<path fill="url(#SVGID_2_)" d="M173.974,157.346c-4.254,0.034-7.716-3.384-7.731-7.632c-0.015-4.174,3.351-7.558,7.577-7.619
		c4.234-0.062,7.749,3.394,7.743,7.615C181.558,153.879,178.145,157.313,173.974,157.346z"/>
	
		<linearGradient id="SVGID_3_" gradientUnits="userSpaceOnUse" x1="297.7686" y1="-69.8525" x2="297.7686" y2="-55.7114" gradientTransform="matrix(1 0 0 -1 -123.3301 102.3701)">
		<stop  offset="0" style="stop-color:#FFA04F"/>
		<stop  offset="1" style="stop-color:#FF4F0A"/>
	</linearGradient>
	<path fill="url(#SVGID_3_)" d="M189.347,168.33c-1.11-2.69-4.135-6.014-4.975-7.51c-0.396-0.704-2.232-1.343-3.053-1.7
		c-2.422-1.054-10.016-1.621-14.41-0.139c-1.917,0.646-3.017,1.703-3.198,1.885c-0.861,0.863-3.488,3.924-4.258,6.733
		c-0.27,0.984-0.583,3.054,1.082,3.942c1.772,0.943,26.271,0.871,28.136,0C190.168,170.841,189.532,168.777,189.347,168.33z
		 M176.252,171.657c-1.039,0.118-3.656,0-3.656,0s-0.787-4.437-1.053-6.47c1.833,0,3.959,0,5.831,0
		C177.088,167.324,176.528,169.591,176.252,171.657z M171.462,164.876c0-0.201,0.16-0.559,0.319-0.712
		c0.057-0.054,0.242-0.052,0.242-0.052s2.067-0.036,3.906-0.02v-1.981l-2.999-3.016l0.244-0.242l3.09,3.107h0.008v2.134
		c0.901,0.009,0.95-0.081,1.144,0.782C175.351,164.876,173.406,164.876,171.462,164.876z"/>
</g>
<linearGradient id="SVGID_4_" gradientUnits="userSpaceOnUse" x1="297.1797" y1="-104.542" x2="297.1797" y2="-68.895" gradientTransform="matrix(1 0 0 -1 -123.3301 102.3701)">
	<stop  offset="0" style="stop-color:#FFA04F"/>
	<stop  offset="1" style="stop-color:#FF4F0A"/>
</linearGradient>
<path fill="url(#SVGID_4_)" d="M206.855,172.418c-0.24-1.274-1.715-1.13-2.694-1.153c-8.548,0.022-52.264-0.011-61.262,0.011
	c-0.807-0.049-1.881,0.156-2.053,1.102c-0.195,1.836-0.195,3.7,0,5.536c0.105,1.018,1.28,1.185,2.098,1.151
	c9.469,0.007,18.934-0.005,28.402,0c0.005,7.011-0.005,14.021,0.005,21.031c-1.44,1.541-3.176,2.838-4.367,4.596
	c-0.216,0.779,0.249,2.22,0.249,2.22h13.468c0,0,0.579-1.463-0.039-2.209c-1.057-1.357-2.565-3.369-3.768-4.592
	c0.011-7.206,0.011-13.84,0.017-21.046c9.091,0.007,18.188-0.01,27.279,0.013c0.968-0.018,2.381,0.104,2.665-1.114
	C207.044,176.123,207.05,174.254,206.855,172.418z"/>
<linearGradient id="SVGID_5_" gradientUnits="userSpaceOnUse" x1="353.9023" y1="-105.542" x2="353.9023" y2="-67.1318" gradientTransform="matrix(1 0 0 -1 -123.3301 102.3701)">
	<stop  offset="0" style="stop-color:#FFA04F"/>
	<stop  offset="1" style="stop-color:#FF4F0A"/>
</linearGradient>
<path fill="url(#SVGID_5_)" d="M237.864,171.754c0.779-3.01,5.574-2.993,6.387-0.005c0.373,3.105,0.084,6.248,0.195,9.363
	c-0.083,3.366,0.507,7.026-1.297,10.071c-0.913,1.741-2.625,2.837-4.412,3.521c1.524,3.694,2.977,7.412,4.518,11.095
	c-1.386,0.595-2.771,1.18-4.166,1.752c-1.732-4.212-3.417-8.436-5.146-12.646c-2.388,0.018-4.775,0.039-7.168,0.078
	c-1.602,4.312-3.159,8.641-4.817,12.93c-1.403-0.534-2.805-1.067-4.207-1.603c1.402-3.705,2.737-7.438,4.151-11.145
	c-1.44-0.133-3.2,0.151-4.274-1.062c-1.891-1.725-0.822-5.414,1.781-5.681c4.824-0.339,9.676,0.039,14.499-0.273
	c1.77-0.044,3.39-1.413,3.601-3.188C237.991,180.577,237.351,176.127,237.864,171.754L237.864,171.754z"/>
<linearGradient id="SVGID_6_" gradientUnits="userSpaceOnUse" x1="343.71" y1="-105.1401" x2="343.71" y2="-56.1523" gradientTransform="matrix(1 0 0 -1 -123.3301 102.3701)">
	<stop  offset="0" style="stop-color:#FFA04F"/>
	<stop  offset="1" style="stop-color:#FF4F0A"/>
</linearGradient>
<path fill="url(#SVGID_6_)" d="M235.822,179.187c-0.528-6.047-2.463-11.613-5.758-16.704c-1.161-1.795-2.719-3.103-4.821-3.677
	c-3.354-0.918-5.695,0.418-6.741,3.721c-0.359,1.14-0.879,2.264-1.518,3.272c-0.992,1.566-2.039,1.855-3.576,0.871
	c-1.3-0.833-2.419-1.952-3.602-2.966c-0.195-0.168-1.735-1.475-2.551-1.567c-1.406-0.161-2.313,1.023-2.355,1.57
	c-0.003,0.028-0.008,0.056-0.015,0.082c2.254-1.044,3.131-0.769,5.014,1.162c0.979,1.005,2.036,1.981,3.202,2.748
	c1.988,1.306,3.711,1.121,5.288-0.643c1.023-1.148,1.83-2.521,2.581-3.877c1.004-1.813,2.693-2.583,4.375-1.813
	c1.706,0.781,2.484,2.646,1.47,4.438c-1.229,2.169-2.739,4.194-4.265,6.174c-0.494,0.642-0.705,1.032-0.392,1.823
	c0.691,1.749,1.239,3.556,1.918,5.553c-3.947,0-7.572,0-11.195,0c-5.54-0.003-6.661,1.151-6.096,6.597
	c0.625,6.021,1.33,12.033,2.076,18.039c0.299,2.402,2.281,3.8,4.647,3.476c2.174-0.296,3.651-2.288,3.394-4.6
	c-0.213-1.904-0.453-3.808-0.664-5.712c-0.351-3.145-0.686-6.292-1.047-9.619c0.708,0,1.253,0,1.797,0
	c3.784-0.013,7.579,0.129,11.354-0.073C233.807,187.168,236.272,184.32,235.822,179.187z"/>
<linearGradient id="SVGID_7_" gradientUnits="userSpaceOnUse" x1="338.8594" y1="-56.9009" x2="338.8594" y2="-42.2715" gradientTransform="matrix(1 0 0 -1 -123.3301 102.3701)">
	<stop  offset="0" style="stop-color:#FFA04F"/>
	<stop  offset="1" style="stop-color:#FF4F0A"/>
</linearGradient>
<path fill="url(#SVGID_7_)" d="M208.219,151.961c-0.009-4.089,3.172-7.298,7.252-7.32c4.126-0.022,7.396,3.25,7.37,7.374
	c-0.027,4.036-3.296,7.263-7.35,7.256C211.438,159.264,208.225,156.034,208.219,151.961z"/>
<linearGradient id="SVGID_8_" gradientUnits="userSpaceOnUse" x1="327.8008" y1="-68.4331" x2="327.8008" y2="-56.6763" gradientTransform="matrix(1 0 0 -1 -123.3301 102.3701)">
	<stop  offset="0" style="stop-color:#FFA04F"/>
	<stop  offset="1" style="stop-color:#FF4F0A"/>
</linearGradient>
<path fill="url(#SVGID_8_)" d="M209.576,159.251c0.061-0.059,0.133-0.108,0.208-0.148c0.171-0.092,0.322-0.071,0.446,0.054
	c0.133,0.129,0.156,0.268,0.063,0.445c-0.043,0.081-0.095,0.162-0.158,0.226c-0.643,0.638-0.531,0.516-1.179,1.151
	c-0.238,0.233-0.483,0.461-0.721,0.695c-0.44,0.429-0.88,0.859-1.319,1.29c-0.335,0.326-0.669,0.651-1.004,0.975
	c-0.349,0.338-0.698,0.678-1.044,1.016c-0.338,0.328-0.675,0.654-1.011,0.981c-0.347,0.336-0.694,0.674-1.04,1.01
	c-0.341,0.332-0.683,0.664-1.023,0.996c-0.346,0.336-0.691,0.674-1.038,1.01c-0.338,0.329-0.678,0.659-1.018,0.989
	c-0.271,0.262-0.542,0.524-0.813,0.786c-0.098,0.094-0.2,0.103-0.279,0.022c-0.081-0.08-0.072-0.182,0.023-0.281
	c0.429-0.439,0.859-0.88,1.289-1.319c0.43-0.44,0.858-0.882,1.287-1.323c0.269-0.275,0.535-0.549,0.802-0.825
	c0.399-0.41,0.799-0.82,1.197-1.23c0.272-0.28,0.543-0.56,0.816-0.839c0.392-0.403,0.783-0.806,1.175-1.209
	c0.273-0.282,0.549-0.564,0.823-0.847c0.39-0.4,0.78-0.801,1.169-1.201c0.284-0.292,0.567-0.584,0.851-0.875
	c0.378-0.389,0.754-0.779,1.135-1.167c0.132-0.133-0.013,0.012-0.1,0.098c0,0,0,0,0.001,0c-0.087,0.087-0.056,0.056-0.001,0
	c-0.004-0.003-0.007-0.007-0.01-0.01C209.261,159.563,209.414,159.403,209.576,159.251z"/>
<linearGradient id="SVGID_9_" gradientUnits="userSpaceOnUse" x1="326.9082" y1="-67.7114" x2="326.9082" y2="-56.4424" gradientTransform="matrix(1 0 0 -1 -123.3301 102.3701)">
	<stop  offset="0" style="stop-color:#FFA04F"/>
	<stop  offset="1" style="stop-color:#FF4F0A"/>
</linearGradient>
<path fill="url(#SVGID_9_)" d="M208.8,158.831c0.124-0.03,0.246-0.035,0.343,0.077c0.095,0.112,0.127,0.238,0.073,0.374
	c-0.04,0.097-0.094,0.196-0.163,0.272c-0.152,0.169-0.319,0.325-0.48,0.486c-0.005-0.005-0.01-0.01-0.015-0.016
	c-0.478,0.478-0.952,0.955-1.431,1.429c-0.316,0.313-0.64,0.621-0.958,0.931c-0.647,0.629-1.293,1.256-1.941,1.884
	c-0.318,0.311-0.64,0.621-0.958,0.93c-0.324,0.316-0.649,0.631-0.974,0.945c-0.321,0.313-0.646,0.626-0.968,0.938
	c-0.321,0.313-0.645,0.625-0.967,0.938c-0.322,0.313-0.645,0.625-0.966,0.938c-0.322,0.313-0.646,0.625-0.967,0.938
	c-0.322,0.313,0.694-0.712,0.371-0.401c-0.182,0.178-0.368,0.353-0.554,0.526c-0.083,0.079-0.19,0.08-0.269,0.004
	c-0.084-0.08-0.085-0.19-0.001-0.276c0.242-0.254,0.487-0.508,0.73-0.76c0.504-0.516-0.331,0.308,0.172-0.209
	c0.241-0.247,0.479-0.494,0.721-0.744c0.373-0.384,0.748-0.769,1.12-1.153c0.251-0.257,0.5-0.515,0.749-0.772
	c0.36-0.373,0.723-0.746,1.086-1.118c0.264-0.271,0.526-0.544,0.79-0.815c0.353-0.363,0.706-0.726,1.057-1.09
	c0.263-0.269,0.523-0.539,0.784-0.808c0.353-0.363,0.705-0.726,1.059-1.089c0.325-0.336,0.65-0.675,0.979-1.01
	c0.341-0.351,0.682-0.703,1.03-1.046C208.404,158.986,208.591,158.881,208.8,158.831z"/>
<linearGradient id="SVGID_10_" gradientUnits="userSpaceOnUse" x1="338.75" y1="-72.0283" x2="338.75" y2="-59.3018" gradientTransform="matrix(1 0 0 -1 -123.3301 102.3701)">
	<stop  offset="0" style="stop-color:#FFA04F"/>
	<stop  offset="1" style="stop-color:#FF4F0A"/>
</linearGradient>
<path fill="url(#SVGID_10_)" d="M214.771,174.398c-0.713-0.202-2.065-0.449-3.302-0.969c-2.715-1.142-4.797-3.141-6.632-5.387
	c-0.948-1.162-0.727-2.762,0.368-3.655c1.063-0.871,2.508-0.773,3.571,0.225c1.209,1.136,2.329,2.4,3.665,3.363
	c2.497,1.8,4.694,1.523,6.679-0.805c0.937-1.1,1.663-2.396,2.372-3.665c0.883-1.58,2.173-2.214,3.572-1.602
	c1.455,0.638,1.937,2.145,1.183,3.83c-1.192,2.667-2.826,5.003-5.196,6.767C219.377,173.742,217.493,174.369,214.771,174.398z"/>
<linearGradient id="SVGID_11_" gradientUnits="userSpaceOnUse" x1="241.6621" y1="-105.6475" x2="241.6621" y2="-67.2358" gradientTransform="matrix(1 0 0 -1 -123.3301 102.3701)">
	<stop  offset="0" style="stop-color:#FFA04F"/>
	<stop  offset="1" style="stop-color:#FF4F0A"/>
</linearGradient>
<path fill="url(#SVGID_11_)" d="M111.039,171.858c-0.779-3.01-5.575-2.993-6.387-0.005c-0.373,3.104-0.083,6.248-0.194,9.362
	c0.083,3.366-0.507,7.028,1.295,10.072c0.913,1.741,2.626,2.838,4.413,3.521c-1.524,3.694-2.976,7.412-4.517,11.095
	c1.385,0.596,2.77,1.18,4.167,1.752c1.73-4.212,3.416-8.435,5.146-12.646c2.387,0.018,4.774,0.039,7.167,0.078
	c1.602,4.313,3.16,8.641,4.818,12.932c1.402-0.535,2.804-1.068,4.206-1.603c-1.402-3.706-2.738-7.439-4.15-11.145
	c1.44-0.134,3.199,0.149,4.272-1.063c1.892-1.726,0.824-5.413-1.78-5.681c-4.824-0.339-9.676,0.039-14.5-0.271
	c-1.77-0.046-3.388-1.414-3.599-3.188C110.911,180.681,111.551,176.23,111.039,171.858L111.039,171.858z"/>
<linearGradient id="SVGID_12_" gradientUnits="userSpaceOnUse" x1="251.8525" y1="-105.2451" x2="251.8525" y2="-56.2554" gradientTransform="matrix(1 0 0 -1 -123.3301 102.3701)">
	<stop  offset="0" style="stop-color:#FFA04F"/>
	<stop  offset="1" style="stop-color:#FF4F0A"/>
</linearGradient>
<path fill="url(#SVGID_12_)" d="M113.079,179.291c0.53-6.046,2.464-11.614,5.759-16.706c1.162-1.795,2.72-3.102,4.82-3.677
	c3.356-0.919,5.696,0.418,6.742,3.721c0.36,1.139,0.879,2.264,1.52,3.272c0.992,1.567,2.038,1.855,3.575,0.872
	c1.3-0.833,2.42-1.952,3.601-2.965c0.196-0.169,1.735-1.475,2.552-1.568c1.407-0.162,2.312,1.023,2.356,1.57
	c0.001,0.028,0.007,0.055,0.014,0.082c-2.255-1.044-3.132-0.769-5.014,1.162c-0.979,1.005-2.035,1.981-3.202,2.748
	c-1.988,1.305-3.711,1.12-5.287-0.644c-1.025-1.148-1.831-2.52-2.582-3.876c-1.003-1.813-2.692-2.582-4.374-1.813
	c-1.706,0.781-2.485,2.646-1.47,4.438c1.23,2.169,2.739,4.193,4.265,6.175c0.494,0.641,0.704,1.03,0.392,1.822
	c-0.691,1.749-1.239,3.556-1.918,5.552c3.947,0,7.572,0,11.196,0c5.539-0.001,6.659,1.153,6.094,6.598
	c-0.624,6.021-1.33,12.033-2.077,18.04c-0.298,2.401-2.281,3.798-4.646,3.476c-2.174-0.297-3.651-2.29-3.393-4.601
	c0.212-1.905,0.451-3.806,0.663-5.711c0.35-3.145,0.686-6.292,1.048-9.62c-0.711,0-1.254,0.001-1.798-0.001
	c-3.785-0.012-7.578,0.13-11.353-0.073C115.097,187.271,112.63,184.425,113.079,179.291z"/>
<linearGradient id="SVGID_13_" gradientUnits="userSpaceOnUse" x1="256.7041" y1="-57.0039" x2="256.7041" y2="-42.375" gradientTransform="matrix(1 0 0 -1 -123.3301 102.3701)">
	<stop  offset="0" style="stop-color:#FFA04F"/>
	<stop  offset="1" style="stop-color:#FF4F0A"/>
</linearGradient>
<path fill="url(#SVGID_13_)" d="M140.685,152.065c0.006-4.088-3.174-7.297-7.254-7.32c-4.126-0.022-7.396,3.25-7.369,7.374
	c0.027,4.036,3.296,7.263,7.349,7.255C137.464,159.368,140.679,156.137,140.685,152.065z"/>
<linearGradient id="SVGID_14_" gradientUnits="userSpaceOnUse" x1="269.0059" y1="-67.2739" x2="269.0059" y2="-60.0376" gradientTransform="matrix(1 0 0 -1 -123.3301 102.3701)">
	<stop  offset="0" style="stop-color:#FFA04F"/>
	<stop  offset="1" style="stop-color:#FF4F0A"/>
</linearGradient>
<path fill="url(#SVGID_14_)" d="M145.052,165.91c-0.111-0.1-0.221-0.203-0.331-0.303c-0.376-0.349-0.751-0.7-1.127-1.048
	c-0.297-0.274-0.596-0.546-0.895-0.821c-0.177-0.162-0.358-0.32-0.532-0.486c-0.169-0.16-0.169-0.328-0.007-0.498
	c0.036-0.038,0.074-0.075,0.111-0.112c-0.001,0-0.001-0.001-0.002-0.002c0.059-0.054,0.114-0.11,0.176-0.159
	c0.134-0.105,0.299-0.098,0.42,0.025c0.125,0.124,0.243,0.254,0.361,0.385c0.11,0.122,0.214,0.248,0.326,0.369
	c0.24,0.262,0.484,0.519,0.724,0.781c0.305,0.332,0.607,0.668,0.911,1.003c0.102,0.113,0.205,0.225,0.309,0.337
	c0.229,0.246,0.458,0.494,0.687,0.741c0.072,0.077,0.139,0.159,0.214,0.234c0.019,0.018,0.065,0.034,0.087,0.024
	c0.431-0.187,0.856-0.129,1.264,0.057c0.76,0.348,1.283,0.915,1.506,1.729c0.094,0.338,0.084,0.678-0.097,0.991
	c-0.174,0.299-0.449,0.447-0.787,0.479c-0.439,0.042-0.835-0.094-1.201-0.326c-0.579-0.368-0.995-0.867-1.179-1.539
	c-0.082-0.302-0.084-0.603,0.032-0.9c0.012-0.028-0.002-0.084-0.026-0.105C145.684,166.478,145.367,166.194,145.052,165.91z"/>
<linearGradient id="SVGID_15_" gradientUnits="userSpaceOnUse" x1="256.8135" y1="-72.1328" x2="256.8135" y2="-59.4058" gradientTransform="matrix(1 0 0 -1 -123.3301 102.3701)">
	<stop  offset="0" style="stop-color:#FFA04F"/>
	<stop  offset="1" style="stop-color:#FF4F0A"/>
</linearGradient>
<path fill="url(#SVGID_15_)" d="M134.134,174.503c0.712-0.204,2.064-0.45,3.3-0.97c2.716-1.142,4.798-3.141,6.633-5.387
	c0.948-1.161,0.726-2.761-0.368-3.655c-1.063-0.87-2.509-0.772-3.571,0.225c-1.209,1.137-2.33,2.401-3.666,3.364
	c-2.497,1.799-4.694,1.522-6.679-0.806c-0.937-1.1-1.664-2.396-2.372-3.666c-0.883-1.58-2.172-2.215-3.571-1.601
	c-1.455,0.638-1.938,2.145-1.184,3.83c1.193,2.666,2.827,5.004,5.198,6.767C129.525,173.846,131.409,174.473,134.134,174.503z"/>
<linearGradient id="SVGID_16_" gradientUnits="userSpaceOnUse" x1="274.8135" y1="-68.9722" x2="274.8135" y2="-66.6426" gradientTransform="matrix(1 0 0 -1 -123.3301 102.3701)">
	<stop  offset="0" style="stop-color:#FFA04F"/>
	<stop  offset="1" style="stop-color:#FF4F0A"/>
</linearGradient>
<ellipse fill="url(#SVGID_16_)" cx="151.483" cy="170.177" rx="7.756" ry="1.165"/>
<linearGradient id="SVGID_17_" gradientUnits="userSpaceOnUse" x1="321.2451" y1="-68.8779" x2="321.2451" y2="-66.5474" gradientTransform="matrix(1 0 0 -1 -123.3301 102.3701)">
	<stop  offset="0" style="stop-color:#FFA04F"/>
	<stop  offset="1" style="stop-color:#FF4F0A"/>
</linearGradient>
<ellipse fill="url(#SVGID_17_)" cx="197.915" cy="170.083" rx="7.755" ry="1.165"/>
</svg>
